<?xml version="1.0" encoding="utf-8"?>
<!-- Generator: Adobe Illustrator 19.1.0, SVG Export Plug-In . SVG Version: 6.00 Build 0)  -->
<svg version="1.1" id="Layer_1" xmlns="http://www.w3.org/2000/svg" xmlns:xlink="http://www.w3.org/1999/xlink" x="0px" y="0px"
	 viewBox="0 0 500 500" style="enable-background:new 0 0 500 500;" xml:space="preserve">
<style type="text/css">
	.st0{fill-rule:evenodd;clip-rule:evenodd;fill:url(#SVGID_1_);}
	.st1{fill-rule:evenodd;clip-rule:evenodd;fill:url(#SVGID_3_);}
</style>
<linearGradient id="SVGID_1_" gradientUnits="userSpaceOnUse" x1="250" y1="500" x2="250" y2="-1.122316e-008">
	<stop  offset="0" style="stop-color:#115EA7"/>
	<stop  offset="1" style="stop-color:#258ECD"/>
</linearGradient>
<path id="SVGID_5_" class="st0" d="M0,0h500v244l-142.9,0c0,0-8.4-20.7-12.5-31.6c-4.1-10.7-8.4-21.4-12.6-32.1
	c-4.4,10.7-8.7,21.3-12.9,31.9c-4.2,10.6-8.4,21.1-12.6,31.6c-7.8-0.1-15.5-0.1-23.2-0.2l-13.5,40.7l-30.4-136.4L213.6,243
	c-10.3-0.2-20.5-0.4-30.3-0.6c-3.7,10.1-10.9,30-10.9,30l-22-72.5L131,243.7L0,243.8V98.4V0z M500,273.4V500L0,499.8V273.3l135.7,0
	l13-27.4c0,0,7.2,21.2,10.7,31.9c3.6,10.7,7.2,21.6,10.9,32.4c4.5-7.7,9-15.4,13.4-23.1c4.5-7.8,9-15.6,13.7-23.5
	c7.8,0.2,20.3,0.3,28.2,0.5c5.3-10.9,5.8-37.2,11.1-48.2l30.5,154.9l31-104.2c7.3,0.2,14.6,0.3,21.9,0.5
	c3.7-12.1,11.4-36.2,11.4-36.2l16.5,42.6C347.9,273.4,436.4,273.4,500,273.4L500,273.4z"/>
<linearGradient id="SVGID_3_" gradientUnits="userSpaceOnUse" x1="170.2973" y1="310.1551" x2="170.2973" y2="310.1551">
	<stop  offset="0" style="stop-color:#115EA7"/>
	<stop  offset="1" style="stop-color:#258ECD"/>
</linearGradient>
<path class="st1" d="M170.3,310.2"/>
</svg>
