<svg width="133" height="38" viewBox="0 0 133 38" fill="none" xmlns="http://www.w3.org/2000/svg">
<g filter="url(#filter0_d_1_12812)">
<path d="M90.9974 12.4974C92.2458 12.4974 93.4941 12.473 94.7425 12.4974C96.029 12.5296 96.6104 13.0895 96.8215 14.3699C96.9354 14.9707 96.9765 15.5829 96.9439 16.1935C96.8934 16.8605 96.6471 17.4541 96.078 17.8182C95.5946 18.1241 95.5563 18.4301 95.8699 18.8661C96.0229 19.0895 96.104 19.3694 96.2447 19.6065C96.5721 20.1634 96.3503 20.5979 95.6909 20.5734C95.079 20.5504 94.5818 20.321 94.3019 19.6907C93.6899 18.3138 93.179 18.0828 91.6599 18.2205C90.8781 18.2924 90.0841 18.245 89.2963 18.2526C88.2116 18.2649 88.1489 18.3291 88.126 19.4337C88.1076 20.3516 87.9607 20.477 87.1362 20.4801C86.4936 20.4801 86.2427 20.1389 86.2917 19.5729C86.3562 18.5318 86.3649 17.4879 86.3177 16.4459C86.3177 16.1201 86.2213 15.6076 86.7506 15.6565C87.2218 15.6994 88.0082 15.1318 88.1045 16.1889C88.1428 16.6203 88.4457 16.6876 88.8144 16.6861C90.4972 16.6784 92.18 16.6861 93.8628 16.6784C94.7226 16.6784 95.076 16.2807 95.0867 15.3888C95.0974 14.4969 94.7195 13.9997 93.8628 13.9844C92.31 13.9538 90.7542 13.9722 89.2014 13.9722C88.487 13.9722 87.7741 13.9722 87.0597 13.9722C86.5196 13.9722 86.2611 13.7335 86.2718 13.1859C86.2825 12.6382 86.5671 12.4286 87.0949 12.4332C88.3937 12.4454 89.6956 12.4332 90.9913 12.4332L90.9974 12.4974Z" fill="white"/>
</g>
<g filter="url(#filter1_d_1_12812)">
<path d="M65.7764 12.4852C67.0003 12.4852 68.2242 12.4684 69.448 12.4852C70.8524 12.5112 71.4567 13.013 71.654 14.3929C71.744 15.0736 71.7569 15.7624 71.6923 16.446C71.6005 17.5168 70.9794 18.0767 69.8121 18.1639C68.0093 18.2955 66.2 18.3124 64.395 18.2144C63.1574 18.1486 62.9432 18.3368 62.9967 19.5438C63.0228 20.1313 62.83 20.4617 62.189 20.4725C61.5908 20.4801 61.1304 20.4082 61.1564 19.6249C61.1931 18.5326 61.164 17.4373 61.1671 16.345C61.1671 15.9962 61.2069 15.5097 61.6658 15.5097C62.1247 15.5097 62.8193 15.2236 62.9432 16.1216C63.009 16.5806 63.2645 16.703 63.6729 16.7014C65.3772 16.7014 67.0844 16.7167 68.7887 16.6892C69.6194 16.6754 69.8764 16.3236 69.8764 15.3797C69.8764 14.3975 69.5903 14.0105 68.7627 14.0028C66.5475 13.9829 64.3262 14.0028 62.1186 13.9891C61.7392 13.9891 61.3292 14.0135 61.1732 13.5301C60.9514 12.8509 61.242 12.4592 61.9641 12.4592H65.7887L65.7764 12.4852Z" fill="white"/>
</g>
<g filter="url(#filter2_d_1_12812)">
<path d="M56.6375 14.3197C55.7395 16.0882 54.8721 17.7802 54.0215 19.4814C53.7339 20.0566 53.4096 20.5064 52.6584 20.4865C51.9073 20.4666 51.4345 20.1468 51.1163 19.4707C50.4065 17.9806 49.6401 16.5166 48.9195 15.0342C48.5631 14.2999 48.0934 13.8348 47.1954 13.9893C46.686 14.078 46.4488 13.7904 46.4305 13.2886C46.4091 12.8159 46.533 12.5543 47.0822 12.4794C48.918 12.2315 49.6538 12.6323 50.3331 14.3366C50.9358 15.8465 51.7329 17.257 52.5865 18.7914C53.0286 17.9791 53.431 17.2616 53.8104 16.5303C54.3504 15.4946 54.892 14.459 55.4014 13.4064C55.741 12.7088 56.2091 12.3096 57.0276 12.4885C57.0783 12.4955 57.1294 12.4986 57.1806 12.4977C58.7272 12.5819 58.7242 12.5819 58.7242 14.1928C58.7242 15.975 58.7104 17.7573 58.7441 19.5472C58.7578 20.2448 58.4932 20.4911 57.8017 20.488C57.0873 20.488 56.8715 20.182 56.8838 19.5104C56.9159 18.0602 56.9006 16.6038 56.8838 15.1581C56.8853 14.8888 56.9985 14.5844 56.6375 14.3197Z" fill="white"/>
</g>
<g filter="url(#filter3_d_1_12812)">
<path d="M126.689 14.321C125.783 16.1033 124.901 17.7861 124.072 19.4934C123.746 20.168 123.316 20.503 122.542 20.4862C121.768 20.4694 121.417 20.0426 121.122 19.4276C120.374 17.8733 119.592 16.3343 118.84 14.783C118.534 14.1589 118.062 13.8651 117.363 13.9814C116.884 14.061 116.559 13.9279 116.511 13.3894C116.468 12.909 116.543 12.5786 117.143 12.4715C118.797 12.193 119.719 12.6535 120.327 14.2093C120.934 15.7652 121.786 17.2093 122.621 18.7988L124.267 15.7208C124.685 14.9375 125.101 14.1527 125.522 13.3695C126.169 12.164 127.326 12.2603 128.318 12.4806C128.624 12.5464 128.632 12.7774 128.634 13.01C128.634 15.3047 128.634 17.5887 128.634 19.8789C128.634 20.575 128.129 20.4204 127.716 20.451C127.215 20.4862 126.951 20.3164 126.951 19.7733C126.961 18.2986 126.951 16.8238 126.951 15.3491C126.945 15.037 127.004 14.6974 126.689 14.321Z" fill="white"/>
</g>
<g filter="url(#filter4_d_1_12812)">
<path d="M108.611 20.4634C107.594 20.4634 106.575 20.4848 105.552 20.4634C104.092 20.4251 103.548 19.8698 103.523 18.3905C103.494 16.6862 103.494 14.982 103.491 13.2778C103.491 12.8846 103.39 12.4226 104.054 12.441C105.266 12.4731 105.278 12.4608 105.278 13.3344C105.278 14.7112 105.278 16.0804 105.287 17.4527C105.302 18.7836 105.478 18.9519 106.788 18.958C108.164 18.9641 109.541 18.9641 110.918 18.958C111.957 18.958 112.257 18.652 112.255 17.5812C112.255 16.1569 112.288 14.7311 112.233 13.3084C112.2 12.493 112.655 12.4914 113.242 12.47C113.854 12.4471 114.117 12.6475 114.103 13.2946C114.068 14.8963 114.103 16.5072 114.076 18.1028C114.053 19.7306 113.372 20.4098 111.746 20.4725C111.212 20.4924 110.675 20.494 110.144 20.4986C109.635 20.4986 109.125 20.4986 108.614 20.4986L108.611 20.4634Z" fill="white"/>
</g>
<g filter="url(#filter5_d_1_12812)">
<path d="M78.9327 20.4741C77.5558 20.4741 76.179 20.4572 74.8022 20.4741C74.1642 20.4848 73.8598 20.2522 73.8751 19.5852C73.8996 18.5434 73.898 17.5001 73.8751 16.4583C73.8613 15.8769 74.0923 15.6276 74.6828 15.6306C77.1785 15.6429 79.6741 15.6429 82.1698 15.6306C82.6731 15.6306 82.9347 15.8249 82.9347 16.339C82.9347 16.8866 82.6746 17.1039 82.1346 17.1039C80.3264 17.087 78.5181 17.113 76.7099 17.0794C76.0123 17.0656 75.6527 17.2752 75.6788 18.0248C75.7063 18.8387 75.8715 19.0314 76.7496 19.0299C78.8378 19.0299 80.9245 19.01 83.0127 19.0054C83.3661 19.0054 83.7379 18.9764 83.8878 19.4307C84.0959 20.0641 83.822 20.4649 83.1229 20.471C81.7369 20.4817 80.3355 20.4741 78.9327 20.4741Z" fill="white"/>
</g>
<g filter="url(#filter6_d_1_12812)">
<path d="M77.0332 24.5374C77.8226 24.5374 78.612 24.5374 79.4014 24.5374C79.6844 24.5374 79.9353 24.6078 79.9138 24.9474C79.8939 25.2426 79.6997 25.3589 79.3906 25.3558C78.1943 25.3436 76.9965 25.3558 75.8001 25.3558C75.4437 25.3558 75.0352 25.2962 75.0138 25.827C74.9939 26.4298 75.459 26.338 75.8277 26.3395C76.793 26.3395 77.7583 26.3319 78.7252 26.3212C79.0311 26.3212 79.3126 26.3548 79.3187 26.7373C79.3264 27.1564 79.051 27.1962 78.7068 27.1962C77.6895 27.1733 76.6706 27.1962 75.6472 27.1672C75.2525 27.1595 74.9939 27.2482 75.0077 27.698C75.0215 28.1248 75.254 28.2457 75.6579 28.2396C76.8817 28.2197 78.1056 28.2273 79.3295 28.2304C79.6018 28.2304 79.9414 28.1677 79.9567 28.5868C79.9704 29.0458 79.6293 28.9892 79.3126 28.9999C77.9648 29.0488 76.6155 28.9448 75.2678 29.0886C74.359 29.1865 73.9735 28.8224 73.9643 27.9229C73.9567 26.982 74.0118 26.0412 74.024 25.1004C74.024 24.6521 74.2994 24.5435 74.6711 24.542C75.4544 24.5343 76.2438 24.5359 77.0332 24.5374Z" fill="white"/>
</g>
<g filter="url(#filter7_d_1_12812)">
<path d="M110.585 28.9982C109.923 28.9982 109.262 28.9982 108.596 28.9982C108.341 28.9982 108.027 29.0517 108.004 28.7014C107.981 28.3281 108.296 28.2761 108.592 28.2746C109.788 28.2746 110.984 28.2746 112.179 28.2654C112.382 28.2789 112.585 28.2508 112.776 28.1828C113.051 28.0543 113.045 27.7712 112.99 27.5158C112.921 27.1945 112.658 27.1777 112.393 27.1761C111.35 27.1761 110.307 27.1853 109.263 27.1547C108.382 27.1302 107.923 26.7692 107.813 26.0946C107.675 25.2455 108.119 24.6152 108.982 24.577C110.403 24.5142 111.829 24.528 113.252 24.5066C113.521 24.5066 113.711 24.6045 113.711 24.8906C113.701 25.2424 113.466 25.3495 113.138 25.3495C111.915 25.3495 110.691 25.3602 109.467 25.3495C108.956 25.3419 108.755 25.5576 108.855 26.0425C108.937 26.4617 109.286 26.3959 109.585 26.3975C110.602 26.3975 111.619 26.3776 112.635 26.4097C113.651 26.4418 114.076 26.8549 114.072 27.6993C114.067 28.5438 113.629 28.966 112.638 29.0119C111.953 29.0441 111.261 29.0119 110.579 29.0119L110.585 28.9982Z" fill="white"/>
</g>
<g filter="url(#filter8_d_1_12812)">
<path d="M99.1957 16.4982C99.1957 15.4029 99.2217 14.3075 99.1866 13.2152C99.1667 12.5803 99.439 12.4396 100.016 12.4702C100.551 12.4993 101.044 12.4212 101.035 13.2137C101.01 15.3748 101.01 17.537 101.035 19.7002C101.035 20.3916 100.67 20.4742 100.108 20.4651C99.5445 20.4559 99.1667 20.4131 99.1896 19.7002C99.2309 18.6293 99.2003 17.5584 99.2003 16.4875L99.1957 16.4982Z" fill="white"/>
</g>
<g filter="url(#filter9_d_1_12812)">
<path d="M78.8946 13.899C77.5177 13.899 76.1409 13.8807 74.764 13.9082C74.1934 13.9204 73.8997 13.7292 73.8859 13.1433C73.8706 12.5115 74.2745 12.4824 74.7503 12.4839C77.504 12.4931 80.2541 12.4931 83.0006 12.4839C83.4596 12.4839 83.8741 12.4839 83.8634 13.1387C83.8543 13.7323 83.5957 13.9235 83.0144 13.9036C81.6452 13.8745 80.2699 13.899 78.8946 13.899Z" fill="white"/>
</g>
<g filter="url(#filter10_d_1_12812)">
<path d="M42.1854 16.4171C42.1854 15.3248 42.1991 14.2326 42.1777 13.1418C42.1685 12.6522 42.346 12.4304 42.8462 12.4809C43.2945 12.5253 43.8712 12.3172 43.8682 13.1158C43.8559 15.3248 43.8559 17.5334 43.8682 19.7415C43.8682 20.4605 43.426 20.4528 42.9044 20.4727C42.3108 20.4957 42.1655 20.2249 42.1777 19.691C42.2037 18.6002 42.1854 17.5079 42.1854 16.4171Z" fill="white"/>
</g>
<g filter="url(#filter11_d_1_12812)">
<path d="M93.9616 24.5388H96.7826C97.0595 24.5388 97.289 24.5771 97.2752 24.9457C97.2614 25.3144 97.058 25.3527 96.7688 25.3603C96.2869 25.3741 95.8066 25.4108 95.3247 25.4353C94.6255 25.4735 94.3471 25.8942 94.3425 26.5398C94.3425 27.1518 94.3303 27.7637 94.3425 28.3756C94.3425 28.7183 94.2691 28.9967 93.8637 29.0074C93.4216 29.0197 93.316 28.7305 93.3191 28.3542C93.3191 27.6184 93.3099 26.881 93.3313 26.1451C93.3481 25.5669 93.1263 25.3053 92.5205 25.3496C91.9896 25.3894 91.4496 25.3603 90.9203 25.3496C90.6388 25.3496 90.4002 25.2578 90.3956 24.9335C90.391 24.6092 90.6465 24.5174 90.9188 24.5159C91.9361 24.5159 92.9519 24.5159 93.9677 24.5159L93.9616 24.5388Z" fill="white"/>
</g>
<g filter="url(#filter12_d_1_12812)">
<path d="M59.6431 28.9983C59.0572 28.9983 58.4713 28.983 57.8853 28.9983C57.1862 29.0213 56.8772 28.6235 56.7426 28.01C56.6798 27.7286 56.7349 27.5037 57.0332 27.3981C57.3315 27.2926 57.6314 27.3614 57.7018 27.6918C57.818 28.2349 58.1852 28.2655 58.6197 28.2594C59.3326 28.2502 60.047 28.241 60.7614 28.2594C61.3733 28.2793 61.6502 28.0192 61.6349 27.3996C61.6166 26.6623 61.6349 25.9234 61.6349 25.1845C61.6349 24.8112 61.7068 24.522 62.1673 24.5312C62.6278 24.5404 62.6905 24.828 62.6844 25.2028C62.6691 26.0427 62.6844 26.8856 62.6615 27.724C62.6278 28.6587 62.2499 29.006 61.3305 29.0044C61.0505 29.0044 60.7691 28.9952 60.4891 28.9937C60.2091 28.9922 59.9246 28.9983 59.6431 28.9983Z" fill="white"/>
</g>
<g filter="url(#filter13_d_1_12812)">
<path d="M46.4081 18.1027C46.4081 17.5704 46.4295 17.0319 46.4081 16.5041C46.3744 15.8248 46.7538 15.5954 47.3459 15.5984C47.9379 15.6015 48.3035 15.8049 48.2775 16.501C48.2393 17.5413 48.2439 18.5846 48.2775 19.6249C48.2974 20.3164 47.9639 20.4939 47.3397 20.4862C46.7156 20.4786 46.3591 20.3516 46.4371 19.6264C46.4672 19.117 46.4703 18.6064 46.4463 18.0966L46.4081 18.1027Z" fill="white"/>
</g>
<g filter="url(#filter14_d_1_12812)">
<path d="M118.33 18.158V19.8271C118.33 20.6011 117.754 20.4313 117.298 20.4619C116.842 20.4925 116.496 20.4313 116.502 19.8362C116.516 18.6736 116.495 17.5094 116.484 16.3452C116.484 15.7072 116.905 15.6093 117.402 15.6109C117.899 15.6124 118.332 15.7026 118.335 16.336C118.335 16.9479 118.335 17.5507 118.335 18.158H118.33Z" fill="white"/>
</g>
<g filter="url(#filter15_d_1_12812)">
<path d="M30.2629 8.58874C29.3756 9.35365 28.5158 10.1415 27.5827 10.9783C28.7377 11.2583 28.7331 11.2537 28.1365 12.1747C26.0406 15.4056 23.088 17.5703 19.5924 19.0665C16.2176 20.5122 12.6408 21.167 9.03658 21.7422C7.65056 21.964 7.21456 21.9609 7.06311 21.1716C6.53583 21.193 6.00804 21.2205 5.47974 21.2542V22.0543C5.92798 24.043 6.55061 25.966 7.65209 27.6978C9.04727 29.9124 11.0713 31.6606 13.4654 32.7187C13.8708 32.3072 14.2533 31.8712 14.3726 31.3327C14.3827 31.2899 14.396 31.248 14.4124 31.2072L14.2824 31.1368C14.4889 30.9609 14.6357 30.8309 14.7948 30.7024C18.572 27.8538 21.7097 24.401 24.3838 20.5183C26.1919 17.8648 27.8021 15.0817 29.2012 12.1915C29.3282 11.9329 29.3726 11.2277 29.9738 11.8564C30.1512 12.0416 30.295 11.8167 30.3256 11.63C30.4786 10.703 30.6316 9.77435 30.7372 8.84116C30.78 8.49236 30.5398 8.35315 30.2629 8.58874Z" fill="white"/>
</g>
<g filter="url(#filter16_d_1_12812)">
<path d="M31.6441 14.0855C32.8923 17.0083 33.0697 20.2778 32.145 23.3185C31.2202 26.3592 29.2526 28.9763 26.5884 30.7092C23.9241 32.4421 20.7341 33.1798 17.5795 32.7924C14.425 32.405 11.5082 30.9174 9.34244 28.5913C7.17667 26.2653 5.90072 23.2499 5.73915 20.0758C5.57758 16.9017 6.54074 13.7723 8.45912 11.2383C10.3775 8.70441 13.1282 6.92831 16.2271 6.22261C19.3259 5.51691 22.5744 5.92685 25.4008 7.38027" stroke="white" stroke-width="2.14176" stroke-miterlimit="10" stroke-linecap="round" shape-rendering="crispEdges"/>
</g>
<defs>
<filter id="filter0_d_1_12812" x="82.2715" y="8.43311" width="18.6833" height="16.1414" filterUnits="userSpaceOnUse" color-interpolation-filters="sRGB">
<feFlood flood-opacity="0" result="BackgroundImageFix"/>
<feColorMatrix in="SourceAlpha" type="matrix" values="0 0 0 0 0 0 0 0 0 0 0 0 0 0 0 0 0 0 127 0" result="hardAlpha"/>
<feOffset/>
<feGaussianBlur stdDeviation="2"/>
<feComposite in2="hardAlpha" operator="out"/>
<feColorMatrix type="matrix" values="0 0 0 0 1 0 0 0 0 1 0 0 0 0 1 0 0 0 0.7 0"/>
<feBlend mode="normal" in2="BackgroundImageFix" result="effect1_dropShadow_1_12812"/>
<feBlend mode="normal" in="SourceGraphic" in2="effect1_dropShadow_1_12812" result="shape"/>
</filter>
<filter id="filter1_d_1_12812" x="57.1003" y="8.45923" width="18.6323" height="16.0137" filterUnits="userSpaceOnUse" color-interpolation-filters="sRGB">
<feFlood flood-opacity="0" result="BackgroundImageFix"/>
<feColorMatrix in="SourceAlpha" type="matrix" values="0 0 0 0 0 0 0 0 0 0 0 0 0 0 0 0 0 0 127 0" result="hardAlpha"/>
<feOffset/>
<feGaussianBlur stdDeviation="2"/>
<feComposite in2="hardAlpha" operator="out"/>
<feColorMatrix type="matrix" values="0 0 0 0 1 0 0 0 0 1 0 0 0 0 1 0 0 0 0.7 0"/>
<feBlend mode="normal" in2="BackgroundImageFix" result="effect1_dropShadow_1_12812"/>
<feBlend mode="normal" in="SourceGraphic" in2="effect1_dropShadow_1_12812" result="shape"/>
</filter>
<filter id="filter2_d_1_12812" x="42.4282" y="8.41235" width="20.3164" height="16.0757" filterUnits="userSpaceOnUse" color-interpolation-filters="sRGB">
<feFlood flood-opacity="0" result="BackgroundImageFix"/>
<feColorMatrix in="SourceAlpha" type="matrix" values="0 0 0 0 0 0 0 0 0 0 0 0 0 0 0 0 0 0 127 0" result="hardAlpha"/>
<feOffset/>
<feGaussianBlur stdDeviation="2"/>
<feComposite in2="hardAlpha" operator="out"/>
<feColorMatrix type="matrix" values="0 0 0 0 1 0 0 0 0 1 0 0 0 0 1 0 0 0 0.7 0"/>
<feBlend mode="normal" in2="BackgroundImageFix" result="effect1_dropShadow_1_12812"/>
<feBlend mode="normal" in="SourceGraphic" in2="effect1_dropShadow_1_12812" result="shape"/>
</filter>
<filter id="filter3_d_1_12812" x="112.501" y="8.34521" width="20.1323" height="16.1416" filterUnits="userSpaceOnUse" color-interpolation-filters="sRGB">
<feFlood flood-opacity="0" result="BackgroundImageFix"/>
<feColorMatrix in="SourceAlpha" type="matrix" values="0 0 0 0 0 0 0 0 0 0 0 0 0 0 0 0 0 0 127 0" result="hardAlpha"/>
<feOffset/>
<feGaussianBlur stdDeviation="2"/>
<feComposite in2="hardAlpha" operator="out"/>
<feColorMatrix type="matrix" values="0 0 0 0 1 0 0 0 0 1 0 0 0 0 1 0 0 0 0.7 0"/>
<feBlend mode="normal" in2="BackgroundImageFix" result="effect1_dropShadow_1_12812"/>
<feBlend mode="normal" in="SourceGraphic" in2="effect1_dropShadow_1_12812" result="shape"/>
</filter>
<filter id="filter4_d_1_12812" x="99.4856" y="8.44043" width="18.6184" height="16.0581" filterUnits="userSpaceOnUse" color-interpolation-filters="sRGB">
<feFlood flood-opacity="0" result="BackgroundImageFix"/>
<feColorMatrix in="SourceAlpha" type="matrix" values="0 0 0 0 0 0 0 0 0 0 0 0 0 0 0 0 0 0 127 0" result="hardAlpha"/>
<feOffset/>
<feGaussianBlur stdDeviation="2"/>
<feComposite in2="hardAlpha" operator="out"/>
<feColorMatrix type="matrix" values="0 0 0 0 1 0 0 0 0 1 0 0 0 0 1 0 0 0 0.7 0"/>
<feBlend mode="normal" in2="BackgroundImageFix" result="effect1_dropShadow_1_12812"/>
<feBlend mode="normal" in="SourceGraphic" in2="effect1_dropShadow_1_12812" result="shape"/>
</filter>
<filter id="filter5_d_1_12812" x="69.8745" y="11.6306" width="18.0813" height="12.8462" filterUnits="userSpaceOnUse" color-interpolation-filters="sRGB">
<feFlood flood-opacity="0" result="BackgroundImageFix"/>
<feColorMatrix in="SourceAlpha" type="matrix" values="0 0 0 0 0 0 0 0 0 0 0 0 0 0 0 0 0 0 127 0" result="hardAlpha"/>
<feOffset/>
<feGaussianBlur stdDeviation="2"/>
<feComposite in2="hardAlpha" operator="out"/>
<feColorMatrix type="matrix" values="0 0 0 0 1 0 0 0 0 1 0 0 0 0 1 0 0 0 0.7 0"/>
<feBlend mode="normal" in2="BackgroundImageFix" result="effect1_dropShadow_1_12812"/>
<feBlend mode="normal" in="SourceGraphic" in2="effect1_dropShadow_1_12812" result="shape"/>
</filter>
<filter id="filter6_d_1_12812" x="69.9636" y="20.5361" width="13.9934" height="12.5679" filterUnits="userSpaceOnUse" color-interpolation-filters="sRGB">
<feFlood flood-opacity="0" result="BackgroundImageFix"/>
<feColorMatrix in="SourceAlpha" type="matrix" values="0 0 0 0 0 0 0 0 0 0 0 0 0 0 0 0 0 0 127 0" result="hardAlpha"/>
<feOffset/>
<feGaussianBlur stdDeviation="2"/>
<feComposite in2="hardAlpha" operator="out"/>
<feColorMatrix type="matrix" values="0 0 0 0 1 0 0 0 0 1 0 0 0 0 1 0 0 0 0.7 0"/>
<feBlend mode="normal" in2="BackgroundImageFix" result="effect1_dropShadow_1_12812"/>
<feBlend mode="normal" in="SourceGraphic" in2="effect1_dropShadow_1_12812" result="shape"/>
</filter>
<filter id="filter7_d_1_12812" x="103.788" y="20.5066" width="14.2832" height="12.5195" filterUnits="userSpaceOnUse" color-interpolation-filters="sRGB">
<feFlood flood-opacity="0" result="BackgroundImageFix"/>
<feColorMatrix in="SourceAlpha" type="matrix" values="0 0 0 0 0 0 0 0 0 0 0 0 0 0 0 0 0 0 127 0" result="hardAlpha"/>
<feOffset/>
<feGaussianBlur stdDeviation="2"/>
<feComposite in2="hardAlpha" operator="out"/>
<feColorMatrix type="matrix" values="0 0 0 0 1 0 0 0 0 1 0 0 0 0 1 0 0 0 0.7 0"/>
<feBlend mode="normal" in2="BackgroundImageFix" result="effect1_dropShadow_1_12812"/>
<feBlend mode="normal" in="SourceGraphic" in2="effect1_dropShadow_1_12812" result="shape"/>
</filter>
<filter id="filter8_d_1_12812" x="95.1855" y="8.46631" width="9.84912" height="15.9995" filterUnits="userSpaceOnUse" color-interpolation-filters="sRGB">
<feFlood flood-opacity="0" result="BackgroundImageFix"/>
<feColorMatrix in="SourceAlpha" type="matrix" values="0 0 0 0 0 0 0 0 0 0 0 0 0 0 0 0 0 0 127 0" result="hardAlpha"/>
<feOffset/>
<feGaussianBlur stdDeviation="2"/>
<feComposite in2="hardAlpha" operator="out"/>
<feColorMatrix type="matrix" values="0 0 0 0 1 0 0 0 0 1 0 0 0 0 1 0 0 0 0.7 0"/>
<feBlend mode="normal" in2="BackgroundImageFix" result="effect1_dropShadow_1_12812"/>
<feBlend mode="normal" in="SourceGraphic" in2="effect1_dropShadow_1_12812" result="shape"/>
</filter>
<filter id="filter9_d_1_12812" x="69.8855" y="8.48389" width="17.978" height="9.4248" filterUnits="userSpaceOnUse" color-interpolation-filters="sRGB">
<feFlood flood-opacity="0" result="BackgroundImageFix"/>
<feColorMatrix in="SourceAlpha" type="matrix" values="0 0 0 0 0 0 0 0 0 0 0 0 0 0 0 0 0 0 127 0" result="hardAlpha"/>
<feOffset/>
<feGaussianBlur stdDeviation="2"/>
<feComposite in2="hardAlpha" operator="out"/>
<feColorMatrix type="matrix" values="0 0 0 0 1 0 0 0 0 1 0 0 0 0 1 0 0 0 0.7 0"/>
<feBlend mode="normal" in2="BackgroundImageFix" result="effect1_dropShadow_1_12812"/>
<feBlend mode="normal" in="SourceGraphic" in2="effect1_dropShadow_1_12812" result="shape"/>
</filter>
<filter id="filter10_d_1_12812" x="38.177" y="8.47388" width="9.69116" height="16.0002" filterUnits="userSpaceOnUse" color-interpolation-filters="sRGB">
<feFlood flood-opacity="0" result="BackgroundImageFix"/>
<feColorMatrix in="SourceAlpha" type="matrix" values="0 0 0 0 0 0 0 0 0 0 0 0 0 0 0 0 0 0 127 0" result="hardAlpha"/>
<feOffset/>
<feGaussianBlur stdDeviation="2"/>
<feComposite in2="hardAlpha" operator="out"/>
<feColorMatrix type="matrix" values="0 0 0 0 1 0 0 0 0 1 0 0 0 0 1 0 0 0 0.7 0"/>
<feBlend mode="normal" in2="BackgroundImageFix" result="effect1_dropShadow_1_12812"/>
<feBlend mode="normal" in="SourceGraphic" in2="effect1_dropShadow_1_12812" result="shape"/>
</filter>
<filter id="filter11_d_1_12812" x="86.3955" y="20.5159" width="14.8804" height="12.4919" filterUnits="userSpaceOnUse" color-interpolation-filters="sRGB">
<feFlood flood-opacity="0" result="BackgroundImageFix"/>
<feColorMatrix in="SourceAlpha" type="matrix" values="0 0 0 0 0 0 0 0 0 0 0 0 0 0 0 0 0 0 127 0" result="hardAlpha"/>
<feOffset/>
<feGaussianBlur stdDeviation="2"/>
<feComposite in2="hardAlpha" operator="out"/>
<feColorMatrix type="matrix" values="0 0 0 0 1 0 0 0 0 1 0 0 0 0 1 0 0 0 0.7 0"/>
<feBlend mode="normal" in2="BackgroundImageFix" result="effect1_dropShadow_1_12812"/>
<feBlend mode="normal" in="SourceGraphic" in2="effect1_dropShadow_1_12812" result="shape"/>
</filter>
<filter id="filter12_d_1_12812" x="52.7195" y="20.531" width="13.9653" height="12.4734" filterUnits="userSpaceOnUse" color-interpolation-filters="sRGB">
<feFlood flood-opacity="0" result="BackgroundImageFix"/>
<feColorMatrix in="SourceAlpha" type="matrix" values="0 0 0 0 0 0 0 0 0 0 0 0 0 0 0 0 0 0 127 0" result="hardAlpha"/>
<feOffset/>
<feGaussianBlur stdDeviation="2"/>
<feComposite in2="hardAlpha" operator="out"/>
<feColorMatrix type="matrix" values="0 0 0 0 1 0 0 0 0 1 0 0 0 0 1 0 0 0 0.7 0"/>
<feBlend mode="normal" in2="BackgroundImageFix" result="effect1_dropShadow_1_12812"/>
<feBlend mode="normal" in="SourceGraphic" in2="effect1_dropShadow_1_12812" result="shape"/>
</filter>
<filter id="filter13_d_1_12812" x="42.406" y="11.5984" width="9.8728" height="12.8879" filterUnits="userSpaceOnUse" color-interpolation-filters="sRGB">
<feFlood flood-opacity="0" result="BackgroundImageFix"/>
<feColorMatrix in="SourceAlpha" type="matrix" values="0 0 0 0 0 0 0 0 0 0 0 0 0 0 0 0 0 0 127 0" result="hardAlpha"/>
<feOffset/>
<feGaussianBlur stdDeviation="2"/>
<feComposite in2="hardAlpha" operator="out"/>
<feColorMatrix type="matrix" values="0 0 0 0 1 0 0 0 0 1 0 0 0 0 1 0 0 0 0.7 0"/>
<feBlend mode="normal" in2="BackgroundImageFix" result="effect1_dropShadow_1_12812"/>
<feBlend mode="normal" in="SourceGraphic" in2="effect1_dropShadow_1_12812" result="shape"/>
</filter>
<filter id="filter14_d_1_12812" x="112.484" y="11.6108" width="9.85107" height="12.8574" filterUnits="userSpaceOnUse" color-interpolation-filters="sRGB">
<feFlood flood-opacity="0" result="BackgroundImageFix"/>
<feColorMatrix in="SourceAlpha" type="matrix" values="0 0 0 0 0 0 0 0 0 0 0 0 0 0 0 0 0 0 127 0" result="hardAlpha"/>
<feOffset/>
<feGaussianBlur stdDeviation="2"/>
<feComposite in2="hardAlpha" operator="out"/>
<feColorMatrix type="matrix" values="0 0 0 0 1 0 0 0 0 1 0 0 0 0 1 0 0 0 0.7 0"/>
<feBlend mode="normal" in2="BackgroundImageFix" result="effect1_dropShadow_1_12812"/>
<feBlend mode="normal" in="SourceGraphic" in2="effect1_dropShadow_1_12812" result="shape"/>
</filter>
<filter id="filter15_d_1_12812" x="1.47974" y="4.47192" width="33.2625" height="32.2468" filterUnits="userSpaceOnUse" color-interpolation-filters="sRGB">
<feFlood flood-opacity="0" result="BackgroundImageFix"/>
<feColorMatrix in="SourceAlpha" type="matrix" values="0 0 0 0 0 0 0 0 0 0 0 0 0 0 0 0 0 0 127 0" result="hardAlpha"/>
<feOffset/>
<feGaussianBlur stdDeviation="2"/>
<feComposite in2="hardAlpha" operator="out"/>
<feColorMatrix type="matrix" values="0 0 0 0 1 0 0 0 0 1 0 0 0 0 1 0 0 0 0.7 0"/>
<feBlend mode="normal" in2="BackgroundImageFix" result="effect1_dropShadow_1_12812"/>
<feBlend mode="normal" in="SourceGraphic" in2="effect1_dropShadow_1_12812" result="shape"/>
</filter>
<filter id="filter16_d_1_12812" x="0.650879" y="0.814697" width="37.1492" height="37.1492" filterUnits="userSpaceOnUse" color-interpolation-filters="sRGB">
<feFlood flood-opacity="0" result="BackgroundImageFix"/>
<feColorMatrix in="SourceAlpha" type="matrix" values="0 0 0 0 0 0 0 0 0 0 0 0 0 0 0 0 0 0 127 0" result="hardAlpha"/>
<feOffset/>
<feGaussianBlur stdDeviation="2"/>
<feComposite in2="hardAlpha" operator="out"/>
<feColorMatrix type="matrix" values="0 0 0 0 1 0 0 0 0 1 0 0 0 0 1 0 0 0 0.7 0"/>
<feBlend mode="normal" in2="BackgroundImageFix" result="effect1_dropShadow_1_12812"/>
<feBlend mode="normal" in="SourceGraphic" in2="effect1_dropShadow_1_12812" result="shape"/>
</filter>
</defs>
</svg>
