<svg width="133" height="38" viewBox="0 0 133 38" fill="none" xmlns="http://www.w3.org/2000/svg">
<g filter="url(#filter0_d_249_17726)">
<path d="M90.368 11.6827C91.6164 11.6827 92.8647 11.6583 94.1131 11.6827C95.3996 11.7149 95.981 12.2748 96.1921 13.5552C96.306 14.156 96.3471 14.7682 96.3145 15.3788C96.264 16.0458 96.0177 16.6394 95.4486 17.0035C94.9652 17.3094 94.9269 17.6154 95.2405 18.0514C95.3935 18.2748 95.4746 18.5547 95.6153 18.7918C95.9427 19.3487 95.7209 19.7832 95.0615 19.7587C94.4496 19.7357 93.9524 19.5063 93.6725 18.876C93.0605 17.4991 92.5496 17.2681 91.0305 17.4058C90.2487 17.4777 89.4547 17.4303 88.6669 17.4379C87.5822 17.4502 87.5195 17.5144 87.4966 18.619C87.4782 19.5369 87.3313 19.6623 86.5068 19.6654C85.8642 19.6654 85.6133 19.3242 85.6623 18.7582C85.7268 17.7171 85.7355 16.6733 85.6883 15.6312C85.6883 15.3054 85.5919 14.7929 86.1212 14.8418C86.5924 14.8847 87.3788 14.3171 87.4751 15.3742C87.5134 15.8056 87.8163 15.8729 88.185 15.8714C89.8678 15.8637 91.5506 15.8714 93.2334 15.8637C94.0932 15.8637 94.4466 15.466 94.4573 14.5741C94.468 13.6822 94.0901 13.185 93.2334 13.1697C91.6806 13.1391 90.1248 13.1575 88.572 13.1575C87.8576 13.1575 87.1447 13.1575 86.4303 13.1575C85.8902 13.1575 85.6317 12.9188 85.6424 12.3712C85.6531 11.8235 85.9377 11.6139 86.4655 11.6185C87.7643 11.6307 89.0662 11.6185 90.3619 11.6185L90.368 11.6827Z" fill="white"/>
</g>
<g filter="url(#filter1_d_249_17726)">
<path d="M65.147 11.6705C66.3709 11.6705 67.5948 11.6537 68.8186 11.6705C70.223 11.6965 70.8273 12.1983 71.0246 13.5782C71.1146 14.259 71.1275 14.9477 71.0629 15.6313C70.9711 16.7021 70.35 17.262 69.1827 17.3492C67.3799 17.4808 65.5706 17.4977 63.7656 17.3997C62.528 17.334 62.3138 17.5221 62.3674 18.7292C62.3934 19.3166 62.2006 19.647 61.5596 19.6578C60.9614 19.6654 60.501 19.5935 60.527 18.8102C60.5637 17.7179 60.5346 16.6226 60.5377 15.5303C60.5377 15.1815 60.5775 14.695 61.0364 14.695C61.4954 14.695 62.1899 14.4089 62.3138 15.3069C62.3796 15.7659 62.6351 15.8883 63.0435 15.8867C64.7478 15.8867 66.455 15.902 68.1593 15.8745C68.99 15.8607 69.247 15.5089 69.247 14.565C69.247 13.5828 68.9609 13.1958 68.1333 13.1881C65.9181 13.1682 63.6968 13.1881 61.4892 13.1744C61.1098 13.1744 60.6998 13.1988 60.5438 12.7154C60.322 12.0362 60.6126 11.6445 61.3347 11.6445H65.1593L65.147 11.6705Z" fill="white"/>
</g>
<g filter="url(#filter2_d_249_17726)">
<path d="M56.0081 13.505C55.1101 15.2735 54.2427 16.9655 53.3921 18.6667C53.1045 19.2419 52.7802 19.6917 52.029 19.6718C51.2779 19.6519 50.8052 19.3322 50.487 18.656C49.7771 17.1659 49.0107 15.7019 48.2901 14.2195C47.9337 13.4852 47.464 13.0201 46.566 13.1746C46.0566 13.2633 45.8195 12.9757 45.8011 12.4739C45.7797 12.0012 45.9036 11.7396 46.4528 11.6647C48.2886 11.4168 49.0244 11.8176 49.7037 13.5219C50.3064 15.0318 51.1035 16.4423 51.9571 17.9767C52.3992 17.1644 52.8016 16.4469 53.181 15.7156C53.721 14.68 54.2626 13.6443 54.772 12.5917C55.1116 11.8941 55.5797 11.4949 56.3982 11.6738C56.4489 11.6808 56.5 11.6839 56.5512 11.683C58.0978 11.7672 58.0948 11.7672 58.0948 13.3781C58.0948 15.1603 58.081 16.9426 58.1147 18.7325C58.1284 19.4301 57.8638 19.6764 57.1723 19.6733C56.4579 19.6733 56.2422 19.3673 56.2544 18.6957C56.2865 17.2455 56.2712 15.7891 56.2544 14.3434C56.2559 14.0741 56.3691 13.7697 56.0081 13.505Z" fill="white"/>
</g>
<g filter="url(#filter3_d_249_17726)">
<path d="M126.06 13.5063C125.154 15.2886 124.271 16.9714 123.442 18.6787C123.116 19.3533 122.686 19.6884 121.912 19.6715C121.138 19.6547 120.788 19.2279 120.493 18.6129C119.745 17.0586 118.963 15.5196 118.21 13.9683C117.904 13.3442 117.433 13.0504 116.734 13.1667C116.255 13.2463 115.929 13.1132 115.882 12.5747C115.839 12.0943 115.914 11.7639 116.514 11.6568C118.167 11.3783 119.09 11.8388 119.697 13.3946C120.305 14.9505 121.157 16.3946 121.992 17.9841L123.638 14.9061C124.056 14.1228 124.472 13.338 124.892 12.5548C125.54 11.3493 126.696 11.4457 127.689 11.6659C127.995 11.7317 128.003 11.9627 128.004 12.1953C128.004 14.49 128.004 16.774 128.004 19.0642C128.004 19.7603 127.499 19.6057 127.086 19.6363C126.586 19.6715 126.321 19.5017 126.321 18.9586C126.332 17.4839 126.321 16.0091 126.321 14.5344C126.315 14.2223 126.375 13.8827 126.06 13.5063Z" fill="white"/>
</g>
<g filter="url(#filter4_d_249_17726)">
<path d="M107.982 19.6487C106.965 19.6487 105.946 19.6701 104.922 19.6487C103.463 19.6104 102.918 19.0551 102.894 17.5758C102.865 15.8715 102.865 14.1673 102.862 12.4631C102.862 12.0699 102.761 11.6079 103.425 11.6263C104.636 11.6584 104.649 11.6461 104.649 12.5197C104.649 13.8965 104.649 15.2657 104.658 16.638C104.673 17.9689 104.849 18.1372 106.158 18.1433C107.534 18.1494 108.911 18.1494 110.289 18.1433C111.328 18.1433 111.628 17.8374 111.626 16.7665C111.626 15.3422 111.658 13.9164 111.603 12.4937C111.571 11.6783 112.025 11.6767 112.613 11.6553C113.225 11.6324 113.488 11.8328 113.474 12.4799C113.439 14.0816 113.474 15.6925 113.447 17.2881C113.424 18.9159 112.743 19.5951 111.117 19.6578C110.583 19.6777 110.046 19.6793 109.515 19.6839C109.005 19.6839 108.496 19.6839 107.985 19.6839L107.982 19.6487Z" fill="white"/>
</g>
<g filter="url(#filter5_d_249_17726)">
<path d="M78.3033 19.6594C76.9265 19.6594 75.5496 19.6425 74.1728 19.6594C73.5348 19.6701 73.2304 19.4375 73.2457 18.7705C73.2702 17.7287 73.2686 16.6854 73.2457 15.6436C73.2319 15.0622 73.4629 14.8129 74.0534 14.8159C76.5491 14.8282 79.0447 14.8282 81.5404 14.8159C82.0437 14.8159 82.3053 15.0102 82.3053 15.5243C82.3053 16.0719 82.0453 16.2892 81.5052 16.2892C79.697 16.2723 77.8887 16.2983 76.0805 16.2647C75.3829 16.2509 75.0234 16.4605 75.0494 17.2101C75.0769 18.024 75.2421 18.2167 76.1202 18.2152C78.2084 18.2152 80.2951 18.1953 82.3833 18.1907C82.7367 18.1907 83.1085 18.1617 83.2584 18.616C83.4665 19.2494 83.1926 19.6502 82.4935 19.6563C81.1075 19.667 79.7061 19.6594 78.3033 19.6594Z" fill="white"/>
</g>
<g filter="url(#filter6_d_249_17726)">
<path d="M76.4038 23.7227C77.1932 23.7227 77.9826 23.7227 78.772 23.7227C79.055 23.7227 79.3059 23.7931 79.2844 24.1327C79.2646 24.4279 79.0703 24.5442 78.7612 24.5411C77.5649 24.5289 76.3671 24.5411 75.1707 24.5411C74.8143 24.5411 74.4058 24.4815 74.3844 25.0123C74.3645 25.6151 74.8296 25.5233 75.1983 25.5248C76.1636 25.5248 77.1289 25.5172 78.0958 25.5065C78.4017 25.5065 78.6832 25.5401 78.6893 25.9226C78.697 26.3417 78.4216 26.3815 78.0774 26.3815C77.0601 26.3586 76.0412 26.3815 75.0178 26.3525C74.6231 26.3448 74.3645 26.4335 74.3783 26.8833C74.3921 27.3101 74.6246 27.431 75.0285 27.4249C76.2523 27.405 77.4762 27.4126 78.7001 27.4157C78.9724 27.4157 79.312 27.353 79.3273 27.7721C79.3411 28.2311 78.9999 28.1745 78.6832 28.1852C77.3354 28.2341 75.9861 28.1301 74.6384 28.2739C73.7297 28.3718 73.3441 28.0077 73.335 27.1082C73.3273 26.1673 73.3824 25.2265 73.3946 24.2857C73.3946 23.8374 73.67 23.7288 74.0417 23.7273C74.825 23.7196 75.6144 23.7212 76.4038 23.7227Z" fill="white"/>
</g>
<g filter="url(#filter7_d_249_17726)">
<path d="M109.956 28.1835C109.293 28.1835 108.632 28.1835 107.967 28.1835C107.711 28.1835 107.398 28.237 107.375 27.8867C107.352 27.5134 107.667 27.4614 107.962 27.4599C109.159 27.4599 110.355 27.4599 111.55 27.4507C111.752 27.4642 111.955 27.4361 112.146 27.3681C112.422 27.2396 112.416 26.9565 112.361 26.7011C112.292 26.3798 112.029 26.363 111.764 26.3614C110.721 26.3614 109.677 26.3706 108.634 26.34C107.753 26.3155 107.294 25.9545 107.184 25.2799C107.046 24.4308 107.49 23.8005 108.352 23.7623C109.774 23.6995 111.199 23.7133 112.622 23.6919C112.891 23.6919 113.081 23.7898 113.081 24.0759C113.072 24.4277 112.836 24.5348 112.509 24.5348C111.285 24.5348 110.061 24.5455 108.837 24.5348C108.326 24.5272 108.126 24.7429 108.225 25.2278C108.308 25.647 108.657 25.5812 108.955 25.5828C109.973 25.5828 110.99 25.5629 112.006 25.595C113.021 25.6271 113.447 26.0402 113.442 26.8846C113.438 27.7291 113 28.1513 112.009 28.1972C111.323 28.2294 110.632 28.1972 109.95 28.1972L109.956 28.1835Z" fill="white"/>
</g>
<g filter="url(#filter8_d_249_17726)">
<path d="M98.5663 15.6835C98.5663 14.5882 98.5924 13.4928 98.5572 12.4005C98.5373 11.7657 98.8096 11.6249 99.3863 11.6555C99.9218 11.6846 100.414 11.6065 100.405 12.399C100.381 14.5601 100.381 16.7223 100.405 18.8855C100.405 19.5769 100.041 19.6596 99.4781 19.6504C98.9151 19.6412 98.5373 19.5984 98.5602 18.8855C98.6015 17.8146 98.5709 16.7437 98.5709 15.6728L98.5663 15.6835Z" fill="white"/>
</g>
<g filter="url(#filter9_d_249_17726)">
<path d="M78.2652 13.0843C76.8883 13.0843 75.5115 13.066 74.1346 13.0935C73.564 13.1057 73.2703 12.9145 73.2565 12.3286C73.2412 11.6968 73.6451 11.6677 74.1209 11.6692C76.8746 11.6784 79.6247 11.6784 82.3712 11.6692C82.8302 11.6692 83.2448 11.6692 83.234 12.324C83.2249 12.9176 82.9663 13.1088 82.385 13.0889C81.0158 13.0599 79.6405 13.0843 78.2652 13.0843Z" fill="white"/>
</g>
<g filter="url(#filter10_d_249_17726)">
<path d="M41.556 15.6024C41.556 14.5101 41.5697 13.4179 41.5483 12.3271C41.5391 11.8375 41.7166 11.6157 42.2168 11.6662C42.6651 11.7106 43.2418 11.5025 43.2388 12.3011C43.2265 14.5101 43.2265 16.7187 43.2388 18.9268C43.2388 19.6458 42.7966 19.6381 42.275 19.658C41.6814 19.681 41.5361 19.4102 41.5483 18.8763C41.5743 17.7855 41.556 16.6932 41.556 15.6024Z" fill="white"/>
</g>
<g filter="url(#filter11_d_249_17726)">
<path d="M93.3322 23.7241H96.1532C96.4301 23.7241 96.6596 23.7624 96.6458 24.1311C96.632 24.4997 96.4286 24.538 96.1394 24.5456C95.6575 24.5594 95.1772 24.5961 94.6953 24.6206C93.9961 24.6588 93.7177 25.0795 93.7131 25.7251C93.7131 26.3371 93.7009 26.949 93.7131 27.5609C93.7131 27.9036 93.6397 28.182 93.2343 28.1927C92.7922 28.205 92.6866 27.9158 92.6897 27.5395C92.6897 26.8037 92.6805 26.0663 92.7019 25.3304C92.7187 24.7522 92.4969 24.4906 91.8911 24.5349C91.3603 24.5747 90.8202 24.5456 90.2909 24.5349C90.0094 24.5349 89.7708 24.4431 89.7662 24.1188C89.7616 23.7945 90.0171 23.7027 90.2894 23.7012C91.3067 23.7012 92.3225 23.7012 93.3383 23.7012L93.3322 23.7241Z" fill="white"/>
</g>
<g filter="url(#filter12_d_249_17726)">
<path d="M59.0137 28.1836C58.4278 28.1836 57.8419 28.1683 57.2559 28.1836C56.5568 28.2066 56.2478 27.8088 56.1132 27.1953C56.0504 26.9139 56.1055 26.689 56.4038 26.5834C56.7021 26.4779 57.002 26.5467 57.0724 26.8771C57.1886 27.4202 57.5558 27.4508 57.9903 27.4447C58.7032 27.4355 59.4176 27.4263 60.132 27.4447C60.7439 27.4646 61.0208 27.2045 61.0055 26.5849C60.9872 25.8476 61.0055 25.1087 61.0055 24.3698C61.0055 23.9965 61.0774 23.7073 61.5379 23.7165C61.9984 23.7257 62.0611 24.0133 62.055 24.3881C62.0397 25.228 62.055 26.0709 62.0321 26.9093C61.9984 27.844 61.6205 28.1913 60.7011 28.1897C60.4212 28.1897 60.1397 28.1806 59.8597 28.179C59.5797 28.1775 59.2952 28.1836 59.0137 28.1836Z" fill="white"/>
</g>
<g filter="url(#filter13_d_249_17726)">
<path d="M45.7787 17.288C45.7787 16.7557 45.8001 16.2172 45.7787 15.6894C45.745 15.0101 46.1244 14.7807 46.7165 14.7837C47.3085 14.7868 47.6741 14.9902 47.6481 15.6863C47.6099 16.7266 47.6145 17.7699 47.6481 18.8102C47.668 19.5017 47.3345 19.6792 46.7103 19.6715C46.0862 19.6639 45.7297 19.5369 45.8077 18.8118C45.8378 18.3023 45.8409 17.7917 45.8169 17.2819L45.7787 17.288Z" fill="white"/>
</g>
<g filter="url(#filter14_d_249_17726)">
<path d="M117.701 17.3433V19.0124C117.701 19.7865 117.124 19.6166 116.668 19.6472C116.212 19.6778 115.867 19.6166 115.873 19.0215C115.887 17.8589 115.865 16.6947 115.854 15.5305C115.854 14.8925 116.275 14.7946 116.772 14.7962C117.27 14.7977 117.703 14.8879 117.706 15.5213C117.706 16.1332 117.706 16.736 117.706 17.3433H117.701Z" fill="white"/>
</g>
<g filter="url(#filter15_d_249_17726)">
<path d="M29.6335 7.77404C28.7462 8.53895 27.8865 9.32682 26.9533 10.1636C28.1083 10.4436 28.1037 10.439 27.5071 11.36C25.4112 14.5909 22.4586 16.7556 18.963 18.2518C15.5882 19.6975 12.0115 20.3523 8.40719 20.9275C7.02116 21.1493 6.58516 21.1462 6.43371 20.3569C5.90643 20.3783 5.37864 20.4058 4.85034 20.4395V21.2396C5.29858 23.2283 5.92122 25.1513 7.02269 26.8831C8.41788 29.0977 10.4419 30.8459 12.836 31.904C13.2414 31.4925 13.6239 31.0565 13.7432 30.518C13.7533 30.4752 13.7666 30.4333 13.783 30.3925L13.653 30.3221C13.8595 30.1462 14.0063 30.0162 14.1654 29.8877C17.9426 27.0391 21.0803 23.5863 23.7544 19.7036C25.5626 17.0501 27.1727 14.267 28.5718 11.3768C28.6988 11.1182 28.7432 10.413 29.3444 11.0417C29.5218 11.2269 29.6656 11.002 29.6962 10.8153C29.8492 9.88826 30.0022 8.95966 30.1078 8.02646C30.1506 7.67766 29.9104 7.53845 29.6335 7.77404Z" fill="white"/>
</g>
<g filter="url(#filter16_d_249_17726)">
<path d="M31.0147 13.2708C32.263 16.1936 32.4403 19.4631 31.5156 22.5038C30.5908 25.5445 28.6232 28.1616 25.959 29.8945C23.2947 31.6274 20.1047 32.3651 16.9501 31.9777C13.7956 31.5903 10.8788 30.1027 8.71305 27.7766C6.54727 25.4506 5.27133 22.4352 5.10976 19.2611C4.94818 16.087 5.91134 12.9576 7.82973 10.4237C9.74811 7.88971 12.4988 6.11361 15.5977 5.40791C18.6965 4.70222 21.945 5.11215 24.7714 6.56557" stroke="white" stroke-width="2.14176" stroke-miterlimit="10" stroke-linecap="round" shape-rendering="crispEdges"/>
</g>
<defs>
<filter id="filter0_d_249_17726" x="81.6421" y="7.61841" width="18.6833" height="16.1414" filterUnits="userSpaceOnUse" color-interpolation-filters="sRGB">
<feFlood flood-opacity="0" result="BackgroundImageFix"/>
<feColorMatrix in="SourceAlpha" type="matrix" values="0 0 0 0 0 0 0 0 0 0 0 0 0 0 0 0 0 0 127 0" result="hardAlpha"/>
<feOffset/>
<feGaussianBlur stdDeviation="2"/>
<feComposite in2="hardAlpha" operator="out"/>
<feColorMatrix type="matrix" values="0 0 0 0 1 0 0 0 0 1 0 0 0 0 1 0 0 0 0.7 0"/>
<feBlend mode="normal" in2="BackgroundImageFix" result="effect1_dropShadow_249_17726"/>
<feBlend mode="normal" in="SourceGraphic" in2="effect1_dropShadow_249_17726" result="shape"/>
</filter>
<filter id="filter1_d_249_17726" x="56.4709" y="7.64453" width="18.6323" height="16.0137" filterUnits="userSpaceOnUse" color-interpolation-filters="sRGB">
<feFlood flood-opacity="0" result="BackgroundImageFix"/>
<feColorMatrix in="SourceAlpha" type="matrix" values="0 0 0 0 0 0 0 0 0 0 0 0 0 0 0 0 0 0 127 0" result="hardAlpha"/>
<feOffset/>
<feGaussianBlur stdDeviation="2"/>
<feComposite in2="hardAlpha" operator="out"/>
<feColorMatrix type="matrix" values="0 0 0 0 1 0 0 0 0 1 0 0 0 0 1 0 0 0 0.7 0"/>
<feBlend mode="normal" in2="BackgroundImageFix" result="effect1_dropShadow_249_17726"/>
<feBlend mode="normal" in="SourceGraphic" in2="effect1_dropShadow_249_17726" result="shape"/>
</filter>
<filter id="filter2_d_249_17726" x="41.7988" y="7.59766" width="20.3164" height="16.0757" filterUnits="userSpaceOnUse" color-interpolation-filters="sRGB">
<feFlood flood-opacity="0" result="BackgroundImageFix"/>
<feColorMatrix in="SourceAlpha" type="matrix" values="0 0 0 0 0 0 0 0 0 0 0 0 0 0 0 0 0 0 127 0" result="hardAlpha"/>
<feOffset/>
<feGaussianBlur stdDeviation="2"/>
<feComposite in2="hardAlpha" operator="out"/>
<feColorMatrix type="matrix" values="0 0 0 0 1 0 0 0 0 1 0 0 0 0 1 0 0 0 0.7 0"/>
<feBlend mode="normal" in2="BackgroundImageFix" result="effect1_dropShadow_249_17726"/>
<feBlend mode="normal" in="SourceGraphic" in2="effect1_dropShadow_249_17726" result="shape"/>
</filter>
<filter id="filter3_d_249_17726" x="111.872" y="7.53052" width="20.1323" height="16.1416" filterUnits="userSpaceOnUse" color-interpolation-filters="sRGB">
<feFlood flood-opacity="0" result="BackgroundImageFix"/>
<feColorMatrix in="SourceAlpha" type="matrix" values="0 0 0 0 0 0 0 0 0 0 0 0 0 0 0 0 0 0 127 0" result="hardAlpha"/>
<feOffset/>
<feGaussianBlur stdDeviation="2"/>
<feComposite in2="hardAlpha" operator="out"/>
<feColorMatrix type="matrix" values="0 0 0 0 1 0 0 0 0 1 0 0 0 0 1 0 0 0 0.7 0"/>
<feBlend mode="normal" in2="BackgroundImageFix" result="effect1_dropShadow_249_17726"/>
<feBlend mode="normal" in="SourceGraphic" in2="effect1_dropShadow_249_17726" result="shape"/>
</filter>
<filter id="filter4_d_249_17726" x="98.8562" y="7.62573" width="18.6184" height="16.0581" filterUnits="userSpaceOnUse" color-interpolation-filters="sRGB">
<feFlood flood-opacity="0" result="BackgroundImageFix"/>
<feColorMatrix in="SourceAlpha" type="matrix" values="0 0 0 0 0 0 0 0 0 0 0 0 0 0 0 0 0 0 127 0" result="hardAlpha"/>
<feOffset/>
<feGaussianBlur stdDeviation="2"/>
<feComposite in2="hardAlpha" operator="out"/>
<feColorMatrix type="matrix" values="0 0 0 0 1 0 0 0 0 1 0 0 0 0 1 0 0 0 0.7 0"/>
<feBlend mode="normal" in2="BackgroundImageFix" result="effect1_dropShadow_249_17726"/>
<feBlend mode="normal" in="SourceGraphic" in2="effect1_dropShadow_249_17726" result="shape"/>
</filter>
<filter id="filter5_d_249_17726" x="69.2451" y="10.8159" width="18.0813" height="12.8462" filterUnits="userSpaceOnUse" color-interpolation-filters="sRGB">
<feFlood flood-opacity="0" result="BackgroundImageFix"/>
<feColorMatrix in="SourceAlpha" type="matrix" values="0 0 0 0 0 0 0 0 0 0 0 0 0 0 0 0 0 0 127 0" result="hardAlpha"/>
<feOffset/>
<feGaussianBlur stdDeviation="2"/>
<feComposite in2="hardAlpha" operator="out"/>
<feColorMatrix type="matrix" values="0 0 0 0 1 0 0 0 0 1 0 0 0 0 1 0 0 0 0.7 0"/>
<feBlend mode="normal" in2="BackgroundImageFix" result="effect1_dropShadow_249_17726"/>
<feBlend mode="normal" in="SourceGraphic" in2="effect1_dropShadow_249_17726" result="shape"/>
</filter>
<filter id="filter6_d_249_17726" x="69.3342" y="19.7214" width="13.9934" height="12.5679" filterUnits="userSpaceOnUse" color-interpolation-filters="sRGB">
<feFlood flood-opacity="0" result="BackgroundImageFix"/>
<feColorMatrix in="SourceAlpha" type="matrix" values="0 0 0 0 0 0 0 0 0 0 0 0 0 0 0 0 0 0 127 0" result="hardAlpha"/>
<feOffset/>
<feGaussianBlur stdDeviation="2"/>
<feComposite in2="hardAlpha" operator="out"/>
<feColorMatrix type="matrix" values="0 0 0 0 1 0 0 0 0 1 0 0 0 0 1 0 0 0 0.7 0"/>
<feBlend mode="normal" in2="BackgroundImageFix" result="effect1_dropShadow_249_17726"/>
<feBlend mode="normal" in="SourceGraphic" in2="effect1_dropShadow_249_17726" result="shape"/>
</filter>
<filter id="filter7_d_249_17726" x="103.159" y="19.6919" width="14.2832" height="12.5195" filterUnits="userSpaceOnUse" color-interpolation-filters="sRGB">
<feFlood flood-opacity="0" result="BackgroundImageFix"/>
<feColorMatrix in="SourceAlpha" type="matrix" values="0 0 0 0 0 0 0 0 0 0 0 0 0 0 0 0 0 0 127 0" result="hardAlpha"/>
<feOffset/>
<feGaussianBlur stdDeviation="2"/>
<feComposite in2="hardAlpha" operator="out"/>
<feColorMatrix type="matrix" values="0 0 0 0 1 0 0 0 0 1 0 0 0 0 1 0 0 0 0.7 0"/>
<feBlend mode="normal" in2="BackgroundImageFix" result="effect1_dropShadow_249_17726"/>
<feBlend mode="normal" in="SourceGraphic" in2="effect1_dropShadow_249_17726" result="shape"/>
</filter>
<filter id="filter8_d_249_17726" x="94.5562" y="7.65161" width="9.84912" height="15.9995" filterUnits="userSpaceOnUse" color-interpolation-filters="sRGB">
<feFlood flood-opacity="0" result="BackgroundImageFix"/>
<feColorMatrix in="SourceAlpha" type="matrix" values="0 0 0 0 0 0 0 0 0 0 0 0 0 0 0 0 0 0 127 0" result="hardAlpha"/>
<feOffset/>
<feGaussianBlur stdDeviation="2"/>
<feComposite in2="hardAlpha" operator="out"/>
<feColorMatrix type="matrix" values="0 0 0 0 1 0 0 0 0 1 0 0 0 0 1 0 0 0 0.7 0"/>
<feBlend mode="normal" in2="BackgroundImageFix" result="effect1_dropShadow_249_17726"/>
<feBlend mode="normal" in="SourceGraphic" in2="effect1_dropShadow_249_17726" result="shape"/>
</filter>
<filter id="filter9_d_249_17726" x="69.2561" y="7.66919" width="17.978" height="9.4248" filterUnits="userSpaceOnUse" color-interpolation-filters="sRGB">
<feFlood flood-opacity="0" result="BackgroundImageFix"/>
<feColorMatrix in="SourceAlpha" type="matrix" values="0 0 0 0 0 0 0 0 0 0 0 0 0 0 0 0 0 0 127 0" result="hardAlpha"/>
<feOffset/>
<feGaussianBlur stdDeviation="2"/>
<feComposite in2="hardAlpha" operator="out"/>
<feColorMatrix type="matrix" values="0 0 0 0 1 0 0 0 0 1 0 0 0 0 1 0 0 0 0.7 0"/>
<feBlend mode="normal" in2="BackgroundImageFix" result="effect1_dropShadow_249_17726"/>
<feBlend mode="normal" in="SourceGraphic" in2="effect1_dropShadow_249_17726" result="shape"/>
</filter>
<filter id="filter10_d_249_17726" x="37.5476" y="7.65918" width="9.69116" height="16.0002" filterUnits="userSpaceOnUse" color-interpolation-filters="sRGB">
<feFlood flood-opacity="0" result="BackgroundImageFix"/>
<feColorMatrix in="SourceAlpha" type="matrix" values="0 0 0 0 0 0 0 0 0 0 0 0 0 0 0 0 0 0 127 0" result="hardAlpha"/>
<feOffset/>
<feGaussianBlur stdDeviation="2"/>
<feComposite in2="hardAlpha" operator="out"/>
<feColorMatrix type="matrix" values="0 0 0 0 1 0 0 0 0 1 0 0 0 0 1 0 0 0 0.7 0"/>
<feBlend mode="normal" in2="BackgroundImageFix" result="effect1_dropShadow_249_17726"/>
<feBlend mode="normal" in="SourceGraphic" in2="effect1_dropShadow_249_17726" result="shape"/>
</filter>
<filter id="filter11_d_249_17726" x="85.7661" y="19.7012" width="14.8804" height="12.4919" filterUnits="userSpaceOnUse" color-interpolation-filters="sRGB">
<feFlood flood-opacity="0" result="BackgroundImageFix"/>
<feColorMatrix in="SourceAlpha" type="matrix" values="0 0 0 0 0 0 0 0 0 0 0 0 0 0 0 0 0 0 127 0" result="hardAlpha"/>
<feOffset/>
<feGaussianBlur stdDeviation="2"/>
<feComposite in2="hardAlpha" operator="out"/>
<feColorMatrix type="matrix" values="0 0 0 0 1 0 0 0 0 1 0 0 0 0 1 0 0 0 0.7 0"/>
<feBlend mode="normal" in2="BackgroundImageFix" result="effect1_dropShadow_249_17726"/>
<feBlend mode="normal" in="SourceGraphic" in2="effect1_dropShadow_249_17726" result="shape"/>
</filter>
<filter id="filter12_d_249_17726" x="52.0901" y="19.7163" width="13.9653" height="12.4734" filterUnits="userSpaceOnUse" color-interpolation-filters="sRGB">
<feFlood flood-opacity="0" result="BackgroundImageFix"/>
<feColorMatrix in="SourceAlpha" type="matrix" values="0 0 0 0 0 0 0 0 0 0 0 0 0 0 0 0 0 0 127 0" result="hardAlpha"/>
<feOffset/>
<feGaussianBlur stdDeviation="2"/>
<feComposite in2="hardAlpha" operator="out"/>
<feColorMatrix type="matrix" values="0 0 0 0 1 0 0 0 0 1 0 0 0 0 1 0 0 0 0.7 0"/>
<feBlend mode="normal" in2="BackgroundImageFix" result="effect1_dropShadow_249_17726"/>
<feBlend mode="normal" in="SourceGraphic" in2="effect1_dropShadow_249_17726" result="shape"/>
</filter>
<filter id="filter13_d_249_17726" x="41.7766" y="10.7837" width="9.8728" height="12.8879" filterUnits="userSpaceOnUse" color-interpolation-filters="sRGB">
<feFlood flood-opacity="0" result="BackgroundImageFix"/>
<feColorMatrix in="SourceAlpha" type="matrix" values="0 0 0 0 0 0 0 0 0 0 0 0 0 0 0 0 0 0 127 0" result="hardAlpha"/>
<feOffset/>
<feGaussianBlur stdDeviation="2"/>
<feComposite in2="hardAlpha" operator="out"/>
<feColorMatrix type="matrix" values="0 0 0 0 1 0 0 0 0 1 0 0 0 0 1 0 0 0 0.7 0"/>
<feBlend mode="normal" in2="BackgroundImageFix" result="effect1_dropShadow_249_17726"/>
<feBlend mode="normal" in="SourceGraphic" in2="effect1_dropShadow_249_17726" result="shape"/>
</filter>
<filter id="filter14_d_249_17726" x="111.854" y="10.7961" width="9.85107" height="12.8574" filterUnits="userSpaceOnUse" color-interpolation-filters="sRGB">
<feFlood flood-opacity="0" result="BackgroundImageFix"/>
<feColorMatrix in="SourceAlpha" type="matrix" values="0 0 0 0 0 0 0 0 0 0 0 0 0 0 0 0 0 0 127 0" result="hardAlpha"/>
<feOffset/>
<feGaussianBlur stdDeviation="2"/>
<feComposite in2="hardAlpha" operator="out"/>
<feColorMatrix type="matrix" values="0 0 0 0 1 0 0 0 0 1 0 0 0 0 1 0 0 0 0.7 0"/>
<feBlend mode="normal" in2="BackgroundImageFix" result="effect1_dropShadow_249_17726"/>
<feBlend mode="normal" in="SourceGraphic" in2="effect1_dropShadow_249_17726" result="shape"/>
</filter>
<filter id="filter15_d_249_17726" x="0.850342" y="3.65723" width="33.2625" height="32.2468" filterUnits="userSpaceOnUse" color-interpolation-filters="sRGB">
<feFlood flood-opacity="0" result="BackgroundImageFix"/>
<feColorMatrix in="SourceAlpha" type="matrix" values="0 0 0 0 0 0 0 0 0 0 0 0 0 0 0 0 0 0 127 0" result="hardAlpha"/>
<feOffset/>
<feGaussianBlur stdDeviation="2"/>
<feComposite in2="hardAlpha" operator="out"/>
<feColorMatrix type="matrix" values="0 0 0 0 1 0 0 0 0 1 0 0 0 0 1 0 0 0 0.7 0"/>
<feBlend mode="normal" in2="BackgroundImageFix" result="effect1_dropShadow_249_17726"/>
<feBlend mode="normal" in="SourceGraphic" in2="effect1_dropShadow_249_17726" result="shape"/>
</filter>
<filter id="filter16_d_249_17726" x="0.0214844" y="0" width="37.1492" height="37.1492" filterUnits="userSpaceOnUse" color-interpolation-filters="sRGB">
<feFlood flood-opacity="0" result="BackgroundImageFix"/>
<feColorMatrix in="SourceAlpha" type="matrix" values="0 0 0 0 0 0 0 0 0 0 0 0 0 0 0 0 0 0 127 0" result="hardAlpha"/>
<feOffset/>
<feGaussianBlur stdDeviation="2"/>
<feComposite in2="hardAlpha" operator="out"/>
<feColorMatrix type="matrix" values="0 0 0 0 1 0 0 0 0 1 0 0 0 0 1 0 0 0 0.7 0"/>
<feBlend mode="normal" in2="BackgroundImageFix" result="effect1_dropShadow_249_17726"/>
<feBlend mode="normal" in="SourceGraphic" in2="effect1_dropShadow_249_17726" result="shape"/>
</filter>
</defs>
</svg>
