<svg
                    width="25"
                    height="25"
                    viewBox="0 0 25 25"
                    fill="none"
                    xmlns="http://www.w3.org/2000/svg"
                  >
                    <g clip-path="url(#clip0_1_12341)">
                      <path
                        d="M24.2691 7.22711C24.2557 6.22429 24.068 5.23143 23.7143 4.29296C23.4076 3.50136 22.9391 2.78245 22.3388 2.18216C21.7385 1.58187 21.0196 1.11339 20.228 0.80667C19.3016 0.458911 18.3229 0.270872 17.3336 0.250559C16.0598 0.193623 15.656 0.177734 12.4226 0.177734C9.18921 0.177734 8.77477 0.177734 7.51028 0.250559C6.52141 0.271021 5.54317 0.459058 4.61718 0.80667C3.82546 1.11318 3.10644 1.58158 2.50612 2.1819C1.9058 2.78222 1.4374 3.50124 1.13089 4.29296C0.782433 5.21866 0.594801 6.19712 0.576101 7.18606C0.519166 8.46115 0.501953 8.86499 0.501953 12.0984C0.501953 15.3318 0.501953 15.7449 0.576101 17.0107C0.595962 18.0011 0.782657 18.9783 1.13089 19.9065C1.43791 20.6979 1.90666 21.4167 2.50718 22.0167C3.1077 22.6168 3.82679 23.085 4.6185 23.3914C5.54196 23.7532 6.52037 23.9546 7.51161 23.9872C8.78669 24.0442 9.19053 24.0614 12.4239 24.0614C15.6573 24.0614 16.0718 24.0614 17.3362 23.9872C18.3255 23.9678 19.3043 23.7802 20.2307 23.4325C21.0221 23.1254 21.7408 22.6568 22.341 22.0565C22.9413 21.4563 23.4099 20.7376 23.717 19.9462C24.0652 19.0193 24.2519 18.0422 24.2717 17.0504C24.3287 15.7767 24.3459 15.3728 24.3459 12.1381C24.3432 8.90471 24.3432 8.49425 24.2691 7.22711ZM12.4147 18.213C9.03297 18.213 6.29346 15.4734 6.29346 12.0918C6.29346 8.71007 9.03297 5.97056 12.4147 5.97056C14.0381 5.97056 15.595 6.61547 16.743 7.76342C17.8909 8.91137 18.5359 10.4683 18.5359 12.0918C18.5359 13.7152 17.8909 15.2722 16.743 16.4201C15.595 17.568 14.0381 18.213 12.4147 18.213ZM18.7795 7.1715C18.592 7.17167 18.4063 7.13487 18.2331 7.0632C18.0598 6.99153 17.9024 6.8864 17.7698 6.75382C17.6372 6.62125 17.5321 6.46383 17.4604 6.29058C17.3888 6.11732 17.352 5.93164 17.3521 5.74414C17.3521 5.55679 17.389 5.37127 17.4607 5.19817C17.5324 5.02508 17.6375 4.8678 17.77 4.73532C17.9025 4.60284 18.0598 4.49775 18.2329 4.42605C18.4059 4.35436 18.5915 4.31745 18.7788 4.31745C18.9662 4.31745 19.1517 4.35436 19.3248 4.42605C19.4979 4.49775 19.6552 4.60284 19.7876 4.73532C19.9201 4.8678 20.0252 5.02508 20.0969 5.19817C20.1686 5.37127 20.2055 5.55679 20.2055 5.74414C20.2055 6.53329 19.5673 7.1715 18.7795 7.1715Z"
                        fill="#9CA3AF"
                      />
                      <path
                        d="M12.4147 16.0681C14.6107 16.0681 16.3909 14.2879 16.3909 12.0919C16.3909 9.89593 14.6107 8.11572 12.4147 8.11572C10.2187 8.11572 8.43848 9.89593 8.43848 12.0919C8.43848 14.2879 10.2187 16.0681 12.4147 16.0681Z"
                        fill="#9CA3AF"
                      />
                    </g>
                    <defs>
                      <clipPath id="clip0_1_12341">
                        <rect
                          width="24"
                          height="24"
                          fill="white"
                          transform="translate(0.501953 0.207275)"
                        />
                      </clipPath>
                    </defs>
                  </svg>