<svg width="19" height="19" viewBox="0 0 19 19" fill="none" xmlns="http://www.w3.org/2000/svg">
<path d="M18.1221 1.1125H14.4522V0.560078C14.4522 0.250822 14.2014 0 13.8921 0C13.5829 0 13.3321 0.250822 13.3321 0.560078V1.1125H10.06V0.560078C10.06 0.250822 9.80918 0 9.49993 0C9.19067 0 8.93985 0.250822 8.93985 0.560078V1.1125H5.80688V0.560078C5.80688 0.250822 5.55605 0 5.2468 0C4.93754 0 4.68672 0.250822 4.68672 0.560078V1.1125H0.877826C0.56857 1.1125 0.317749 1.36332 0.317749 1.67258V14.3277C0.317749 14.637 0.56857 14.8878 0.877826 14.8878H4.31539C4.86623 17.2414 6.98089 19 9.49993 19C12.019 19 14.1336 17.2414 14.6845 14.8878H18.122C18.4313 14.8878 18.6821 14.637 18.6821 14.3277V1.67258C18.6822 1.36332 18.4315 1.1125 18.1221 1.1125ZM4.68672 2.23266V2.73878C4.68672 3.04804 4.93754 3.29886 5.2468 3.29886C5.55605 3.29886 5.80688 3.04804 5.80688 2.73878V2.23266H8.93985V2.73878C8.93985 3.04804 9.19067 3.29886 9.49993 3.29886C9.80918 3.29886 10.06 3.04804 10.06 2.73878V2.23266H13.3321V2.73878C13.3321 3.04804 13.5829 3.29886 13.8921 3.29886C14.2014 3.29886 14.4522 3.04804 14.4522 2.73878V2.23266H17.562V4.52301H1.4379V2.23266H4.68672ZM9.49993 17.8798C7.18102 17.8798 5.2944 15.9932 5.2944 13.6743C5.2944 11.3554 7.18102 9.46878 9.49993 9.46878C11.8188 9.46878 13.7055 11.3553 13.7055 13.6743C13.7055 15.9933 11.8189 17.8798 9.49993 17.8798ZM14.8233 13.7677C14.8238 13.7365 14.8256 13.7056 14.8256 13.6743C14.8256 10.7377 12.4365 8.34862 9.49993 8.34862C6.56335 8.34862 4.17425 10.7377 4.17425 13.6743C4.17425 13.7056 4.17612 13.7365 4.17658 13.7677H1.43781V5.64326H17.562V13.7677H14.8233Z" fill="#636363"/>
<path d="M10.06 13.8156V11.1062C10.06 10.7969 9.80915 10.5461 9.4999 10.5461C9.19064 10.5461 8.93982 10.7969 8.93982 11.1062V14.0477C8.93982 14.1962 8.99881 14.3387 9.10383 14.4438L10.3911 15.7311C10.5005 15.8404 10.6438 15.8951 10.7871 15.8951C10.9304 15.8951 11.0738 15.8404 11.1832 15.7311C11.4019 15.5124 11.4019 15.1578 11.1832 14.9391L10.06 13.8156Z" fill="#636363"/>
</svg>
