<svg width="16" height="20" viewBox="0 0 16 20" fill="none" xmlns="http://www.w3.org/2000/svg">
<path d="M14.2934 11.0193L14.2893 11.0399C14.281 11.0729 14.2893 11.0894 14.2728 11.1388C14.2563 11.2212 14.2316 11.3077 14.1986 11.386C14.0668 11.7033 13.7907 11.9752 13.4529 12.103C13.2551 12.1771 13.0944 12.1977 12.7771 12.2224C12.5011 12.2513 12.258 12.2925 12.052 12.3419C11.6441 12.4408 11.4051 12.5809 11.4504 12.7704C11.4916 12.9394 11.7388 13.0877 12.1344 13.199C12.3321 13.2525 12.567 13.302 12.8348 13.3349C12.9007 13.3432 12.9708 13.3514 13.0408 13.3596C13.1191 13.3638 13.218 13.3679 13.3087 13.3679C13.4941 13.3596 13.6918 13.3308 13.8896 13.2649C14.5942 13.0424 15.204 12.4985 15.4924 11.7939C15.5254 11.7074 15.5625 11.6168 15.5872 11.5261L15.6243 11.3902C15.6366 11.3407 15.6449 11.2871 15.6531 11.2336C15.6613 11.1841 15.6696 11.1223 15.6737 11.0811L15.6819 10.9699L15.6861 10.9163L15.6902 10.8875V10.8298L15.6943 10.7185L15.7149 9.84092C15.7437 8.67076 15.7602 7.5006 15.7561 6.33456L15.7355 3.5204L15.7273 2.81583C15.7273 2.79111 15.7273 2.75403 15.7231 2.71283L15.7149 2.59746C15.7108 2.51917 15.6984 2.44501 15.6861 2.36672C15.6655 2.21427 15.6201 2.06182 15.5707 1.91761C15.3647 1.32841 14.9444 0.829854 14.4129 0.520832C14.1451 0.364261 13.8608 0.261254 13.5476 0.20357C13.4652 0.191209 13.3746 0.178849 13.2963 0.170608L13.1191 0.166488H13.045H12.9996H12.9131L12.7359 0.170608L11.335 0.19533L8.52088 0.240653C6.83981 0.121165 5.14637 0.0511196 3.44881 0.00991674L3.13155 0.00167616C3.08622 -0.00244413 3.00382 0.00167616 2.93377 0.00579645C2.85961 0.00991674 2.78544 0.00991674 2.7154 0.0222776C2.42286 0.0511196 2.13444 0.137646 1.86662 0.261254C1.32686 0.508472 0.877749 0.941102 0.589329 1.46438C0.519284 1.59623 0.45748 1.7322 0.408037 1.87641C0.379195 1.94645 0.362714 2.02062 0.342112 2.09066C0.321511 2.16071 0.305029 2.23487 0.292669 2.32552L0.276187 2.45325C0.272067 2.49445 0.263827 2.54389 0.263827 2.5645L0.255586 2.72519L0.247345 3.07953L0.243225 4.35682C0.247345 6.06262 0.251466 7.77254 0.255586 9.47834V10.7597V10.838L0.259706 10.9452C0.263827 11.0193 0.263827 11.0935 0.276187 11.1677C0.296789 11.316 0.321511 11.4643 0.362714 11.6085C0.445119 11.8969 0.568728 12.173 0.733539 12.4202C1.0714 12.9147 1.5576 13.3061 2.12208 13.508C2.19212 13.5368 2.26217 13.5574 2.33633 13.578C2.41462 13.5945 2.4723 13.6192 2.56295 13.6316C2.64947 13.6439 2.73188 13.6563 2.8184 13.6687L2.9791 13.6769L3.0203 13.681H3.1027H3.18099H3.34168L3.65894 13.6852C3.96384 13.6893 4.43768 13.5451 4.58601 13.4462C4.88267 13.2443 4.49536 13.0753 3.92264 12.9476C3.68367 12.8941 3.44057 12.8446 3.19335 12.7993C3.12743 12.7869 3.07386 12.7787 3.00794 12.7622C2.94613 12.7457 2.88021 12.7375 2.82665 12.7169C2.7154 12.6798 2.60415 12.6345 2.49702 12.5809C2.07263 12.3584 1.75125 11.9794 1.60292 11.5508C1.52875 11.3366 1.49991 11.1141 1.51639 10.8916C1.53288 10.6114 1.54936 10.3312 1.56996 10.0469C1.60292 9.4701 1.62352 8.88502 1.63588 8.29994C1.66884 6.88668 1.69769 5.47754 1.73065 4.06428L1.75537 3.00537L1.75949 2.87352V2.80759L1.76361 2.77463C1.76773 2.6881 1.77597 2.58098 1.78833 2.56037C1.79245 2.52329 1.80893 2.46973 1.82542 2.41204C1.8419 2.35848 1.86662 2.30492 1.88722 2.25135C2.08087 1.8352 2.50938 1.5509 2.94613 1.52206H3.02854H3.06974H3.13567L3.39937 1.52618L3.93088 1.53442L4.99392 1.54678C5.70261 1.5509 6.4113 1.55502 7.11999 1.55502C8.53736 1.55502 9.95474 1.54266 11.3762 1.50558L12.431 1.5303C12.7607 1.54266 13.2098 1.53442 13.321 1.57975C13.6506 1.65803 13.9432 1.88053 14.1039 2.17307C14.1863 2.31728 14.2357 2.47797 14.2522 2.64278L14.2563 2.76639V2.96828L14.2522 3.38443C14.244 4.50103 14.2398 5.61351 14.244 6.72599C14.2481 7.83846 14.2604 8.95094 14.281 10.0634L14.2975 10.8586L14.2934 10.9616V11.0193Z" fill="white"/>
<path d="M8.63627 19.8079L8.64451 19.8038L8.661 19.7955C8.7434 19.7461 8.82581 19.6925 8.90821 19.639C9.0689 19.5318 9.22548 19.4165 9.37381 19.297C9.67459 19.058 9.95477 18.7943 10.2308 18.5224C10.7788 17.9826 11.2939 17.4058 11.8707 16.899C11.9201 16.8537 11.8954 16.6765 11.8501 16.5817C11.7553 16.3922 11.574 16.3345 11.3886 16.3345C10.7871 16.3386 10.2844 16.5735 9.87648 16.9113C9.47681 17.241 9.07303 17.5706 8.67336 17.9043C8.71868 17.517 8.75988 17.1338 8.75164 16.7465C8.73516 15.8648 8.65276 14.9872 8.59919 14.1054C9.07302 12.5274 8.80109 10.9163 8.89997 9.32177C8.90409 9.25172 8.75988 9.14048 8.661 9.10339C8.4591 9.03335 8.29017 9.12399 8.16244 9.25996C7.73805 9.70495 7.55264 10.2447 7.5032 10.7968C7.38371 12.1194 7.20241 13.4462 7.33838 14.777C7.3219 14.9418 7.30542 15.1067 7.29306 15.2715C7.24362 16.0378 7.2189 16.8042 7.27658 17.5706C6.74918 16.9979 6.1847 16.4622 5.54606 16.0049C5.3112 15.8359 5.01042 15.803 4.75908 16.0832C4.53247 16.3386 4.49539 16.66 4.67668 16.8949C4.99806 17.3151 5.31532 17.7436 5.69439 18.1103C5.99929 18.4029 6.31655 18.6872 6.63381 18.9632L7.11589 19.3794L7.35487 19.5854L7.47435 19.6884L7.53616 19.742C7.53204 19.7379 7.63092 19.8367 7.71333 19.8738C7.86166 19.9727 8.04707 20.018 8.23249 19.9933C8.32313 19.981 8.4179 19.9521 8.5003 19.9027C8.52503 19.8903 8.55387 19.8697 8.57859 19.8491L8.59507 19.8367L8.59919 19.8326L8.60743 19.8285L8.61155 19.8244C8.59507 19.8491 8.6404 19.8038 8.63627 19.8079ZM8.47558 18.8314L8.46322 18.8232L8.45086 18.8108C8.45498 18.8149 8.4591 18.8149 8.46322 18.819L8.47558 18.8314C8.48382 18.8355 8.47558 18.8314 8.47558 18.8314Z" fill="white"/>
</svg>
