<svg width="35" height="38" viewBox="0 0 35 38" fill="none" xmlns="http://www.w3.org/2000/svg">
<path d="M32.9332 25.1304L31.1227 26.2149L26.2852 18.139C27.216 17.2954 27.8788 16.1935 28.1927 14.942C28.611 13.2739 28.3574 11.5472 27.4787 10.0801L22.2764 1.39533C21.7791 0.565032 20.6993 0.294196 19.8688 0.791551L11.8588 5.58952C11.3759 5.87891 11.084 6.36561 11.0207 6.88542C10.6469 6.78067 10.2518 6.80097 9.88733 6.94987L1.24452 10.4827C0.349033 10.8491 -0.0821596 11.8757 0.283924 12.7714L2.31947 17.7514C2.32062 17.7543 2.32175 17.7573 2.32302 17.7601L4.11425 22.1426C4.76131 23.7255 5.99094 24.9639 7.57679 25.6294C8.76645 26.1288 10.0458 26.2592 11.2791 26.0201L14.8408 34.7342L12.8872 35.5327C12.2431 35.7965 11.9354 36.5305 12.1984 37.1738C12.4615 37.8172 13.1962 38.1256 13.8395 37.8626L20.0766 35.3133C20.1097 35.2998 20.1419 35.285 20.1731 35.2691C20.7502 34.9751 21.0149 34.2825 20.7655 33.6722C20.5024 33.0288 19.7678 32.7204 19.1244 32.9834L17.1708 33.7819L13.6085 25.0665C14.656 24.3733 15.4784 23.3853 15.9777 22.1959C16.6433 20.6101 16.6536 18.8649 16.0066 17.282L14.266 13.0236L16.4576 16.6822C18.0564 19.3514 21.3001 20.4392 24.125 19.431L28.9635 27.5085L27.1529 28.593C26.5566 28.9502 26.3629 29.7231 26.72 30.3194C27.062 30.8906 27.7856 31.0924 28.3699 30.7947C28.3957 30.7815 28.4212 30.7674 28.4464 30.7523L34.2267 27.2899C34.823 26.9327 35.0168 26.1598 34.6596 25.5635C34.3025 24.9672 33.5298 24.7733 32.9332 25.1304ZM13.6766 18.2341C14.0692 19.1948 14.0622 20.2558 13.6568 21.2216C13.2514 22.1875 12.499 22.9361 11.5385 23.3284C10.5778 23.721 9.51688 23.714 8.551 23.3086C7.58514 22.9033 6.83698 22.1509 6.44427 21.1903L5.27079 18.3192C6.61937 18.0793 7.91186 17.5543 9.04488 16.7801C9.97964 16.1411 11.0677 15.7283 12.1911 15.5863L12.5744 15.5377L13.6766 18.2341ZM11.59 13.1296C10.1736 13.3523 8.80814 13.893 7.6245 14.7021C6.63804 15.3762 5.4886 15.796 4.29991 15.9161L4.28888 15.9172L2.90212 12.5244L10.1344 9.56825L11.59 13.1296ZM15.6895 10.5017L13.8061 7.35734L20.5087 3.34244L22.4857 6.64289C21.1191 7.07702 19.8511 7.81788 18.8033 8.7965C17.9302 9.61191 16.8572 10.2006 15.7003 10.499L15.6895 10.5017ZM21.0193 17.1641C20.0033 16.9094 19.15 16.2788 18.6167 15.3886L17.0232 12.7282C17.4631 12.5786 17.892 12.3981 18.3054 12.1874C19.1106 11.7771 19.8585 11.2549 20.5212 10.6361C21.3486 9.86316 22.3617 9.29074 23.4509 8.98057L23.8225 8.87478L25.3194 11.3736C25.8526 12.2639 26.006 13.3137 25.7512 14.3298C25.4964 15.3459 24.8657 16.1991 23.9755 16.7323C23.0851 17.2656 22.0354 17.419 21.0193 17.1641Z" fill="#9D9D9D"/>
</svg>
