<svg width="24" height="20" viewBox="0 0 24 20" fill="none" xmlns="http://www.w3.org/2000/svg">
<path d="M17.9432 0.00946045C15.8739 0.00946045 14.046 1.04831 12.9536 2.63124C12.9536 2.63124 12.5847 3.18319 11.9997 3.18319C11.4153 3.18319 11.0464 2.63124 11.0464 2.63124C9.95352 1.04831 8.12662 0.00946045 6.0568 0.00946045C2.7115 0.00946045 0 2.72096 0 6.06731C0 6.85746 0.155302 7.60931 0.43023 8.30135C2.12701 13.5701 9.71585 19.7644 11.9997 19.9905C14.2842 19.7644 21.8719 13.5701 23.5698 8.30135C23.8447 7.60984 24 6.85746 24 6.06731C24 2.72096 21.2885 0.00946045 17.9432 0.00946045Z" fill="#A9A9A9"/>
</svg>
