<svg width="15" height="15" viewBox="0 0 15 15" fill="none" xmlns="http://www.w3.org/2000/svg">
<path d="M3.80009 14.792L3.96209 14.612L4.10609 14.522L4.26809 14.612C4.50209 14.432 4.70009 14.234 4.86209 14.036C5.02409 13.838 5.33009 13.316 5.81609 12.506L6.93209 10.616C7.52609 9.608 10.6401 5.378 11.3421 4.586C12.9621 2.732 13.5021 2.174 13.7181 1.886C13.9161 1.634 14.0421 1.436 14.0421 1.292C14.0421 1.202 13.9881 1.058 13.8981 1.058C13.8081 1.058 13.6641 1.13 13.4841 1.256L13.6281 0.932L13.0161 1.292L13.0521 1.04C13.0161 1.148 12.7281 1.436 12.6561 1.436C12.6021 1.436 12.5841 1.382 12.5841 1.292V1.22L12.0801 1.472C12.0441 1.472 12.0081 1.454 12.0081 1.4C12.0081 1.346 12.0441 1.22 12.0801 1.04C11.8281 1.31 11.4681 1.616 11.0001 1.94C10.3701 2.372 7.92209 5.45 6.93209 7.052C6.26609 8.114 5.99609 8.744 5.88809 8.744C5.85209 8.744 5.83409 8.672 5.81609 8.528C5.49209 9.266 5.20409 9.878 4.91609 10.328C4.62809 10.778 4.35809 11.012 4.16009 11.012C3.92609 11.012 3.72809 10.562 3.51209 9.644C3.42209 9.248 3.22409 8.996 2.93609 8.852L2.88209 8.834C2.82809 8.834 2.75609 8.87 2.66609 8.924C2.57609 8.978 2.52209 9.032 2.48609 9.032H2.46809L2.14409 8.924L1.85609 9.356C1.82009 9.41 1.74809 9.428 1.69409 9.428C1.60409 9.428 1.53209 9.41 1.49609 9.356C1.42409 9.608 1.33409 9.734 1.26209 9.734C1.20809 9.734 1.10009 9.698 0.956086 9.608C1.08209 10.562 1.19009 11.192 1.29809 11.498C1.51409 12.092 2.00009 13.442 2.46809 14.342C2.52209 14.45 2.59409 14.576 2.64809 14.684C2.82809 14.576 2.88209 14.558 3.00809 14.558L3.15209 14.576C3.24209 14.612 3.29609 14.666 3.29609 14.756L3.71009 14.558C3.78209 14.558 3.80009 14.63 3.80009 14.792Z" fill="#0089BC"/>
</svg>
