<svg width="36" height="40" viewBox="0 0 36 40" fill="none" xmlns="http://www.w3.org/2000/svg">
<path d="M8.45651 0H7.45199C7.32381 0 7.20225 0.0269332 7.08449 0.0652034C6.49609 0.25603 6.06116 0.88421 6.06116 1.63775V2.32923V4.09916V5.02C6.06116 5.1911 6.08966 5.35277 6.13101 5.50755C6.30808 6.17243 6.82912 6.65775 7.45199 6.65775H8.45651C9.2248 6.65775 9.84734 5.92459 9.84734 5.02V4.09916V2.32923V1.63775C9.84734 0.733161 9.2248 0 8.45651 0Z" fill="black"/>
<path d="M28.2286 0H27.2241C26.4558 0 25.8333 0.733161 25.8333 1.63775V2.32923V4.09916V5.02C25.8333 5.92459 26.4558 6.65775 27.2241 6.65775H28.2286C28.9969 6.65775 29.6194 5.92459 29.6194 5.02V4.09916V2.32923V1.63775C29.6191 0.733161 28.9966 0 28.2286 0Z" fill="black"/>
<path d="M33.3596 4.09917H30.8724V5.02001C30.8724 6.61418 29.6862 7.91104 28.2283 7.91104H27.2238C25.7659 7.91104 24.5797 6.61418 24.5797 5.02001V4.09917H11.1007V5.02001C11.1007 6.61418 9.91444 7.91104 8.45657 7.91104H7.45204C5.99411 7.91104 4.80793 6.61418 4.80793 5.02001V4.09917H2.64076C1.26028 4.09917 0.140747 5.14878 0.140747 6.44282V37.6564C0.140747 38.9529 1.26021 40.0001 2.64076 40.0001H33.3593C34.741 40.0001 35.8592 38.9526 35.8592 37.6564V6.44314C35.8595 5.1491 34.7413 4.09917 33.3596 4.09917ZM32.5844 36.5597L3.3247 36.5485V11.3839H32.5844V36.5597Z" fill="black"/>
<path d="M21.1335 17.4482H28.8287C29.4966 17.4482 30.0369 16.7811 30.0369 15.9567C30.0369 15.1324 29.4964 14.4653 28.8287 14.4653H21.1335C20.4655 14.4653 19.9253 15.1324 19.9253 15.9567C19.9253 16.7808 20.4655 17.4482 21.1335 17.4482Z" fill="black"/>
<path d="M21.1335 22.8354H28.8287C29.4966 22.8354 30.0369 22.1684 30.0369 21.344C30.0369 20.5197 29.4964 19.8526 28.8287 19.8526H21.1335C20.4655 19.8526 19.9253 20.5197 19.9253 21.344C19.9253 22.1684 20.4655 22.8354 21.1335 22.8354Z" fill="black"/>
<path d="M21.1335 28.2226H28.8287C29.4966 28.2226 30.0369 27.5555 30.0369 26.7312C30.0369 25.9069 29.4964 25.2398 28.8287 25.2398H21.1335C20.4655 25.2398 19.9253 25.9069 19.9253 26.7312C19.9253 27.5555 20.4655 28.2226 21.1335 28.2226Z" fill="black"/>
<path d="M21.1335 33.6102H28.8287C29.4966 33.6102 30.0369 32.9431 30.0369 32.1188C30.0369 31.2944 29.4964 30.6274 28.8287 30.6274H21.1335C20.4655 30.6274 19.9253 31.2944 19.9253 32.1188C19.9253 32.9431 20.4655 33.6102 21.1335 33.6102Z" fill="black"/>
<path d="M7.50409 17.4482H15.1993C15.8672 17.4482 16.4074 16.7811 16.4074 15.9567C16.4074 15.1324 15.8669 14.4653 15.1993 14.4653H7.50409C6.83607 14.4653 6.2959 15.1324 6.2959 15.9567C6.29596 16.7808 6.83607 17.4482 7.50409 17.4482Z" fill="black"/>
<path d="M7.50409 22.8354H15.1993C15.8672 22.8354 16.4074 22.1684 16.4074 21.344C16.4074 20.5197 15.8669 19.8526 15.1993 19.8526H7.50409C6.83607 19.8526 6.2959 20.5197 6.2959 21.344C6.29596 22.1684 6.83607 22.8354 7.50409 22.8354Z" fill="black"/>
<path d="M7.50409 28.2226H15.1993C15.8672 28.2226 16.4074 27.5555 16.4074 26.7312C16.4074 25.9069 15.8669 25.2398 15.1993 25.2398H7.50409C6.83607 25.2398 6.2959 25.9069 6.2959 26.7312C6.2959 27.5555 6.83607 28.2226 7.50409 28.2226Z" fill="black"/>
<path d="M7.50409 33.6102H15.1993C15.8672 33.6102 16.4074 32.9431 16.4074 32.1188C16.4074 31.2944 15.8669 30.6274 15.1993 30.6274H7.50409C6.83607 30.6274 6.2959 31.2944 6.2959 32.1188C6.29596 32.9431 6.83607 33.6102 7.50409 33.6102Z" fill="black"/>
</svg>
