<svg width="20" height="22" viewBox="0 0 20 22" fill="none" xmlns="http://www.w3.org/2000/svg">
<path d="M5.32842 0.194031H4.80105C4.73375 0.194031 4.66994 0.208171 4.60811 0.228263C4.2992 0.328446 4.07086 0.658241 4.07086 1.05385V1.41688V2.34609V2.82953C4.07086 2.91936 4.08583 3.00423 4.10754 3.0855C4.2005 3.43456 4.47404 3.68935 4.80105 3.68935H5.32842C5.73177 3.68935 6.05861 3.30444 6.05861 2.82953V2.34609V1.41688V1.05385C6.05861 0.57894 5.73177 0.194031 5.32842 0.194031Z" fill="white"/>
<path d="M15.7088 0.194031H15.1814C14.7781 0.194031 14.4512 0.57894 14.4512 1.05385V1.41688V2.34609V2.82953C14.4512 3.30444 14.7781 3.68935 15.1814 3.68935H15.7088C16.1121 3.68935 16.439 3.30444 16.439 2.82953V2.34609V1.41688V1.05385C16.4388 0.57894 16.112 0.194031 15.7088 0.194031Z" fill="white"/>
<path d="M18.4025 2.34609H17.0968V2.82953C17.0968 3.66648 16.474 4.34733 15.7086 4.34733H15.1812C14.4159 4.34733 13.7931 3.66648 13.7931 2.82953V2.34609H6.71661V2.82953C6.71661 3.66648 6.09383 4.34733 5.32845 4.34733H4.80108C4.03566 4.34733 3.41292 3.66648 3.41292 2.82953V2.34609H2.27515C1.5504 2.34609 0.962646 2.89714 0.962646 3.57651V19.9637C0.962646 20.6443 1.55037 21.1941 2.27515 21.1941H18.4024C19.1278 21.1941 19.7148 20.6442 19.7148 19.9637V3.57668C19.715 2.89731 19.1279 2.34609 18.4025 2.34609ZM17.9956 19.3879L2.63422 19.382V6.17055H17.9956V19.3879Z" fill="white"/>
<path d="M11.9839 9.35431H16.0238C16.3745 9.35431 16.6581 9.00412 16.6581 8.57132C16.6581 8.13852 16.3744 7.78832 16.0238 7.78832H11.9839C11.6332 7.78832 11.3495 8.13852 11.3495 8.57132C11.3495 9.00395 11.6331 9.35431 11.9839 9.35431Z" fill="white"/>
<path d="M11.9839 12.1826H16.0238C16.3745 12.1826 16.6581 11.8324 16.6581 11.3996C16.6581 10.9668 16.3744 10.6167 16.0238 10.6167H11.9839C11.6332 10.6167 11.3495 10.9668 11.3495 11.3996C11.3495 11.8324 11.6331 12.1826 11.9839 12.1826Z" fill="white"/>
<path d="M11.9839 15.0109H16.0238C16.3745 15.0109 16.6581 14.6607 16.6581 14.2279C16.6581 13.7952 16.3744 13.4449 16.0238 13.4449H11.9839C11.6332 13.4449 11.3495 13.7952 11.3495 14.2279C11.3495 14.6607 11.6331 15.0109 11.9839 15.0109Z" fill="white"/>
<path d="M11.9839 17.8394H16.0238C16.3745 17.8394 16.6581 17.4892 16.6581 17.0564C16.6581 16.6236 16.3744 16.2734 16.0238 16.2734H11.9839C11.6332 16.2734 11.3495 16.6236 11.3495 17.0564C11.3495 17.4892 11.6331 17.8394 11.9839 17.8394Z" fill="white"/>
<path d="M4.82839 9.35431H8.86836C9.21904 9.35431 9.50263 9.00412 9.50263 8.57132C9.50263 8.13852 9.21887 7.78832 8.86836 7.78832H4.82839C4.47768 7.78832 4.19409 8.13852 4.19409 8.57132C4.19413 9.00395 4.47768 9.35431 4.82839 9.35431Z" fill="white"/>
<path d="M4.82839 12.1826H8.86836C9.21904 12.1826 9.50263 11.8324 9.50263 11.3996C9.50263 10.9668 9.21887 10.6167 8.86836 10.6167H4.82839C4.47768 10.6167 4.19409 10.9668 4.19409 11.3996C4.19413 11.8324 4.47768 12.1826 4.82839 12.1826Z" fill="white"/>
<path d="M4.82839 15.0109H8.86836C9.21904 15.0109 9.50263 14.6607 9.50263 14.2279C9.50263 13.7952 9.21887 13.4449 8.86836 13.4449H4.82839C4.47768 13.4449 4.19409 13.7952 4.19409 14.2279C4.19409 14.6607 4.47768 15.0109 4.82839 15.0109Z" fill="white"/>
<path d="M4.82839 17.8394H8.86836C9.21904 17.8394 9.50263 17.4892 9.50263 17.0564C9.50263 16.6236 9.21887 16.2734 8.86836 16.2734H4.82839C4.47768 16.2734 4.19409 16.6236 4.19409 17.0564C4.19413 17.4892 4.47768 17.8394 4.82839 17.8394Z" fill="white"/>
</svg>
