<svg width="151" height="151" viewBox="0 0 151 151" fill="none" xmlns="http://www.w3.org/2000/svg">
<rect x="0.5" y="0.5" width="150" height="150" rx="7.5" fill="#0089BC" fill-opacity="0.25" stroke="#0089BC"/>
<path d="M59.0755 65.674V54.698H60.3635V65.604L59.0755 65.674ZM57.8015 55.762L57.9555 54.698H59.9155V55.762H57.8015ZM67.281 54.698C68.1863 54.698 68.8676 54.922 69.325 55.37C69.7916 55.8087 70.025 56.462 70.025 57.33V63H68.737V57.372C68.737 56.8307 68.6063 56.4293 68.345 56.168C68.093 55.8973 67.7103 55.762 67.197 55.762H64.705C64.649 55.846 64.5883 56.0047 64.523 56.238C64.4576 56.4713 64.425 56.8353 64.425 57.33V63H63.137V57.652C63.137 57.2413 63.179 56.8727 63.263 56.546C63.347 56.21 63.4683 55.9533 63.627 55.776L63.347 55.72V54.698H67.281ZM62.409 55.762L62.549 54.698H65.629V55.762H62.409ZM72.8265 54.698H77.8805L77.7405 55.51L75.2345 63H73.9045L76.3545 55.762H71.5385V52.514L72.8265 52.36V54.698ZM80.183 63V54.698H81.471V63H80.183ZM78.909 55.762L79.063 54.698H81.023V55.762H78.909ZM87.6139 63.042C86.7366 63.042 85.9899 62.8553 85.3739 62.482C84.7672 62.1087 84.3006 61.5627 83.9739 60.844C83.6472 60.116 83.4839 59.2247 83.4839 58.17V54.698H84.7719V58.17C84.7719 59.0193 84.8792 59.7333 85.0939 60.312C85.3179 60.8813 85.6399 61.3107 86.0599 61.6C86.4799 61.88 86.9932 62.02 87.5999 62.02H87.7399C88.3652 62.02 88.8926 61.88 89.3219 61.6C89.7512 61.3107 90.0732 60.8813 90.2879 60.312C90.5119 59.7427 90.6239 59.0333 90.6239 58.184V54.698H91.8979V58.17C91.8979 59.2247 91.7346 60.116 91.4079 60.844C91.0906 61.5627 90.6239 62.1087 90.0079 62.482C89.3919 62.8553 88.6452 63.042 87.7679 63.042H87.6139ZM84.4359 59.78L84.3379 58.884C84.9632 58.912 85.4766 58.828 85.8779 58.632C86.2792 58.4267 86.5732 58.114 86.7599 57.694C86.9559 57.274 87.0539 56.7653 87.0539 56.168V54.698H88.3419V56.084C88.3419 56.672 88.2626 57.1993 88.1039 57.666C87.9452 58.1233 87.7026 58.5153 87.3759 58.842C87.0586 59.1593 86.6526 59.3973 86.1579 59.556C85.6726 59.7147 85.0986 59.7893 84.4359 59.78ZM74.9971 77.094C75.9064 77.094 76.7351 77.2333 77.4831 77.512C78.2457 77.7907 78.8544 78.2087 79.3091 78.766C79.7784 79.3233 80.0131 80.0273 80.0131 80.878C80.0131 81.5087 79.8884 82.066 79.6391 82.55C79.3897 83.0193 79.0524 83.43 78.6271 83.782C78.2164 84.134 77.7397 84.442 77.1971 84.706C77.7544 84.9993 78.2824 85.344 78.7811 85.74C79.2944 86.1213 79.7051 86.576 80.0131 87.104C80.3357 87.6173 80.4971 88.226 80.4971 88.93C80.4971 89.7953 80.2624 90.5507 79.7931 91.196C79.3384 91.8413 78.6931 92.34 77.8571 92.692C77.0357 93.044 76.0824 93.22 74.9971 93.22C73.8237 93.22 72.8264 93.0513 72.0051 92.714C71.1837 92.3767 70.5531 91.8927 70.1131 91.262C69.6877 90.6313 69.4751 89.8833 69.4751 89.018C69.4751 88.2993 69.6071 87.676 69.8711 87.148C70.1497 86.62 70.5164 86.1653 70.9711 85.784C71.4257 85.388 71.9317 85.058 72.4891 84.794C72.0197 84.5007 71.5944 84.1707 71.2131 83.804C70.8317 83.4227 70.5237 82.9973 70.2891 82.528C70.0691 82.044 69.9591 81.4867 69.9591 80.856C69.9591 80.02 70.1937 79.3233 70.6631 78.766C71.1324 78.2087 71.7484 77.7907 72.5111 77.512C73.2884 77.2333 74.1171 77.094 74.9971 77.094ZM72.5551 88.82C72.5551 89.392 72.7531 89.8613 73.1491 90.228C73.5597 90.5947 74.1611 90.778 74.9531 90.778C75.5104 90.778 75.9651 90.6973 76.3171 90.536C76.6837 90.3747 76.9551 90.1473 77.1311 89.854C77.3217 89.5607 77.4171 89.2233 77.4171 88.842C77.4171 88.446 77.2997 88.1013 77.0651 87.808C76.8304 87.5 76.5371 87.2287 76.1851 86.994C75.8477 86.7447 75.4957 86.5173 75.1291 86.312L74.8431 86.158C74.3884 86.3633 73.9851 86.598 73.6331 86.862C73.2957 87.126 73.0317 87.4193 72.8411 87.742C72.6504 88.05 72.5551 88.4093 72.5551 88.82ZM74.9751 79.514C74.4324 79.514 73.9777 79.6533 73.6111 79.932C73.2591 80.2107 73.0831 80.6067 73.0831 81.12C73.0831 81.472 73.1711 81.7873 73.3471 82.066C73.5231 82.33 73.7577 82.5647 74.0511 82.77C74.3444 82.9607 74.6597 83.144 74.9971 83.32C75.3344 83.1587 75.6424 82.9827 75.9211 82.792C76.2144 82.6013 76.4491 82.374 76.6251 82.11C76.8011 81.8313 76.8891 81.5013 76.8891 81.12C76.8891 80.6067 76.7057 80.2107 76.3391 79.932C75.9871 79.6533 75.5324 79.514 74.9751 79.514Z" fill="#143964"/>
</svg>
