<svg width="43" height="32" viewBox="0 0 43 32" fill="none" xmlns="http://www.w3.org/2000/svg">
<path d="M42.9997 27.9998C42.9997 30.2089 41.2088 31.9998 38.9997 31.9998L3.99969 31.9998C1.79056 31.9998 -0.000305176 30.2089 -0.000305176 27.9998C-0.000305176 25.7906 1.79056 23.9998 3.99969 23.9998L38.9997 23.9998C41.2088 23.9998 42.9997 25.7906 42.9997 27.9998Z" fill="#AAAAAA"/>
<path d="M39.9997 22.9998C39.9997 25.7612 37.7611 27.9998 34.9997 27.9998L7.99969 27.9998C5.23827 27.9998 2.99969 25.7612 2.99969 22.9998L2.99969 4.99976C2.99969 2.23833 5.23827 -0.000244141 7.99969 -0.000244141L34.9997 -0.000244141C37.7611 -0.000244141 39.9997 2.23833 39.9997 4.99976L39.9997 22.9998Z" fill="#B1B1B1" fill-opacity="0.25"/>
<line x1="39.9997" y1="24.4998" x2="2.99969" y2="24.4998" stroke="#696969"/>
</svg>
