<svg width="44" height="33" viewBox="0 0 44 33" fill="none" xmlns="http://www.w3.org/2000/svg">
<path d="M0.0731201 4.45349C0.0731201 2.24435 1.86398 0.453491 4.07312 0.453491L39.0731 0.453491C41.2823 0.453491 43.0731 2.24435 43.0731 4.45349C43.0731 6.66263 41.2823 8.45349 39.0731 8.45349H4.07312C1.86398 8.45349 0.0731201 6.66263 0.0731201 4.45349Z" fill="#0089BC"/>
<path d="M3.07312 9.45349C3.07312 6.69207 5.3117 4.45349 8.07312 4.45349H35.0731C37.8345 4.45349 40.0731 6.69207 40.0731 9.45349V27.4535C40.0731 30.2149 37.8345 32.4535 35.0731 32.4535H8.07312C5.3117 32.4535 3.07312 30.2149 3.07312 27.4535L3.07312 9.45349Z" fill="#0089BC" fill-opacity="0.25"/>
<line x1="3.07312" y1="7.95349" x2="40.0731" y2="7.95349" stroke="#143964"/>
</svg>
