<svg width="33" height="44" viewBox="0 0 33 44" fill="none" xmlns="http://www.w3.org/2000/svg">
<path d="M4.49976 43.4998C2.29062 43.4998 0.499756 41.7089 0.499756 39.4998L0.499756 4.49976C0.499756 2.29062 2.29062 0.499756 4.49976 0.499756C6.70889 0.499756 8.49976 2.29062 8.49976 4.49976L8.49976 39.4998C8.49976 41.7089 6.70889 43.4998 4.49976 43.4998Z" fill="#AAAAAA"/>
<path d="M9.49976 40.4998C6.73833 40.4998 4.49976 38.2612 4.49976 35.4998L4.49976 8.49976C4.49976 5.73833 6.73833 3.49976 9.49976 3.49976H27.4998C30.2612 3.49976 32.4998 5.73833 32.4998 8.49976V35.4998C32.4998 38.2612 30.2612 40.4998 27.4998 40.4998H9.49976Z" fill="#B1B1B1" fill-opacity="0.25"/>
<line x1="7.99976" y1="40.4998" x2="7.99976" y2="3.49976" stroke="#696969"/>
</svg>
