<svg width="33" height="44" viewBox="0 0 33 44" fill="none" xmlns="http://www.w3.org/2000/svg">
<path d="M28.4997 0.499756C30.7088 0.499756 32.4997 2.29062 32.4997 4.49976L32.4997 39.4998C32.4997 41.7089 30.7088 43.4998 28.4997 43.4998C26.2906 43.4998 24.4997 41.7089 24.4997 39.4998L24.4997 4.49976C24.4997 2.29062 26.2906 0.499756 28.4997 0.499756Z" fill="#AAAAAA"/>
<path d="M23.4997 3.49976C26.2611 3.49976 28.4997 5.73833 28.4997 8.49976L28.4997 35.4998C28.4997 38.2612 26.2611 40.4998 23.4997 40.4998L5.49969 40.4998C2.73827 40.4998 0.499695 38.2612 0.499695 35.4998L0.499695 8.49975C0.499695 5.73833 2.73827 3.49976 5.49969 3.49976L23.4997 3.49976Z" fill="#B1B1B1" fill-opacity="0.25"/>
<line x1="24.9997" y1="3.49976" x2="24.9997" y2="40.4998" stroke="#696969"/>
</svg>
