<svg width="44" height="33" viewBox="0 0 44 33" fill="none" xmlns="http://www.w3.org/2000/svg">
<path d="M43.0731 28.4535C43.0731 30.6626 41.2823 32.4535 39.0731 32.4535L4.07312 32.4535C1.86398 32.4535 0.0731201 30.6626 0.0731201 28.4535V28.4535C0.0731201 26.2444 1.86398 24.4535 4.07312 24.4535L39.0731 24.4535C41.2823 24.4535 43.0731 26.2444 43.0731 28.4535V28.4535Z" fill="#0089BC"/>
<path d="M40.0731 23.4535C40.0731 26.2149 37.8345 28.4535 35.0731 28.4535L8.07312 28.4535C5.3117 28.4535 3.07312 26.2149 3.07312 23.4535L3.07312 5.45349C3.07312 2.69207 5.3117 0.453491 8.07312 0.453491L35.0731 0.453491C37.8345 0.453491 40.0731 2.69207 40.0731 5.45349L40.0731 23.4535Z" fill="#0089BC" fill-opacity="0.25"/>
<line x1="40.0731" y1="24.9535" x2="3.07312" y2="24.9535" stroke="#143964"/>
</svg>
