<svg width="18" height="18" viewBox="0 0 18 18" fill="none" xmlns="http://www.w3.org/2000/svg">
<path d="M5.33333 15.4167C4.60399 15.4167 3.90451 15.1269 3.38879 14.6112C2.87306 14.0955 2.58333 13.396 2.58333 12.6667V5.33333C2.58333 4.60399 2.87306 3.90451 3.38879 3.38879C3.90451 2.87306 4.60399 2.58333 5.33333 2.58333C5.57645 2.58333 5.80961 2.48676 5.98151 2.31485C6.15342 2.14294 6.25 1.90978 6.25 1.66667C6.25 1.42355 6.15342 1.19039 5.98151 1.01849C5.80961 0.846577 5.57645 0.75 5.33333 0.75C4.11776 0.75 2.95197 1.23289 2.09243 2.09243C1.23289 2.95197 0.75 4.11776 0.75 5.33333V12.6667C0.75 13.8822 1.23289 15.048 2.09243 15.9076C2.95197 16.7671 4.11776 17.25 5.33333 17.25C5.57645 17.25 5.80961 17.1534 5.98151 16.9815C6.15342 16.8096 6.25 16.5764 6.25 16.3333C6.25 16.0902 6.15342 15.8571 5.98151 15.6852C5.80961 15.5132 5.57645 15.4167 5.33333 15.4167V15.4167ZM12.4008 12.4008C12.4868 12.3156 12.5549 12.2142 12.6015 12.1025C12.648 11.9908 12.672 11.871 12.672 11.75C12.672 11.629 12.648 11.5092 12.6015 11.3975C12.5549 11.2858 12.4868 11.1844 12.4008 11.0992L10.2925 9L12.4008 6.90083C12.5734 6.72822 12.6704 6.49411 12.6704 6.25C12.6704 6.00589 12.5734 5.77178 12.4008 5.59917C12.2282 5.42655 11.9941 5.32958 11.75 5.32958C11.5059 5.32958 11.2718 5.42655 11.0992 5.59917L9 7.7075L6.90083 5.59917C6.72822 5.42656 6.49411 5.32958 6.25 5.32958C6.00589 5.32958 5.77178 5.42655 5.59917 5.59917C5.42655 5.77178 5.32958 6.00589 5.32958 6.25C5.32958 6.49411 5.42656 6.72822 5.59917 6.90083L7.7075 9L5.59917 11.0992C5.51325 11.1844 5.44505 11.2858 5.39852 11.3975C5.35198 11.5092 5.32802 11.629 5.32802 11.75C5.32802 11.871 5.35198 11.9908 5.39852 12.1025C5.44505 12.2142 5.51325 12.3156 5.59917 12.4008C5.68438 12.4868 5.78577 12.5549 5.89747 12.6015C6.00918 12.648 6.12899 12.672 6.25 12.672C6.37101 12.672 6.49082 12.648 6.60253 12.6015C6.71423 12.5549 6.81562 12.4868 6.90083 12.4008L9 10.2925L11.0992 12.4008C11.1844 12.4868 11.2858 12.5549 11.3975 12.6015C11.5092 12.648 11.629 12.672 11.75 12.672C11.871 12.672 11.9908 12.648 12.1025 12.6015C12.2142 12.5549 12.3156 12.4868 12.4008 12.4008V12.4008ZM12.6667 0.75C12.4236 0.75 12.1904 0.846577 12.0185 1.01849C11.8466 1.19039 11.75 1.42355 11.75 1.66667C11.75 1.90978 11.8466 2.14294 12.0185 2.31485C12.1904 2.48676 12.4236 2.58333 12.6667 2.58333C13.396 2.58333 14.0955 2.87306 14.6112 3.38879C15.1269 3.90451 15.4167 4.60399 15.4167 5.33333V12.6667C15.4167 13.396 15.1269 14.0955 14.6112 14.6112C14.0955 15.1269 13.396 15.4167 12.6667 15.4167C12.4236 15.4167 12.1904 15.5132 12.0185 15.6852C11.8466 15.8571 11.75 16.0902 11.75 16.3333C11.75 16.5764 11.8466 16.8096 12.0185 16.9815C12.1904 17.1534 12.4236 17.25 12.6667 17.25C13.8822 17.25 15.048 16.7671 15.9076 15.9076C16.7671 15.048 17.25 13.8822 17.25 12.6667V5.33333C17.25 4.11776 16.7671 2.95197 15.9076 2.09243C15.048 1.23289 13.8822 0.75 12.6667 0.75V0.75Z" fill="#DF613F"/>
</svg>
