<svg width="24" height="20" viewBox="0 0 24 20" fill="none" xmlns="http://www.w3.org/2000/svg">
<path d="M17.9432 0.00949097C15.8739 0.00949097 14.046 1.04834 12.9536 2.63127C12.9536 2.63127 12.5847 3.18322 11.9997 3.18322C11.4153 3.18322 11.0464 2.63127 11.0464 2.63127C9.95352 1.04834 8.12662 0.00949097 6.0568 0.00949097C2.7115 0.00949097 0 2.72099 0 6.06734C0 6.85749 0.155302 7.60934 0.43023 8.30138C2.12701 13.5701 9.71585 19.7644 11.9997 19.9905C14.2842 19.7644 21.8719 13.5701 23.5698 8.30138C23.8447 7.60987 24 6.85749 24 6.06734C24 2.72099 21.2885 0.00949097 17.9432 0.00949097Z" fill="#FF0000"/>
</svg>
