<svg width="48" height="37" viewBox="0 0 48 37" fill="none" xmlns="http://www.w3.org/2000/svg">
<path d="M30.3297 28.0767H2.9011C2.17393 28.0767 1.58242 27.4852 1.58242 26.758V2.9011C1.58242 2.17393 2.17393 1.58242 2.9011 1.58242H38.2418C38.9689 1.58242 39.5604 2.17393 39.5604 2.9011V18.846C39.5604 19.2829 39.9146 19.6372 40.3517 19.6372C40.7887 19.6372 41.1429 19.2829 41.1429 18.846V2.9011C41.1429 1.30138 39.8414 0 38.2418 0H2.9011C1.30149 0 0 1.30138 0 2.9011V26.758C0 28.3578 1.30149 29.6591 2.9011 29.6591H30.3297C30.7667 29.6591 31.1209 29.3049 31.1209 28.8679C31.1209 28.431 30.7667 28.0767 30.3297 28.0767Z" fill="black"/>
<path d="M37.7326 3.38333C37.4162 3.08193 36.9154 3.09374 36.6139 3.41033L21.4541 19.3185C21.2178 19.5666 20.9042 19.7032 20.5714 19.7032C20.2385 19.7032 19.9249 19.5666 19.6886 19.3186L4.52882 3.41023C4.22721 3.09385 3.72664 3.08193 3.41016 3.38322C3.09378 3.68472 3.08175 4.18551 3.38315 4.50188L13.2024 14.806L3.38189 25.1586C3.08112 25.4756 3.09431 25.9763 3.41142 26.2771C3.56439 26.4223 3.76029 26.4943 3.95578 26.4943C4.16518 26.4943 4.37438 26.4116 4.52988 26.2477L14.2953 15.953L18.5428 20.4102C19.0808 20.9747 19.8013 21.2856 20.5713 21.2856C21.3413 21.2856 22.0617 20.9747 22.5997 20.4101L26.8471 15.953L32.7988 22.2272C32.9544 22.3912 33.1635 22.4738 33.3729 22.4738C33.5685 22.4738 33.7643 22.4018 33.9173 22.2566C34.2344 21.9558 34.2476 21.4551 33.9468 21.1381L27.9401 14.8058L37.7593 4.50178C38.061 4.18561 38.049 3.68472 37.7326 3.38333Z" fill="black"/>
<path d="M40.3516 21.2196C36.1342 21.2196 32.7032 24.6506 32.7032 28.868C32.7032 33.0853 36.1342 36.5163 40.3516 36.5163C44.569 36.5163 47.9999 33.0853 47.9999 28.868C47.9999 24.6506 44.569 21.2196 40.3516 21.2196ZM40.3516 34.9339C37.0068 34.9339 34.2857 32.2128 34.2857 28.868C34.2857 25.5231 37.0068 22.802 40.3516 22.802C43.6964 22.802 46.4175 25.5231 46.4175 28.868C46.4175 32.2128 43.6964 34.9339 40.3516 34.9339Z" fill="black"/>
<path d="M40.6544 25.4996C40.3588 25.377 40.0185 25.4447 39.7921 25.6711L38.7371 26.7261C38.4281 27.0351 38.4281 27.5361 38.7371 27.8449C38.9598 28.0676 39.2821 28.1297 39.5604 28.0317V31.5053C39.5604 31.9422 39.9145 32.2965 40.3516 32.2965C40.7887 32.2965 41.1428 31.9422 41.1428 31.5053V26.2306C41.1428 25.9105 40.9501 25.6221 40.6544 25.4996Z" fill="black"/>
</svg>
