<svg width="21" height="21" viewBox="0 0 21 21" fill="none" xmlns="http://www.w3.org/2000/svg">
<path d="M12.9325 17.5H8.55751C6.98251 17.5 4.00751 16.7037 4.00751 13.685C4.00751 10.6662 6.98251 9.87 8.55751 9.87H12.4425C12.5738 9.87 15.68 9.82625 15.68 7.3675C15.68 4.90875 12.5738 4.865 12.4425 4.865H8.06751C7.89346 4.865 7.72654 4.79586 7.60347 4.67279C7.4804 4.54972 7.41126 4.38279 7.41126 4.20875C7.41126 4.0347 7.4804 3.86778 7.60347 3.74471C7.72654 3.62164 7.89346 3.5525 8.06751 3.5525H12.4425C14.0175 3.5525 16.9925 4.34875 16.9925 7.3675C16.9925 10.3862 14.0175 11.1825 12.4425 11.1825H8.55751C8.42626 11.1825 5.32001 11.2262 5.32001 13.685C5.32001 16.1437 8.42626 16.1875 8.55751 16.1875H12.9325C13.1065 16.1875 13.2735 16.2566 13.3965 16.3797C13.5196 16.5028 13.5888 16.6697 13.5888 16.8437C13.5888 17.0178 13.5196 17.1847 13.3965 17.3078C13.2735 17.4309 13.1065 17.5 12.9325 17.5Z" fill="white"/>
<path d="M5.63501 7.27125C5.02526 7.26606 4.43069 7.08052 3.9262 6.73799C3.42173 6.39545 3.02992 5.91126 2.80017 5.34643C2.5704 4.7816 2.51297 4.1614 2.6351 3.56398C2.75722 2.96656 3.05345 2.41866 3.48645 1.98931C3.91944 1.55996 4.46983 1.26838 5.06826 1.15132C5.6667 1.03425 6.28639 1.09693 6.84926 1.33146C7.41213 1.566 7.89298 1.96188 8.23123 2.46924C8.56948 2.97659 8.74999 3.57272 8.75001 4.1825C8.75001 4.59034 8.66927 4.99414 8.51241 5.3706C8.35555 5.74707 8.12568 6.08874 7.83608 6.37591C7.54647 6.66307 7.20287 6.89004 6.82509 7.04371C6.44731 7.19738 6.04284 7.27471 5.63501 7.27125ZM5.63501 2.40625C5.28889 2.40625 4.95055 2.50888 4.66276 2.70118C4.37497 2.89347 4.15068 3.16678 4.01822 3.48655C3.88577 3.80632 3.85111 4.15818 3.91864 4.49766C3.98616 4.83712 4.15284 5.14894 4.39758 5.39368C4.64232 5.63842 4.95414 5.8051 5.2936 5.87262C5.63308 5.94015 5.98494 5.90549 6.30471 5.77304C6.62448 5.64058 6.89779 5.41628 7.09008 5.1285C7.28238 4.84071 7.38501 4.50236 7.38501 4.15625C7.38501 3.92643 7.33975 3.69887 7.2518 3.48655C7.16385 3.27423 7.03495 3.08131 6.87245 2.91881C6.70995 2.75631 6.51703 2.62741 6.30471 2.53946C6.09239 2.45151 5.86483 2.40625 5.63501 2.40625Z" fill="white"/>
<path d="M15.365 19.9062C14.7537 19.908 14.1556 19.7283 13.6466 19.3899C13.1375 19.0516 12.7402 18.5699 12.5051 18.0056C12.27 17.4414 12.2075 16.82 12.3257 16.2203C12.444 15.6206 12.7374 15.0693 13.1691 14.6366C13.6007 14.2037 14.151 13.9086 14.7505 13.7888C15.3498 13.6688 15.9713 13.7295 16.5362 13.963C17.1011 14.1965 17.5841 14.5925 17.9238 15.1006C18.2636 15.6087 18.445 16.2062 18.445 16.8175C18.445 17.6352 18.1208 18.4194 17.5434 18.9984C16.966 19.5775 16.1827 19.9039 15.365 19.9062ZM15.365 15.0412C15.0188 15.0412 14.6805 15.1439 14.3928 15.3362C14.105 15.5284 13.8806 15.8018 13.7481 16.1215C13.6158 16.4413 13.5811 16.7932 13.6486 17.1327C13.7161 17.4721 13.8828 17.7839 14.1275 18.0287C14.3723 18.2734 14.6841 18.4401 15.0235 18.5076C15.363 18.5751 15.7149 18.5405 16.0347 18.408C16.3544 18.2756 16.6278 18.0512 16.82 17.7635C17.0123 17.4757 17.115 17.1374 17.115 16.7912C17.115 16.3271 16.9306 15.8819 16.6024 15.5538C16.2742 15.2256 15.8291 15.0412 15.365 15.0412Z" fill="white"/>
</svg>
