<svg width="21" height="21" viewBox="0 0 21 21" fill="none" xmlns="http://www.w3.org/2000/svg">
<path d="M20.2699 20.0156C20.2699 20.0156 20.2699 10.7543 20.2699 7.66992C20.2699 7.54277 20.11 7.38281 19.9541 7.26387L16.7262 4.92188V2.33379C16.7262 2.07949 16.5129 1.90723 16.2996 1.90723H12.6205L10.7461 0.541406C10.6189 0.455273 10.4057 0.455273 10.2744 0.541406L8.39999 1.90723H4.72089C4.4666 1.90723 4.29433 2.12051 4.29433 2.33379V4.89316L1.02538 7.26797C0.832611 7.38691 0.709564 7.54277 0.709564 7.67402C0.709564 10.7789 0.709564 20.1018 0.709564 20.1018C0.709564 20.3438 0.902338 20.5119 1.10331 20.5283C1.11562 20.5283 1.12382 20.5283 1.13613 20.5283H19.8393C20.1141 20.5242 20.2699 20.3109 20.2699 20.0156ZM19.4578 8.43691V19.2486L12.399 13.5967L19.4578 8.43691ZM19.142 7.68633L16.7262 9.4459V5.91035L19.142 7.68633ZM10.4918 1.34941L11.2424 1.90313H9.7371L10.4918 1.34941ZM15.873 2.76035V10.0693L10.4918 13.9904L5.11054 10.0693V2.76035H15.873ZM1.52578 8.43691L8.58456 13.5967L1.52578 19.2814V8.43691ZM4.29843 9.47871L1.82109 7.67402L4.29843 5.87344V9.47871ZM2.29277 19.7121L9.26952 14.0971L10.2334 14.8025C10.418 14.942 10.5574 14.942 10.7461 14.8025L11.71 14.0971L18.7277 19.7121H2.29277Z" fill="white"/>
<path d="M13.3957 4.85215H7.633V5.66426H13.3957V4.85215Z" fill="white"/>
<path d="M13.3957 7.45664H7.633V8.26875H13.3957V7.45664Z" fill="white"/>
<path d="M13.3957 10.0611H7.633V10.8732H13.3957V10.0611Z" fill="white"/>
</svg>
