<svg width="48" height="52" viewBox="0 0 48 52" fill="none" xmlns="http://www.w3.org/2000/svg">
<path d="M42.9278 11.5148C40.0028 7.69828 35.9299 4.8178 31.3856 3.33396C31.4068 2.49622 31.1016 1.67451 30.5323 1.05365C29.9183 0.384042 29.0452 0 28.1368 0H19.8633C18.9548 0 18.0817 0.384042 17.4678 1.05365C16.8985 1.67451 16.5932 2.49611 16.6145 3.33396C12.0701 4.8178 7.99721 7.69838 5.07221 11.5148C1.86294 15.7022 0.166656 20.7112 0.166656 26C0.166656 31.2888 1.86294 36.2978 5.07221 40.4852C7.99721 44.3017 12.0701 47.1822 16.6144 48.666C16.5931 49.5038 16.8984 50.3255 17.4677 50.9464C18.0816 51.616 18.9548 52 19.8632 52H28.1367C29.0452 52 29.9182 51.616 30.5322 50.9464C31.1015 50.3255 31.4067 49.5039 31.3855 48.666C35.9298 47.1822 40.0027 44.3016 42.9277 40.4852C46.137 36.2978 47.8333 31.2888 47.8333 26C47.8333 20.7112 46.137 15.7022 42.9278 11.5148ZM15.9995 16.4656L16.5441 21.9119C16.119 22.6352 15.875 23.477 15.875 24.375C15.875 25.4012 16.2173 26.3813 16.8356 27.1734L15.9995 35.5343C15.9386 36.1423 16.1389 36.7508 16.5488 37.2038C16.8203 37.5038 17.1687 37.7191 17.5505 37.8302L17.2918 40.8046C11.5308 38.1933 7.74999 32.4105 7.74999 26C7.74999 21.0429 9.97126 16.4193 13.8442 13.315C14.3111 12.9409 14.3862 12.259 14.012 11.7922C13.6377 11.3253 12.9558 11.2503 12.4891 11.6245C8.10034 15.1422 5.58332 20.3819 5.58332 26C5.58332 33.5203 10.175 40.2784 17.0943 43.0767L16.8017 46.4423C8.21983 43.4189 2.33332 35.1951 2.33332 26C2.33332 16.8049 8.21983 8.58108 16.8017 5.55772L17.5506 14.1698C17.1688 14.2809 16.8204 14.4963 16.5489 14.7962C16.139 15.2492 15.9387 15.8577 15.9995 16.4656ZM19.0648 2.51788C19.2723 2.29147 19.5559 2.16667 19.8632 2.16667H28.1367C28.4439 2.16667 28.7275 2.29136 28.9351 2.51788C29.1428 2.74441 29.2426 3.03778 29.2159 3.34392L28.2821 14.0833H19.7178L18.8446 4.04257C18.8436 4.02935 18.8426 4.01635 18.8412 4.00313L18.784 3.34392C18.7573 3.03778 18.8571 2.74441 19.0648 2.51788ZM29.8446 16.25L29.4662 20.0334C28.8009 19.6925 28.0475 19.5 27.25 19.5C26.0423 19.5 24.884 19.9574 24 20.7452C23.116 19.9574 21.9577 19.5 20.75 19.5C19.9524 19.5 19.1991 19.6925 18.5337 20.0335L18.1554 16.25H29.8446ZM28.9352 49.4821C28.7277 49.7085 28.444 49.8333 28.1368 49.8333H19.8633C19.556 49.8333 19.2724 49.7086 19.0649 49.4821C18.8572 49.2556 18.7574 48.9622 18.7841 48.6561L19.7179 37.9166H28.2822L29.1554 47.9573C29.1563 47.9705 29.1574 47.9835 29.1588 47.9968L29.216 48.656C29.2427 48.9622 29.1429 49.2556 28.9352 49.4821ZM18.1554 35.75L18.8331 28.9726L22.3488 31.9021C22.8112 32.2877 23.3978 32.5 24 32.5C24.6022 32.5 25.1887 32.2877 25.6512 31.9021L29.1668 28.9726L29.8446 35.75H18.1554ZM29.2991 26.0219C29.279 26.0406 29.2598 26.0601 29.2413 26.0804C29.196 26.1246 29.1489 26.1673 29.0998 26.2081L24.2642 30.2377C24.1161 30.3611 23.8837 30.3611 23.7357 30.2377L18.9001 26.2081C18.851 26.1672 18.8038 26.1246 18.7586 26.0804C18.7401 26.0601 18.7208 26.0407 18.7008 26.0219C18.279 25.5803 18.0417 24.9937 18.0417 24.375C18.0417 22.8816 19.2566 21.6667 20.75 21.6667C21.7084 21.6667 22.5764 22.1579 23.0721 22.9804C23.2681 23.3059 23.6202 23.5048 24 23.5048C24.3798 23.5048 24.732 23.3059 24.9279 22.9804C25.4236 22.1579 26.2916 21.6667 27.25 21.6667C28.7434 21.6667 29.9583 22.8816 29.9583 24.375C29.9583 24.9937 29.721 25.5803 29.2991 26.0219ZM31.1983 46.4423L30.4494 37.8302C30.8312 37.7191 31.1796 37.5037 31.451 37.2038C31.861 36.7508 32.0613 36.1423 32.0004 35.5344L31.1643 27.1734C31.7827 26.3813 32.125 25.4012 32.125 24.375C32.125 23.477 31.881 22.6352 31.4558 21.9119L32.0004 16.4657C32.0613 15.8577 31.861 15.2492 31.451 14.7962C31.1796 14.4962 30.8312 14.2809 30.4494 14.1698L30.7081 11.1954C36.4692 13.8067 40.25 19.5895 40.25 26C40.25 30.957 38.0287 35.5806 34.1557 38.685C33.6889 39.0592 33.6138 39.741 33.988 40.2078C34.3622 40.6746 35.0438 40.7499 35.5109 40.3755C39.8996 36.8577 42.4167 31.618 42.4167 26C42.4167 18.4797 37.8249 11.7216 30.9057 8.92331L31.1983 5.55772C39.7802 8.58108 45.6667 16.8049 45.6667 26C45.6667 35.1951 39.7802 43.4189 31.1983 46.4423Z" fill="black"/>
</svg>
