<svg width="73" height="83" viewBox="0 0 73 83" fill="none" xmlns="http://www.w3.org/2000/svg">
<path d="M16.7975 39.9092C15.1223 38.2341 12.5761 37.9497 10.6036 39.0538V21.8045C10.6036 20.9284 10.3842 20.1028 9.99856 19.3786C10.2308 19.3095 10.4736 19.2733 10.7214 19.2733C12.117 19.2733 13.2525 20.4087 13.2525 21.8045V34.5386C13.2525 35.2701 13.8455 35.8631 14.577 35.8631C15.3084 35.8631 15.9014 35.2701 15.9014 34.5386V21.8045C15.9014 18.9482 13.5776 16.6244 10.7214 16.6244C9.77658 16.6244 8.8657 16.8796 8.07066 17.3543C7.29541 16.8914 6.39018 16.6244 5.42349 16.6244C2.56723 16.6244 0.243408 18.948 0.243408 21.8055L0.264953 46.1129C0.265836 47.2221 0.676598 48.7879 1.22016 49.7552C1.22899 49.7711 1.23835 49.7866 1.24789 49.8021L16.5047 74.5081C16.8215 75.0857 17.1071 76.1847 17.1071 76.8324V81.6756C17.1071 82.407 17.7001 83 18.4315 83C19.163 83 19.756 82.407 19.756 81.6756V76.8324C19.756 75.7229 19.3459 74.1565 18.8022 73.1891C18.7932 73.1732 18.784 73.1576 18.7745 73.1421L3.51785 48.4364C3.20086 47.8584 2.9146 46.7589 2.91407 46.1108L2.89252 21.8046C2.89252 20.409 4.02803 19.2735 5.42367 19.2735C6.8193 19.2735 7.95481 20.4088 7.95481 21.8046V43.5722C7.95481 43.6033 7.95729 43.6338 7.95941 43.6644C7.98219 44.9599 8.48548 46.2485 9.47195 47.235L21.3351 59.098C21.8524 59.6152 22.691 59.6152 23.2081 59.098C23.7253 58.5807 23.7253 57.7422 23.2081 57.225L11.3449 45.362C10.3581 44.3752 10.3581 42.7694 11.3449 41.7826C12.3317 40.7958 13.9375 40.7958 14.9245 41.7826L29.5212 56.3793C31.1505 58.0085 32.5271 61.3317 32.5271 63.6359V81.6756C32.5271 82.407 33.1201 83 33.8515 83C34.583 83 35.176 82.407 35.176 81.6756V63.6358C35.176 60.6368 33.5149 56.6265 31.3942 54.5059L16.7975 39.9092Z" fill="black"/>
<path d="M67.5767 16.6245C66.61 16.6245 65.7048 16.8913 64.9295 17.3544C64.1347 16.8797 63.2236 16.6245 62.2788 16.6245C59.4226 16.6245 57.0988 18.9482 57.0988 21.8046V34.5387C57.0988 35.2702 57.6918 35.8632 58.4232 35.8632C59.1547 35.8632 59.7477 35.2702 59.7477 34.5387V21.8046C59.7477 20.409 60.8832 19.2734 62.2788 19.2734C62.5266 19.2734 62.7696 19.3097 63.0017 19.3787C62.6161 20.1029 62.3966 20.9285 62.3966 21.8046V39.0539C60.4242 37.95 57.8781 38.2342 56.2027 39.9095L41.606 54.5062C39.4855 56.6268 37.8242 60.6371 37.8242 63.6361V81.6755C37.8242 82.407 38.4172 83 39.1487 83C39.8801 83 40.4732 82.407 40.4732 81.6755V63.6357C40.4732 61.3315 41.8497 58.0083 43.479 56.379L58.0757 41.7823C59.0625 40.7955 60.6683 40.7955 61.6553 41.7823C62.6421 42.7692 62.6421 44.3749 61.6553 45.3619L49.7921 57.2249C49.2749 57.7422 49.2749 58.5807 49.7921 59.0979C50.3094 59.6152 51.148 59.6152 51.6651 59.0979L63.5283 47.2349C64.5147 46.2484 65.0178 44.9598 65.0408 43.6643C65.0429 43.6338 65.0454 43.6032 65.0454 43.5721V21.8044C65.0454 20.4088 66.1809 19.2733 67.5765 19.2733C68.9722 19.2733 70.1077 20.4086 70.1077 21.8032L70.0861 46.1105C70.0856 46.7586 69.7992 47.8581 69.4824 48.4361L54.2257 73.142C54.2162 73.1574 54.207 73.1731 54.198 73.189C53.6543 74.1564 53.2442 75.7228 53.2442 76.8324V81.6755C53.2442 82.407 53.8372 83 54.5687 83C55.3001 83 55.8931 82.407 55.8931 81.6755V76.8324C55.8931 76.1846 56.1787 75.0858 56.4955 74.508L71.7523 49.8021C71.7619 49.7867 71.771 49.771 71.7801 49.7551C72.3236 48.7879 72.7344 47.2222 72.7353 46.1128L72.7568 21.8044C72.7566 18.9482 70.4328 16.6245 67.5767 16.6245Z" fill="black"/>
<path d="M57.2679 11.7C57.2679 5.2486 52.0191 0 45.5679 0C42.0091 0 38.678 1.62327 36.4774 4.33843C34.3475 1.69444 31.084 0 27.4322 0C20.9808 0 15.7322 5.2486 15.7322 11.7C15.7322 14.2695 16.55 16.7084 18.0973 18.7532L35.4438 41.681C35.6942 42.012 36.085 42.2064 36.5 42.2064C36.915 42.2064 37.3058 42.012 37.5562 41.681L54.9027 18.7532C56.4499 16.7084 57.2679 14.2695 57.2679 11.7ZM52.7903 17.155L36.5 38.6867L20.2098 17.1549C19.0135 15.574 18.3813 13.6876 18.3813 11.7C18.3813 6.70923 22.4416 2.64894 27.4324 2.64894C32.3742 2.64894 36.3946 6.66932 36.3946 11.6112C36.3946 12.3426 36.9876 12.9356 37.7191 12.9356C38.4505 12.9356 39.0435 12.3426 39.0435 11.6112C39.0435 9.8823 38.6638 8.24066 37.9832 6.76503C39.647 4.21128 42.4983 2.64894 45.5679 2.64894C50.5586 2.64894 54.6189 6.70923 54.6189 11.7C54.6189 13.6878 53.9865 15.574 52.7903 17.155Z" fill="black"/>
</svg>
