<svg width="25" height="25" viewBox="0 0 25 25" fill="none" xmlns="http://www.w3.org/2000/svg">
<path d="M22.938 0.210938H2.48138C2.01151 0.210938 1.56088 0.397595 1.22863 0.729847C0.896374 1.0621 0.709717 1.51273 0.709717 1.9826V22.4393C0.709717 22.9091 0.896374 23.3598 1.22863 23.692C1.56088 24.0243 2.01151 24.2109 2.48138 24.2109H22.938C23.4079 24.2109 23.8586 24.0243 24.1908 23.692C24.5231 23.3598 24.7097 22.9091 24.7097 22.4393V1.9826C24.7097 1.51273 24.5231 1.0621 24.1908 0.729847C23.8586 0.397595 23.4079 0.210938 22.938 0.210938ZM7.86305 20.6559H4.25472V9.19427H7.86305V20.6559ZM6.05638 7.60594C5.64708 7.60363 5.24763 7.48013 4.90845 7.25103C4.56927 7.02192 4.30556 6.69747 4.15059 6.31863C3.99563 5.93978 3.95636 5.52353 4.03775 5.12239C4.11913 4.72125 4.31752 4.35321 4.60787 4.06472C4.89823 3.77622 5.26753 3.5802 5.66918 3.5014C6.07083 3.42259 6.48683 3.46453 6.86467 3.62192C7.24251 3.77931 7.56526 4.0451 7.79218 4.38575C8.01911 4.7264 8.14004 5.12663 8.13972 5.53594C8.14358 5.80997 8.09223 6.08198 7.98873 6.33574C7.88523 6.58951 7.7317 6.81984 7.53729 7.013C7.34288 7.20617 7.11157 7.35822 6.85714 7.46009C6.60272 7.56196 6.33039 7.61156 6.05638 7.60594ZM21.1631 20.6659H17.5564V14.4043C17.5564 12.5576 16.7714 11.9876 15.7581 11.9876C14.6881 11.9876 13.6381 12.7943 13.6381 14.4509V20.6659H10.0297V9.20261H13.4997V10.7909H13.5464C13.8947 10.0859 15.1147 8.88094 16.9764 8.88094C18.9897 8.88094 21.1647 10.0759 21.1647 13.5759L21.1631 20.6659Z" fill="#0A66C2"/>
</svg>
