<svg width="19" height="21" viewBox="0 0 19 21" fill="none" xmlns="http://www.w3.org/2000/svg">
<path d="M15.7097 20.2109C14.8764 20.2109 14.168 19.9193 13.5847 19.3359C13.0014 18.7526 12.7097 18.0443 12.7097 17.2109C12.7097 17.0943 12.7181 16.9733 12.7347 16.8479C12.7514 16.7233 12.7764 16.6109 12.8097 16.5109L5.75972 12.4109C5.47638 12.6609 5.15972 12.8566 4.80972 12.9979C4.45972 13.1399 4.09305 13.2109 3.70972 13.2109C2.87638 13.2109 2.16805 12.9193 1.58472 12.3359C1.00138 11.7526 0.709717 11.0443 0.709717 10.2109C0.709717 9.3776 1.00138 8.66927 1.58472 8.08594C2.16805 7.5026 2.87638 7.21094 3.70972 7.21094C4.09305 7.21094 4.45972 7.2816 4.80972 7.42294C5.15972 7.56494 5.47638 7.76094 5.75972 8.01094L12.8097 3.91094C12.7764 3.81094 12.7514 3.6986 12.7347 3.57394C12.7181 3.4486 12.7097 3.3276 12.7097 3.21094C12.7097 2.3776 13.0014 1.66927 13.5847 1.08594C14.168 0.502604 14.8764 0.210938 15.7097 0.210938C16.543 0.210938 17.2514 0.502604 17.8347 1.08594C18.4181 1.66927 18.7097 2.3776 18.7097 3.21094C18.7097 4.04427 18.4181 4.7526 17.8347 5.33594C17.2514 5.91927 16.543 6.21094 15.7097 6.21094C15.3264 6.21094 14.9597 6.13994 14.6097 5.99794C14.2597 5.8566 13.9431 5.66094 13.6597 5.41094L6.60972 9.51094C6.64305 9.61094 6.66805 9.72327 6.68472 9.84794C6.70138 9.97327 6.70972 10.0943 6.70972 10.2109C6.70972 10.3276 6.70138 10.4483 6.68472 10.5729C6.66805 10.6983 6.64305 10.8109 6.60972 10.9109L13.6597 15.0109C13.9431 14.7609 14.2597 14.5649 14.6097 14.4229C14.9597 14.2816 15.3264 14.2109 15.7097 14.2109C16.543 14.2109 17.2514 14.5026 17.8347 15.0859C18.4181 15.6693 18.7097 16.3776 18.7097 17.2109C18.7097 18.0443 18.4181 18.7526 17.8347 19.3359C17.2514 19.9193 16.543 20.2109 15.7097 20.2109Z" fill="#141426"/>
</svg>
