<svg width="25" height="20" viewBox="0 0 25 20" fill="none" xmlns="http://www.w3.org/2000/svg">
<path d="M8.25724 19.9617C17.3139 19.9617 22.2675 12.4583 22.2675 5.95146C22.2675 5.73834 22.2675 5.52618 22.2531 5.31498C23.2168 4.61793 24.0486 3.75486 24.7097 2.76618C23.8111 3.16458 22.8578 3.42573 21.8816 3.5409C22.9095 2.92559 23.6789 1.95768 24.0464 0.817378C23.0798 1.39099 22.0224 1.7952 20.9196 2.01258C20.1772 1.22315 19.1953 0.700419 18.1259 0.525262C17.0565 0.350105 15.9591 0.532292 15.0037 1.04363C14.0482 1.55497 13.2879 2.36695 12.8405 3.35393C12.393 4.3409 12.2833 5.44784 12.5283 6.50346C10.5706 6.40526 8.65547 5.89649 6.90717 5.01018C5.15887 4.12388 3.61648 2.87984 2.38012 1.35882C1.75045 2.44281 1.55759 3.72605 1.84082 4.94724C2.12404 6.16843 2.86206 7.23577 3.9046 7.93194C3.12095 7.90898 2.35436 7.69757 1.66972 7.31562V7.37802C1.67003 8.51487 2.06357 9.61661 2.78359 10.4964C3.50361 11.3762 4.50578 11.9798 5.62012 12.2049C4.8952 12.4026 4.13459 12.4315 3.39676 12.2894C3.71153 13.2677 4.32415 14.1232 5.14896 14.7363C5.97377 15.3494 6.96954 15.6895 7.99708 15.7089C6.97615 16.5114 5.80703 17.1047 4.55659 17.4549C3.30615 17.8051 1.99893 17.9053 0.709717 17.7499C2.96155 19.1949 5.58164 19.9614 8.25724 19.9579" fill="#1DA1F2"/>
</svg>
