<svg width="15" height="17" viewBox="0 0 15 17" fill="none" xmlns="http://www.w3.org/2000/svg">
<path d="M8 4.67383C8.53044 4.67383 9.03914 4.46311 9.41422 4.08804C9.78929 3.71297 10 3.20426 10 2.67383C10 2.1434 9.78929 1.63469 9.41422 1.25961C9.03914 0.884542 8.53044 0.673828 8 0.673828C7.46957 0.673828 6.96086 0.884542 6.58579 1.25961C6.21072 1.63469 6 2.1434 6 2.67383C6 3.20426 6.21072 3.71297 6.58579 4.08804C6.96086 4.46311 7.46957 4.67383 8 4.67383ZM3.472 2.82383C3.04777 2.63558 2.56637 2.62241 2.13248 2.78721C1.69859 2.952 1.34731 3.28141 1.155 3.70383C0.755002 4.58583 1.147 5.62083 2.032 6.01383L4.703 7.20383C4.79141 7.2431 4.86653 7.30719 4.91925 7.3883C4.97196 7.46942 5.00001 7.56409 5 7.66083V9.52583C5.00009 9.58989 4.98787 9.65338 4.964 9.71283L3.124 14.2678C2.96365 14.6952 2.97666 15.1684 3.16026 15.5864C3.34387 16.0043 3.68353 16.334 4.10678 16.505C4.53003 16.6761 5.00337 16.675 5.42582 16.5019C5.84826 16.3289 6.18637 15.9976 6.368 15.5788L7.766 12.1198C7.78476 12.0738 7.8168 12.0344 7.85803 12.0067C7.89926 11.979 7.94782 11.9642 7.9975 11.9642C8.04719 11.9642 8.09574 11.979 8.13697 12.0067C8.17821 12.0344 8.21025 12.0738 8.229 12.1198L9.627 15.5788C9.80403 16.0046 10.1419 16.3432 10.5672 16.5212C10.9925 16.6992 11.4709 16.7022 11.8984 16.5295C12.3259 16.3568 12.668 16.0223 12.8503 15.5989C13.0326 15.1754 13.0404 14.697 12.872 14.2678L11.036 9.72383C11.0121 9.66438 10.9999 9.60089 11 9.53683V7.66083C11 7.56409 11.028 7.46942 11.0808 7.3883C11.1335 7.30719 11.2086 7.2431 11.297 7.20383L13.968 6.01383C14.1779 5.92049 14.3672 5.78652 14.5251 5.61964C14.6829 5.45276 14.8062 5.25628 14.8877 5.04152C14.9692 4.82677 15.0075 4.598 15.0001 4.3684C14.9928 4.13881 14.9401 3.91294 14.845 3.70383C14.6527 3.28141 14.3014 2.952 13.8675 2.78721C13.4336 2.62241 12.9522 2.63558 12.528 2.82383L11.252 3.39283C11.0204 3.49803 10.8354 3.68445 10.732 3.91683C10.4937 4.44144 10.1095 4.88635 9.62507 5.19836C9.14068 5.51038 8.57668 5.6763 8.0005 5.6763C7.42432 5.6763 6.86033 5.51038 6.37594 5.19836C5.89155 4.88635 5.50726 4.44144 5.269 3.91683C5.16542 3.68456 4.98047 3.49818 4.749 3.39283L3.471 2.82383H3.472Z" fill="#6B7280"/>
</svg>
