<svg width="56" height="57" viewBox="0 0 56 57" fill="none" xmlns="http://www.w3.org/2000/svg">
<path d="M4.08494 34.1653L4.28444 34.7643L2.63856 35.263C2.38918 35.3623 2.18968 35.4122 2.1398 35.4122C2.04005 35.462 1.9403 35.5618 1.89043 35.7114C1.84055 35.8112 1.84055 35.9608 1.89043 36.1598C1.9403 36.3593 2.04005 36.4595 2.1398 36.5094C2.23955 36.5593 2.3393 36.6092 2.43905 36.6092C2.5388 36.6092 2.73831 36.5593 2.98768 36.4595L4.68344 35.9608L4.88294 36.5593L3.28693 37.0581C2.93781 37.1573 2.63856 37.2077 2.48893 37.2576C2.3393 37.3074 2.18968 37.2576 2.04005 37.2072C1.89043 37.1578 1.79067 37.0581 1.69092 36.9084C1.59117 36.7593 1.49142 36.6092 1.44155 36.3598C1.3418 36.0605 1.3418 35.8112 1.3418 35.6615C1.3418 35.5124 1.44155 35.3623 1.49142 35.2132C1.5413 35.064 1.69092 35.0137 1.79067 34.9134C1.9403 34.8137 2.18968 34.7139 2.5388 34.6142L4.08494 34.1653Z" fill="black"/>
<path d="M2.08984 38.5543L5.03249 37.2576L5.28186 37.8556L3.83548 39.901L5.78062 39.0536L6.02999 39.6022L3.13723 40.8985L2.88785 40.3L4.28436 38.2551L2.3891 39.103L2.08984 38.5543Z" fill="black"/>
<path d="M3.63599 41.846L6.429 40.2505L6.72826 40.7991L3.98511 42.3946L3.63599 41.846Z" fill="black"/>
<path d="M4.88306 43.8909L7.07757 42.3946L6.52894 41.5966L6.97782 41.2974L8.4242 43.3921L7.97533 43.6914L7.47657 42.9432L5.28206 44.4395L4.88306 43.8909Z" fill="black"/>
<path d="M6.27954 45.886L8.72343 43.7917L10.2696 45.5873L9.87056 45.886L8.72343 44.5893L8.1748 45.0381L9.22218 46.2351L8.82318 46.5843L7.7758 45.3873L7.12742 45.9863L8.32443 47.3324L7.92543 47.6815L6.27954 45.886Z" fill="black"/>
<path d="M10.7184 45.9863L11.6162 46.7843C11.8157 46.9838 11.9653 47.133 12.0152 47.2332C12.1149 47.3823 12.1648 47.5818 12.1648 47.7818C12.1648 47.9818 12.1149 48.1808 12.0651 48.3798C11.9653 48.5793 11.8157 48.7793 11.6162 49.0287C11.4167 49.2282 11.2671 49.3774 11.0676 49.4776C10.8681 49.5769 10.6187 49.6766 10.4192 49.6766C10.2696 49.6766 10.0701 49.6262 9.92043 49.5769C9.77081 49.527 9.62118 49.4272 9.42168 49.2282L8.52393 48.4297L10.7184 45.9863ZM10.8182 46.8337L9.42168 48.4297L9.77081 48.7295C9.92043 48.8287 10.0202 48.9285 10.0701 48.9788C10.1698 49.0287 10.2696 49.0781 10.3693 49.0287C10.4691 49.0287 10.5688 48.9788 10.7184 48.929C10.8681 48.8292 11.0177 48.73 11.1673 48.53C11.3169 48.3305 11.4666 48.1808 11.5164 48.0811C11.5663 47.9315 11.6162 47.8317 11.5663 47.7325C11.5164 47.6317 11.5164 47.532 11.4666 47.4322C11.4167 47.3325 11.2671 47.2332 11.0676 47.0332L10.8182 46.8337Z" fill="black"/>
<path d="M13.1123 50.7244L13.6609 50.9738C13.5611 51.1728 13.5611 51.3723 13.611 51.4726C13.6609 51.5718 13.7606 51.7219 13.9601 51.8212C14.1596 51.9209 14.3093 51.9713 14.409 51.9713C14.5088 51.9713 14.6584 51.8711 14.7083 51.7718C14.7581 51.7219 14.7581 51.6217 14.7581 51.5723C14.7581 51.5229 14.7083 51.4227 14.6085 51.3229C14.5586 51.2731 14.409 51.1234 14.2594 50.9239C14.01 50.6746 13.8604 50.4756 13.8105 50.2756C13.7108 50.0262 13.7606 49.7768 13.9103 49.5773C14.01 49.4277 14.1098 49.3279 14.2594 49.2781C14.409 49.2282 14.5586 49.1783 14.7581 49.2282C14.9576 49.2781 15.1571 49.3274 15.3566 49.4776C15.7058 49.6766 15.9053 49.9259 16.005 50.1753C16.1048 50.4247 16.0549 50.6741 15.9053 50.9234L15.3566 50.6237C15.4065 50.4746 15.4065 50.3244 15.4065 50.2252C15.4065 50.1249 15.2569 50.0257 15.1073 49.9254C14.9576 49.8257 14.808 49.7758 14.6584 49.7758C14.5586 49.7758 14.5088 49.8257 14.4589 49.8751C14.409 49.9254 14.409 50.0252 14.4589 50.0746C14.5088 50.1743 14.6085 50.3239 14.8579 50.5733C15.1073 50.8227 15.2569 50.9728 15.3566 51.1219C15.4564 51.2721 15.5063 51.4217 15.5063 51.5708C15.5063 51.7209 15.4564 51.92 15.3566 52.0696C15.2569 52.2197 15.1073 52.3688 14.9576 52.4187C14.808 52.5185 14.6085 52.5185 14.409 52.5185C14.2095 52.4686 14.01 52.4187 13.7606 52.2691C13.4115 52.0696 13.212 51.8202 13.1123 51.5209C13.0125 51.2232 12.9626 51.0731 13.1123 50.7244Z" fill="black"/>
<path d="M16.3044 53.7169L17.4017 51.273L16.5538 50.8735L16.7533 50.3748L19.0975 51.4226L18.898 51.9214L18.0501 51.5224L16.9528 53.9663L16.3044 53.7169Z" fill="black"/>
<path d="M20.9927 55.4122L20.3443 55.2132L20.2944 54.4147L19.0475 54.0157L18.5488 54.6137L17.9004 54.4147L20.0949 51.7219L20.7433 51.9209L20.9927 55.4122ZM20.2445 53.8661L20.1947 52.6192L19.3966 53.6167L20.2445 53.8661Z" fill="black"/>
<path d="M22.0899 55.6615L22.6385 53.068L21.6909 52.8685L21.7907 52.3198L24.2844 52.8186L24.1847 53.3672L23.2371 53.1682L22.6884 55.7617L22.0899 55.6615Z" fill="black"/>
<path d="M24.4839 56.0604L24.7333 52.8684L27.1273 53.0679L27.0774 53.6165L25.3318 53.4674L25.2819 54.1652L26.8779 54.3148L26.828 54.8634L25.232 54.7143L25.1821 55.5617L26.9777 55.7118L26.9278 56.2604L24.4839 56.0604Z" fill="black"/>
<path d="M27.676 55.2625L28.3244 55.1628C28.3743 55.3618 28.474 55.5119 28.5738 55.6111C28.673 55.7114 28.873 55.7613 29.0725 55.7613C29.272 55.7613 29.4212 55.7114 29.5214 55.6111C29.6212 55.5119 29.671 55.4121 29.671 55.3124C29.671 55.2131 29.6212 55.1628 29.6212 55.1129C29.5713 55.063 29.4715 55.0136 29.3718 54.9638C29.2725 54.9638 29.1224 54.9134 28.8232 54.8635C28.474 54.8136 28.2247 54.7144 28.075 54.5643C27.8755 54.4146 27.7758 54.1653 27.7758 53.9159C27.7758 53.7663 27.8257 53.6161 27.8755 53.4675C27.9254 53.3174 28.075 53.2181 28.275 53.1179C28.4242 53.0181 28.6735 52.9688 28.9229 52.9688C29.3224 52.9688 29.6212 53.0186 29.8212 53.2181C30.0207 53.3673 30.1698 53.6166 30.1698 53.9159L29.5219 53.9663C29.4715 53.8161 29.4217 53.6665 29.3219 53.6166C29.2222 53.5668 29.0725 53.5174 28.9224 53.5174C28.7234 53.5174 28.5738 53.5673 28.474 53.667C28.4237 53.7174 28.3743 53.7668 28.3743 53.866C28.3743 53.9663 28.4242 54.0161 28.474 54.0655C28.5738 54.1154 28.7738 54.2156 29.0725 54.265C29.3713 54.3144 29.6212 54.4146 29.7708 54.4645C29.9199 54.5144 30.07 54.6635 30.1194 54.7638C30.2192 54.9134 30.2695 55.063 30.2695 55.2625C30.2695 55.462 30.2192 55.6111 30.1194 55.7613C30.0202 55.9109 29.87 56.0605 29.7204 56.1603C29.5214 56.26 29.3214 56.3099 29.0227 56.3099C28.6232 56.3099 28.3244 56.26 28.0745 56.0605C27.8755 55.9109 27.7259 55.6116 27.676 55.2625Z" fill="black"/>
<path d="M32.4141 54.3648C32.3642 54.0655 32.3148 53.7668 32.3642 53.5174C32.4141 53.3179 32.4639 53.1683 32.5637 53.0187C32.6629 52.8685 32.7632 52.7194 32.9123 52.6192C33.1118 52.47 33.3118 52.4201 33.5612 52.3199C34.0101 52.2206 34.4086 52.27 34.7582 52.47C35.1073 52.669 35.3068 53.068 35.4565 53.5668C35.5562 54.0655 35.5068 54.5144 35.3068 54.8635C35.1073 55.2132 34.7582 55.4625 34.3093 55.5618C33.8605 55.6615 33.4614 55.6117 33.1123 55.4122C32.7637 55.2132 32.5143 54.8635 32.4141 54.3648ZM33.0624 54.2157C33.1617 54.5643 33.3118 54.8137 33.5113 54.9638C33.7108 55.1129 33.9602 55.1628 34.2096 55.1129C34.459 55.063 34.658 54.9139 34.7587 54.7144C34.858 54.5149 34.9078 54.2157 34.8086 53.8162C34.7088 53.4675 34.6091 53.2182 34.4091 53.068C34.2101 52.9184 33.9607 52.8685 33.7113 52.9688C33.4619 53.0187 33.2629 53.1678 33.1622 53.3673C33.0131 53.5668 32.9627 53.8162 33.0624 54.2157Z" fill="black"/>
<path d="M36.7035 54.9135L35.6062 51.921L37.6511 51.1729L37.8506 51.6716L36.4042 52.2207L36.6536 52.9185L37.9005 52.4701L38.1 52.9689L36.8531 53.4172L37.3518 54.7145L36.7035 54.9135Z" fill="black"/>
<path d="M43.4365 51.6715L42.838 52.0206L42.24 51.5219L41.1423 52.1702L41.2924 52.9184L40.6939 53.2675L40.1448 49.876L40.7438 49.5273L43.4365 51.6715ZM41.7907 51.1727L40.7932 50.3742L41.0425 51.6211L41.7907 51.1727Z" fill="black"/>
<path d="M44.0351 51.2231L42.04 48.7293L42.7882 48.1303L44.5837 49.4774L43.7363 47.3822L44.4844 46.7842L46.4794 49.2779L46.0306 49.6769L44.4346 47.6819L45.5318 50.0759L45.0331 50.4755L42.9378 48.8784L44.5338 50.8735L44.0351 51.2231Z" fill="black"/>
<path d="M47.2276 48.5793L44.9329 46.3349L46.5787 44.6392L46.9782 45.0387L45.7812 46.2855L46.28 46.7843L47.3768 45.6367L47.7758 46.0357L46.6785 47.1828L47.3269 47.7813L48.5738 46.4845L48.9733 46.8835L47.2276 48.5793Z" fill="black"/>
<path d="M49.5713 46.0855L46.9783 44.1902L47.7763 43.093C47.9758 42.7937 48.1753 42.6441 48.275 42.5443C48.4247 42.4446 48.5743 42.3942 48.7239 42.4446C48.873 42.4446 49.0725 42.5443 49.2227 42.6436C49.4217 42.7937 49.5214 42.9433 49.5713 43.1927C49.6212 43.3917 49.5713 43.6411 49.4217 43.8905C49.5713 43.8406 49.7214 43.7912 49.8207 43.7912C49.9708 43.7912 50.1698 43.7912 50.4695 43.7912L51.2177 43.8411L50.7688 44.4396L49.9204 44.3897C49.6207 44.3897 49.4217 44.3897 49.3219 44.3897C49.2227 44.3897 49.1723 44.4401 49.1224 44.49C49.0725 44.5398 48.9733 44.5892 48.9234 44.7393L48.8237 44.8386L49.9209 45.6366L49.5713 46.0855ZM48.4242 44.4396L48.7239 44.0406C48.9229 43.7912 49.0232 43.6411 49.0232 43.5418C49.073 43.4421 49.0232 43.3917 49.0232 43.2925C49.0232 43.1927 48.9234 43.1423 48.873 43.093C48.7738 43.0431 48.7239 42.9937 48.6237 42.9937C48.5244 42.9937 48.4745 43.0436 48.3743 43.093C48.3244 43.1428 48.2252 43.2431 48.075 43.4421L47.7758 43.8411L48.4242 44.4396Z" fill="black"/>
<path d="M51.6162 43.093L48.873 41.4471L49.2227 40.8984L51.9658 42.5448L51.6162 43.093Z" fill="black"/>
<path d="M52.3143 39.3025L52.7632 38.8037C53.0624 39.0531 53.2121 39.3025 53.2619 39.5519C53.3118 39.8511 53.2619 40.1005 53.1118 40.4496C52.9128 40.8486 52.6634 41.098 52.2644 41.1977C51.8649 41.2975 51.4664 41.2481 51.0176 41.0481C50.5188 40.7987 50.2196 40.4995 50.0699 40.1499C49.9203 39.7514 49.9707 39.4017 50.1198 38.9533C50.2699 38.6042 50.5193 38.3548 50.8679 38.2556C51.0674 38.2052 51.2674 38.1553 51.5662 38.2052L51.4166 38.8536C51.2669 38.8037 51.1168 38.8536 50.9682 38.9035C50.8181 38.9538 50.7188 39.103 50.6684 39.2531C50.5687 39.4521 50.5687 39.7015 50.6684 39.901C50.7682 40.1005 50.9682 40.3005 51.3168 40.4501C51.6659 40.6491 51.9657 40.6995 52.2151 40.6491C52.4141 40.5992 52.6136 40.4501 52.7138 40.2506C52.7637 40.1005 52.8131 39.9509 52.7637 39.8017C52.6136 39.6017 52.5138 39.4521 52.3143 39.3025Z" fill="black"/>
<path d="M54.908 35.6116L54.709 36.2604L53.9105 36.3103L53.5115 37.5073L54.1095 38.0061L53.9105 38.654L51.2671 36.4599L51.4666 35.8116L54.908 35.6116ZM53.312 36.3597L52.0651 36.4096L53.0626 37.2081L53.312 36.3597Z" fill="black"/>
<path d="M0.344238 28.3798L0.394114 27.1828C0.394114 26.9334 0.443989 26.7339 0.493864 26.5843C0.54374 26.3848 0.64349 26.2352 0.793116 26.1354C0.942742 25.9858 1.14224 25.9359 1.34174 25.8362C1.54125 25.7863 1.79062 25.7364 2.08987 25.7863C2.33925 25.7863 2.58863 25.8362 2.78813 25.9359C3.03751 26.0357 3.18713 26.1354 3.33676 26.285C3.43651 26.3848 3.53626 26.5344 3.58613 26.7339C3.63601 26.8835 3.63601 27.083 3.63601 27.3324L3.58613 28.5294L0.344238 28.3798ZM0.892867 27.7813L3.03751 27.881V27.3823C3.03751 27.1828 3.03751 27.083 3.03751 26.9833C3.03751 26.8835 2.98763 26.7838 2.93775 26.7339C2.88788 26.684 2.78813 26.5843 2.6385 26.5344C2.48888 26.4845 2.28938 26.4845 2.04 26.4347C1.79062 26.4347 1.59112 26.4347 1.4415 26.4845C1.29187 26.5344 1.19212 26.5843 1.14224 26.6342C1.09237 26.684 0.992617 26.8337 0.992617 26.9334C0.942742 27.0332 0.942742 27.1828 0.942742 27.482L0.892867 27.7813Z" fill="black"/>
<path d="M3.73565 25.3874L0.593506 24.8388L0.992508 22.4946L1.54114 22.5944L1.24189 24.2901L1.94014 24.4398L2.23939 22.8438L2.73814 22.9435L2.43889 24.5395L3.28677 24.6891L3.58602 22.9435L4.13465 23.0433L3.73565 25.3874Z" fill="black"/>
<path d="M4.28441 22.5444L1.19214 21.5968L1.49139 20.5993C1.59114 20.2003 1.69089 20.0008 1.74077 19.8511C1.84052 19.7015 1.99014 19.5519 2.18964 19.502C2.38915 19.4521 2.58865 19.4521 2.83802 19.502C3.03753 19.5519 3.18715 19.6516 3.2869 19.7514C3.38665 19.8511 3.4864 20.0008 3.4864 20.1005C3.53628 20.2501 3.53628 20.3499 3.53628 20.4496C3.53628 20.5993 3.4864 20.8486 3.38665 21.098L3.2869 21.497L4.48391 21.9459L4.28441 22.5444ZM1.89039 21.1479L2.78815 21.3973L2.8879 21.0481C2.93777 20.7988 2.98765 20.6491 2.98765 20.5494C2.98765 20.4496 2.93777 20.3998 2.8879 20.3C2.83802 20.2501 2.73827 20.2003 2.6884 20.1504C2.58865 20.1005 2.4889 20.1005 2.38915 20.1504C2.2894 20.2003 2.23952 20.2501 2.18964 20.3499C2.13977 20.3998 2.08989 20.5494 2.04002 20.7988L1.89039 21.1479Z" fill="black"/>
<path d="M6.17961 17.4071L5.88036 18.0555L5.08236 18.0056L4.5836 19.2026L5.13223 19.7513L4.88286 20.3996L2.43896 17.9558L2.68834 17.3074L6.17961 17.4071ZM4.53373 18.0056L3.23697 17.9558L4.1846 18.8036L4.53373 18.0056Z" fill="black"/>
<path d="M6.32932 17.2077L3.58618 15.5618L4.28444 14.3648C4.48394 14.0656 4.63356 13.8661 4.73331 13.7663C4.83306 13.6666 5.03257 13.6167 5.18219 13.6167C5.38169 13.6167 5.53132 13.6666 5.68094 13.7663C5.88045 13.8661 6.03007 14.0656 6.07995 14.2651C6.12982 14.4646 6.12982 14.714 6.03007 14.9633C6.1797 14.8636 6.32932 14.8137 6.42907 14.8137C6.5787 14.7638 6.7782 14.7638 7.07745 14.7638H7.82558L7.42658 15.4122L6.5787 15.4621C6.27945 15.4621 6.07995 15.512 5.9802 15.512C5.88045 15.512 5.83057 15.5618 5.7807 15.6117C5.73082 15.6616 5.68094 15.7613 5.58119 15.8611L5.48144 15.9608L6.62858 16.6591L6.32932 17.2077ZM5.03257 15.6616L5.28194 15.2626C5.43157 15.0132 5.53132 14.8137 5.53132 14.7638C5.53132 14.6641 5.53132 14.6142 5.53132 14.5145C5.48144 14.4646 5.43157 14.3648 5.38169 14.315C5.28194 14.2651 5.18219 14.2651 5.13232 14.2651C5.03257 14.2651 4.98269 14.315 4.88294 14.4147C4.83306 14.4646 4.78319 14.6142 4.63356 14.8137L4.38419 15.2626L5.03257 15.6616Z" fill="black"/>
<path d="M8.37415 13.916L6.22951 12.2702L5.63101 13.0183L5.18213 12.6692L6.72826 10.6243L7.17714 10.9734L6.57864 11.7215L8.72328 13.3674L8.37415 13.916Z" fill="black"/>
<path d="M9.57112 12.4196L7.27686 10.1752L7.97511 9.47697L9.92025 10.6241L8.77311 8.67897L9.47137 7.98071L11.7656 10.2251L11.3168 10.674L9.52124 8.87847L10.8679 11.1229L10.419 11.5717L8.17461 10.2251L9.97012 11.9707L9.57112 12.4196Z" fill="black"/>
<path d="M12.1646 9.87601L10.2195 7.33237L12.1147 5.88599L12.4639 6.33486L11.0674 7.38225L11.5162 7.93087L12.813 6.93337L13.1621 7.38225L11.8654 8.37975L12.414 9.07801L13.8604 7.98075L14.2095 8.42963L12.1646 9.87601Z" fill="black"/>
<path d="M14.5089 8.08067L12.863 5.28765L13.4117 4.9884L15.6561 6.18541L14.5588 4.34002L15.0576 4.04077L16.7034 6.83379L16.1548 7.18292L13.9603 5.98591L15.0077 7.78142L14.5089 8.08067Z" fill="black"/>
<path d="M17.9003 6.23507L16.803 3.79118L15.9551 4.19018L15.7556 3.69142L18.0998 2.64404L18.2993 3.1428L17.4514 3.5418L18.5486 5.98569L17.9003 6.23507Z" fill="black"/>
<path d="M20.2943 3.59183C20.1946 3.29258 20.1946 2.99333 20.2444 2.74395C20.2943 2.54445 20.3442 2.39483 20.4439 2.2452C20.5437 2.09557 20.6434 1.94595 20.7931 1.8462C20.9427 1.69657 21.1921 1.59682 21.4414 1.54695C21.8903 1.44719 22.2893 1.49707 22.6384 1.69657C22.9377 1.99582 23.1871 2.34495 23.2868 2.8437C23.3866 3.34246 23.3866 3.79133 23.1871 4.14046C22.9876 4.48959 22.6384 4.73897 22.1896 4.83872C21.7407 4.93847 21.3417 4.88859 20.9926 4.68909C20.6434 4.43971 20.3941 4.09059 20.2943 3.59183ZM20.8928 3.44221C20.9926 3.79133 21.1422 4.04071 21.3417 4.19034C21.5412 4.33996 21.7906 4.38984 22.0399 4.29009C22.2893 4.24021 22.4888 4.09059 22.5886 3.89109C22.6883 3.69158 22.7382 3.39233 22.6384 2.99333C22.5387 2.6442 22.3891 2.39483 22.1896 2.2452C21.9901 2.09557 21.7407 2.09557 21.4913 2.14545C21.2419 2.19532 21.0424 2.34495 20.9427 2.54445C20.8429 2.74395 20.8429 3.0432 20.8928 3.44221Z" fill="black"/>
<path d="M24.0848 4.33983L23.6858 1.14781L25.8803 0.898438L25.9302 1.44707L24.4339 1.64657L24.5337 2.3947L25.8803 2.24507L25.9302 2.7937L24.5835 2.94333L24.7332 4.28996L24.0848 4.33983Z" fill="black"/>
<path d="M28.6235 4.09053L28.7233 1.44714L27.7756 1.39726V0.848633L30.3193 0.948384V1.49701L29.3716 1.44714L29.2724 4.09053H28.6235Z" fill="black"/>
<path d="M30.5686 4.19031L31.0674 0.998291L32.414 1.19779C32.7636 1.24767 33.013 1.29754 33.1621 1.39729C33.3117 1.49704 33.4115 1.59679 33.4614 1.74642C33.5112 1.89605 33.5611 2.09555 33.5117 2.24517C33.4614 2.49455 33.3616 2.69405 33.212 2.7938C33.0624 2.94343 32.813 2.9933 32.5142 2.9933C32.6634 3.09305 32.7636 3.1928 32.8135 3.29256C32.9127 3.39231 32.9631 3.59181 33.1127 3.84118L33.412 4.53944L32.6135 4.48956L32.2649 3.74143C32.1147 3.49206 32.0654 3.29256 32.0155 3.24268C31.9651 3.1928 31.9152 3.09305 31.8654 3.04318C31.7661 2.9933 31.6659 2.9933 31.5167 2.94343H31.3666L31.1671 4.29006L30.5686 4.19031ZM31.4664 2.44468L31.9651 2.49455C32.2649 2.54443 32.4639 2.54443 32.5636 2.54443C32.6629 2.54443 32.7132 2.49455 32.7631 2.44468C32.813 2.3948 32.8629 2.29505 32.8629 2.1953C32.8629 2.09555 32.8629 1.9958 32.813 1.94592C32.7631 1.89605 32.7132 1.7963 32.6135 1.7963C32.5636 1.7963 32.414 1.74642 32.1646 1.69655L31.6659 1.59679L31.4664 2.44468Z" fill="black"/>
<path d="M36.4541 5.48709L35.7563 5.28759L35.706 4.48958L34.4591 4.14046L34.0107 4.78884L33.3618 4.58933L35.4566 1.84619L36.105 2.04569L36.4541 5.48709ZM35.6561 3.94095L35.5563 2.69407L34.8082 3.69158L35.6561 3.94095Z" fill="black"/>
<path d="M36.6536 5.63674L37.9503 2.69409L38.5488 2.94347L38.8975 5.43723L39.7458 3.4921L40.2945 3.74147L38.9977 6.68412L38.3992 6.38487L38.0501 3.94097L37.2022 5.83624L36.6536 5.63674Z" fill="black"/>
<path d="M39.9452 5.93586L40.4943 6.18524C40.3941 6.38474 40.3941 6.58424 40.4439 6.68399C40.4943 6.78374 40.5936 6.93337 40.7931 7.03312C40.9926 7.13287 41.1417 7.18275 41.2419 7.18275C41.3412 7.18275 41.4913 7.083 41.5412 6.98325C41.5911 6.93337 41.5911 6.83362 41.5911 6.78374C41.5911 6.73387 41.5412 6.63412 41.4414 6.53437C41.3916 6.48449 41.2424 6.33487 41.0923 6.13537C40.8429 5.88599 40.6933 5.68649 40.6434 5.48699C40.5442 5.23761 40.5936 4.98823 40.7437 4.78873C40.8429 4.63911 40.9427 4.53936 41.0923 4.48948C41.2424 4.4396 41.3916 4.38973 41.5911 4.4396C41.7906 4.48948 41.9906 4.53935 42.1896 4.68898C42.5387 4.88848 42.7387 5.13786 42.838 5.38724C42.9377 5.63661 42.8878 5.88599 42.7387 6.13537L42.1896 5.83611C42.2399 5.68649 42.2399 5.53686 42.2399 5.43711C42.1896 5.33736 42.0898 5.23761 41.9402 5.13786C41.7906 5.03811 41.6409 4.98823 41.4918 4.98823C41.3916 4.98823 41.3417 5.03811 41.2918 5.08798C41.2419 5.13786 41.2419 5.23761 41.2918 5.28748C41.3417 5.38724 41.4414 5.53686 41.6908 5.78624C41.9402 6.03561 42.0898 6.18524 42.1896 6.33487C42.2893 6.48449 42.3392 6.63412 42.3392 6.78374C42.3392 6.93337 42.2893 7.13287 42.1896 7.2825C42.0898 7.43212 41.9402 7.58175 41.7906 7.63162C41.6404 7.73137 41.4414 7.73137 41.2419 7.73137C41.0424 7.73137 40.8424 7.63162 40.5931 7.482C40.2444 7.2825 40.0444 7.03312 39.9447 6.78374C39.7462 6.58424 39.7956 6.28499 39.9452 5.93586Z" fill="black"/>
<path d="M41.9907 8.42963L43.9354 5.88599L44.7832 6.53437C45.0825 6.78374 45.282 6.93337 45.3812 7.03312C45.4815 7.18274 45.5314 7.38225 45.5314 7.58175C45.5314 7.78125 45.4316 7.98075 45.282 8.18025C45.1822 8.32988 45.0326 8.42963 44.8825 8.52938C44.7334 8.62913 44.5832 8.62913 44.484 8.62913C44.3339 8.62913 44.2346 8.57925 44.1344 8.52938C43.9852 8.4795 43.7857 8.32988 43.5857 8.13037L43.2371 7.881L42.489 8.82863L41.9907 8.42963ZM44.1349 6.73387L43.5862 7.43212L43.8855 7.63162C44.085 7.78125 44.2351 7.881 44.3344 7.881C44.4341 7.881 44.4845 7.93087 44.5837 7.881C44.6835 7.83112 44.7339 7.78125 44.7832 7.73137C44.8331 7.63162 44.883 7.53187 44.883 7.43212C44.883 7.33237 44.8331 7.23262 44.7837 7.18274C44.7344 7.13287 44.6336 7.03312 44.4346 6.88349L44.1349 6.73387Z" fill="black"/>
<path d="M45.3319 9.02819C45.5813 8.77882 45.7808 8.62919 46.0301 8.52944C46.1798 8.47956 46.3788 8.42969 46.5289 8.42969C46.7284 8.42969 46.8775 8.47956 47.0276 8.52944C47.2271 8.62919 47.4266 8.72894 47.6256 8.92844C47.9753 9.27757 48.1244 9.6267 48.1244 10.0257C48.1244 10.4247 47.9254 10.8237 47.5758 11.1728C47.2271 11.522 46.8276 11.7215 46.4286 11.7215C46.0296 11.7215 45.6301 11.5718 45.3314 11.2227C44.9828 10.8736 44.8326 10.5245 44.8326 10.1254C44.7833 9.77632 44.9833 9.37732 45.3319 9.02819ZM45.8306 9.47707C45.5813 9.72645 45.4316 9.97582 45.4316 10.2252C45.4316 10.4746 45.482 10.6741 45.681 10.8736C45.88 11.0731 46.08 11.123 46.3294 11.123C46.5788 11.123 46.8281 10.9733 47.0775 10.724C47.3269 10.4746 47.477 10.2252 47.477 9.97582C47.477 9.72645 47.4266 9.52694 47.2276 9.32744C47.0281 9.12794 46.8281 9.02819 46.5788 9.07807C46.3294 9.07807 46.08 9.22769 45.8306 9.47707Z" fill="black"/>
<path d="M46.6785 12.669L49.2226 10.7239L50.07 11.8211C50.2695 12.0705 50.4191 12.3199 50.4695 12.4695C50.5194 12.6191 50.5194 12.7688 50.4695 12.9683C50.4191 13.1179 50.3194 13.2675 50.1697 13.3673C49.9707 13.5169 49.7707 13.5668 49.5712 13.5668C49.3717 13.5668 49.1722 13.4171 48.9732 13.2176C48.9732 13.3673 48.9732 13.5169 48.9732 13.6665C48.9732 13.8161 48.873 14.0156 48.7737 14.265L48.5244 14.9633L48.0755 14.3648L48.3249 13.5668C48.4246 13.2675 48.475 13.1179 48.475 13.0181C48.475 12.9184 48.475 12.8685 48.475 12.7688C48.475 12.669 48.3747 12.6191 48.3249 12.4695L48.2256 12.3698L47.1772 13.1678L46.6785 12.669ZM48.5239 12.0705L48.8231 12.4695C49.0226 12.7189 49.1224 12.8685 49.2226 12.9184C49.272 12.9683 49.3717 12.9683 49.4216 12.9683C49.5214 12.9683 49.5712 12.9184 49.671 12.8685C49.7707 12.8186 49.8206 12.7189 49.8206 12.6191C49.8206 12.5194 49.8206 12.4196 49.7707 12.3698C49.7209 12.3199 49.671 12.2201 49.4715 11.9708L49.1717 11.5718L48.5239 12.0705Z" fill="black"/>
<path d="M48.9229 15.8611L51.2176 14.5145L50.7189 13.7165L51.1672 13.4172L52.4645 15.6117L52.0156 15.911L51.5169 15.113L49.2226 16.4596L48.9229 15.8611Z" fill="black"/>
<path d="M50.9178 19.8511L50.618 19.2027L51.1671 18.6541L50.618 17.507L49.82 17.5569L49.5208 16.9085L52.9621 16.709L53.2614 17.3574L50.9178 19.8511ZM51.5661 18.2551L52.4644 17.3574L51.2175 17.4571L51.5661 18.2551Z" fill="black"/>
<path d="M51.1172 20.4995L53.6613 19.6516L53.3616 18.7539L53.8603 18.6042L54.6588 21.0481L54.1601 21.1978L53.8603 20.3L51.3167 21.1479L51.1172 20.4995Z" fill="black"/>
<path d="M51.666 22.295L54.8082 21.5469L54.9583 22.1953L51.8156 22.9434L51.666 22.295Z" fill="black"/>
<path d="M53.5114 23.0931C53.8106 23.0432 54.1094 23.0432 54.3587 23.0931C54.5089 23.1429 54.7084 23.1928 54.8575 23.3424C55.0076 23.4422 55.1069 23.5918 55.2071 23.6916C55.3064 23.8911 55.4061 24.0906 55.4565 24.34C55.5064 24.7888 55.4565 25.1878 55.2071 25.537C54.9577 25.8861 54.5582 26.0856 54.0595 26.1355C53.5607 26.2352 53.1119 26.1355 52.8126 25.8861C52.464 25.6367 52.264 25.2876 52.2146 24.8387C52.1642 24.3898 52.2146 23.9908 52.464 23.6417C52.7139 23.2926 53.0126 23.1429 53.5114 23.0931ZM53.6111 23.7414C53.2625 23.7913 53.0131 23.941 52.8131 24.0906C52.6635 24.2901 52.6136 24.4896 52.6136 24.7888C52.6136 25.0881 52.7637 25.2377 52.9632 25.3873C53.1622 25.537 53.462 25.5868 53.8106 25.4871C54.1597 25.4372 54.4091 25.2876 54.6086 25.138C54.7587 24.9385 54.8081 24.739 54.7587 24.4397C54.7089 24.1903 54.6086 23.9908 54.4096 23.8412C54.3094 23.7414 54.0101 23.6916 53.6111 23.7414Z" fill="black"/>
<path d="M52.4141 26.8336L55.6056 26.7837V27.4321L53.4614 28.7792L55.6061 28.7288V29.3273L52.4146 29.3772V28.7288L54.5093 27.3822L52.4146 27.4321V26.8336H52.4141Z" fill="black"/>
<path d="M48.7385 20.0111C45.39 11.8168 37.3943 6.06958 27.9994 6.06958C23.2516 6.06958 18.9062 7.51847 15.2585 10.0165C16.5075 9.61668 17.9068 9.41679 19.3047 9.41679C28.0503 9.41679 32.6962 14.7133 32.6962 22.3588C32.6962 22.9075 32.6465 23.4066 32.5956 23.907C32.495 24.5563 32.444 25.2566 32.444 25.9569C32.444 30.3009 36.4419 34.2988 41.2393 34.2988C47.0871 34.3001 51.5827 26.354 48.7385 20.0111Z" fill="#27273F"/>
<path d="M10.3632 14.7145C4.96617 21.7107 3.96671 31.5002 8.66351 39.5965C11.0126 43.6949 14.51 46.7403 18.4569 48.6399C17.5071 47.7424 16.6082 46.641 15.908 45.4403C11.5103 37.8484 13.8098 31.2036 20.4049 27.4044C20.8556 27.1548 21.3534 26.9066 21.8041 26.7041C22.4038 26.4545 23.0531 26.1554 23.6515 25.8052C27.3998 23.6574 28.9009 18.2106 26.4513 14.0142C23.6018 9.01822 14.4591 9.06786 10.3632 14.7145Z" fill="#27273F"/>
<path d="M24.9513 50.5879C25.0023 50.5879 25.0023 50.5879 24.9513 50.5879C33.6943 51.7899 42.6908 47.6914 47.3889 39.5965C49.7353 35.498 50.6864 30.9515 50.284 26.6074C49.9875 27.9061 49.4845 29.1551 48.7855 30.4041C44.4388 38.0013 37.5471 39.3509 30.952 35.4993C30.4987 35.2524 30.0505 34.9493 29.6534 34.6527C29.0994 34.2503 28.5507 33.8519 27.951 33.4991C24.204 31.3552 18.7573 32.8002 16.3586 36.9482C13.4099 41.9978 18.057 49.8916 24.9513 50.5879Z" fill="#27273F"/>
</svg>
