<svg width="44" height="44" viewBox="0 0 44 44" fill="none" xmlns="http://www.w3.org/2000/svg">
<path d="M3.63118 26.74L3.78547 27.2032L2.51262 27.5889C2.31976 27.6657 2.16548 27.7043 2.1269 27.7043C2.04976 27.7428 1.97262 27.82 1.93405 27.9357C1.89548 28.0128 1.89548 28.1286 1.93405 28.2825C1.97262 28.4367 2.04976 28.5143 2.1269 28.5528C2.20405 28.5914 2.28119 28.63 2.35833 28.63C2.43547 28.63 2.58976 28.5914 2.78261 28.5143L4.09403 28.1286L4.24832 28.5914L3.01404 28.9771C2.74404 29.0539 2.51262 29.0928 2.3969 29.1314C2.28119 29.17 2.16548 29.1314 2.04976 29.0924C1.93405 29.0543 1.85691 28.9771 1.77976 28.8614C1.70262 28.7461 1.62548 28.63 1.58691 28.4371C1.50977 28.2057 1.50977 28.0128 1.50977 27.8971C1.50977 27.7818 1.58691 27.6657 1.62548 27.5504C1.66405 27.435 1.77976 27.3961 1.85691 27.3186C1.97262 27.2414 2.16548 27.1643 2.43547 27.0871L3.63118 26.74Z" fill="white"/>
<path d="M2.08887 30.1344L4.36457 29.1316L4.55742 29.5941L3.43886 31.1759L4.94313 30.5205L5.13599 30.9448L2.89886 31.9473L2.70601 31.4844L3.786 29.903L2.32029 30.5587L2.08887 30.1344Z" fill="white"/>
<path d="M3.28418 32.6802L5.44417 31.4463L5.67559 31.8706L3.55418 33.1045L3.28418 32.6802Z" fill="white"/>
<path d="M4.24805 34.2616L5.94518 33.1044L5.5209 32.4873L5.86804 32.2559L6.9866 33.8758L6.63946 34.1073L6.25375 33.5287L4.55662 34.6858L4.24805 34.2616Z" fill="white"/>
<path d="M5.32812 35.8042L7.21811 34.1846L8.41382 35.5731L8.10525 35.8042L7.21811 34.8013L6.79383 35.1485L7.60382 36.0742L7.29526 36.3442L6.48526 35.4185L5.98383 35.8817L6.90954 36.9227L6.60097 37.1927L5.32812 35.8042Z" fill="white"/>
<path d="M8.76158 35.8818L9.45587 36.499C9.61015 36.6533 9.72586 36.7686 9.76444 36.8461C9.84158 36.9614 9.88015 37.1157 9.88015 37.2704C9.88015 37.4251 9.84158 37.579 9.80301 37.7329C9.72586 37.8872 9.61015 38.0418 9.45587 38.2347C9.30158 38.389 9.18587 38.5043 9.03158 38.5818C8.8773 38.6586 8.68444 38.7357 8.53016 38.7357C8.41444 38.7357 8.26016 38.6968 8.14445 38.6586C8.02873 38.62 7.91302 38.5429 7.75873 38.389L7.06445 37.7714L8.76158 35.8818ZM8.83873 36.5372L7.75873 37.7714L8.02873 38.0033C8.14445 38.08 8.22159 38.1571 8.26016 38.1961C8.3373 38.2347 8.41444 38.2729 8.49159 38.2347C8.56873 38.2347 8.64587 38.1961 8.76158 38.1575C8.8773 38.0804 8.99301 38.0036 9.10873 37.849C9.22444 37.6947 9.34015 37.579 9.37872 37.5018C9.41729 37.3861 9.45587 37.309 9.4173 37.2322C9.37872 37.1543 9.37872 37.0772 9.34015 37C9.30158 36.9229 9.18587 36.8461 9.03158 36.6914L8.83873 36.5372Z" fill="white"/>
<path d="M10.6121 39.5462L11.0364 39.739C10.9592 39.8929 10.9592 40.0472 10.9978 40.1247C11.0364 40.2015 11.1135 40.3176 11.2678 40.3943C11.4221 40.4715 11.5378 40.5104 11.6149 40.5104C11.6921 40.5104 11.8078 40.4329 11.8464 40.3562C11.8849 40.3176 11.8849 40.2401 11.8849 40.2019C11.8849 40.1637 11.8464 40.0862 11.7692 40.009C11.7307 39.9704 11.6149 39.8547 11.4992 39.7004C11.3064 39.5076 11.1907 39.3537 11.1521 39.199C11.0749 39.0062 11.1135 38.8133 11.2292 38.659C11.3064 38.5433 11.3835 38.4662 11.4992 38.4276C11.6149 38.389 11.7307 38.3505 11.8849 38.389C12.0392 38.4276 12.1935 38.4658 12.3478 38.5819C12.6178 38.7358 12.7721 38.9286 12.8492 39.1215C12.9264 39.3143 12.8878 39.5072 12.7721 39.7001L12.3478 39.4682C12.3864 39.3529 12.3864 39.2368 12.3864 39.1601C12.3864 39.0825 12.2707 39.0058 12.1549 38.9282C12.0392 38.8511 11.9235 38.8125 11.8078 38.8125C11.7307 38.8125 11.6921 38.8511 11.6535 38.8893C11.6149 38.9283 11.6149 39.0054 11.6535 39.0436C11.6921 39.1207 11.7692 39.2364 11.9621 39.4293C12.1549 39.6221 12.2707 39.7382 12.3478 39.8536C12.4249 39.9697 12.4635 40.0854 12.4635 40.2007C12.4635 40.3168 12.4249 40.4707 12.3478 40.5864C12.2707 40.7025 12.1549 40.8179 12.0392 40.8564C11.9235 40.9336 11.7692 40.9336 11.6149 40.9336C11.4607 40.895 11.3064 40.8564 11.1135 40.7407C10.8435 40.5864 10.6892 40.3936 10.6121 40.1621C10.535 39.9319 10.4964 39.8158 10.6121 39.5462Z" fill="white"/>
<path d="M13.0811 41.8605L13.9296 39.9705L13.2739 39.6616L13.4282 39.2759L15.241 40.0863L15.0868 40.472L14.431 40.1634L13.5825 42.0534L13.0811 41.8605Z" fill="white"/>
<path d="M16.7068 43.1713L16.2054 43.0174L16.1668 42.3998L15.2026 42.0913L14.8169 42.5537L14.3154 42.3998L16.0126 40.3174L16.514 40.4713L16.7068 43.1713ZM16.1283 41.9756L16.0897 41.0113L15.4726 41.7827L16.1283 41.9756Z" fill="white"/>
<path d="M17.5556 43.3643L17.9799 41.3586L17.2471 41.2043L17.3242 40.78L19.2528 41.1657L19.1756 41.59L18.4428 41.4361L18.0185 43.4418L17.5556 43.3643Z" fill="white"/>
<path d="M19.4062 43.6727L19.5991 41.2041L21.4505 41.3584L21.412 41.7827L20.062 41.6673L20.0234 42.207L21.2577 42.3227L21.2191 42.7469L19.9848 42.6316L19.9462 43.2869L21.3348 43.403L21.2962 43.8273L19.4062 43.6727Z" fill="white"/>
<path d="M21.875 43.0556L22.3764 42.9785C22.415 43.1324 22.4921 43.2485 22.5693 43.3252C22.646 43.4028 22.8007 43.4413 22.955 43.4413C23.1093 43.4413 23.2246 43.4028 23.3021 43.3252C23.3793 43.2485 23.4178 43.1713 23.4178 43.0942C23.4178 43.0174 23.3793 42.9785 23.3793 42.9399C23.3407 42.9013 23.2636 42.8632 23.1864 42.8246C23.1097 42.8246 22.9936 42.7856 22.7621 42.7471C22.4921 42.7085 22.2993 42.6317 22.1836 42.5156C22.0293 42.3999 21.9521 42.2071 21.9521 42.0142C21.9521 41.8985 21.9907 41.7824 22.0293 41.6675C22.0679 41.5514 22.1836 41.4746 22.3382 41.3971C22.4536 41.3199 22.6464 41.2817 22.8393 41.2817C23.1482 41.2817 23.3793 41.3203 23.5339 41.4746C23.6882 41.5899 23.8036 41.7828 23.8036 42.0142L23.3025 42.0532C23.2636 41.9371 23.225 41.8214 23.1478 41.7828C23.0707 41.7442 22.955 41.706 22.8389 41.706C22.685 41.706 22.5693 41.7446 22.4921 41.8217C22.4532 41.8607 22.415 41.8989 22.415 41.9756C22.415 42.0532 22.4536 42.0917 22.4921 42.1299C22.5693 42.1685 22.724 42.246 22.955 42.2842C23.186 42.3224 23.3793 42.3999 23.495 42.4385C23.6103 42.4771 23.7264 42.5924 23.7646 42.6699C23.8417 42.7856 23.8807 42.9013 23.8807 43.0556C23.8807 43.2099 23.8417 43.3252 23.7646 43.4413C23.6878 43.5571 23.5717 43.6728 23.456 43.7499C23.3021 43.8271 23.1475 43.8656 22.9164 43.8656C22.6075 43.8656 22.3764 43.8271 22.1832 43.6728C22.0293 43.5571 21.9136 43.3256 21.875 43.0556Z" fill="white"/>
<path d="M25.5397 42.3613C25.5012 42.1298 25.463 41.8988 25.5012 41.7059C25.5397 41.5517 25.5783 41.4359 25.6554 41.3202C25.7322 41.2041 25.8097 41.0888 25.9251 41.0113C26.0793 40.8959 26.234 40.8574 26.4269 40.7798C26.774 40.7031 27.0822 40.7413 27.3526 40.8959C27.6226 41.0498 27.7769 41.3584 27.8926 41.7441C27.9697 42.1298 27.9315 42.477 27.7769 42.747C27.6226 43.0174 27.3526 43.2102 27.0054 43.287C26.6583 43.3641 26.3497 43.3255 26.0797 43.1713C25.8101 43.0174 25.6173 42.747 25.5397 42.3613ZM26.0412 42.2459C26.1179 42.5155 26.234 42.7084 26.3883 42.8245C26.5426 42.9398 26.7354 42.9784 26.9283 42.9398C27.1211 42.9013 27.275 42.7859 27.353 42.6316C27.4297 42.4774 27.4683 42.2459 27.3915 41.937C27.3144 41.6674 27.2372 41.4745 27.0826 41.3584C26.9287 41.2427 26.7358 41.2041 26.543 41.2817C26.3501 41.3202 26.1962 41.4356 26.1183 41.5898C26.003 41.7441 25.964 41.937 26.0412 42.2459Z" fill="white"/>
<path d="M28.8564 42.7859L28.0078 40.4716L29.5892 39.8931L29.7435 40.2788L28.625 40.7034L28.8178 41.2431L29.7821 40.8963L29.9364 41.282L28.9721 41.6288L29.3578 42.632L28.8564 42.7859Z" fill="white"/>
<path d="M34.0643 40.2785L33.6014 40.5485L33.1389 40.1628L32.29 40.6642L32.4061 41.2428L31.9432 41.5128L31.5186 38.89L31.9818 38.6204L34.0643 40.2785ZM32.7914 39.8928L32.02 39.2753L32.2128 40.2396L32.7914 39.8928Z" fill="white"/>
<path d="M34.5272 39.9319L32.9844 38.0033L33.5629 37.5401L34.9515 38.5819L34.2962 36.9615L34.8747 36.499L36.4176 38.4276L36.0705 38.7362L34.8362 37.1933L35.6847 39.0447L35.299 39.3537L33.6787 38.1186L34.9129 39.6615L34.5272 39.9319Z" fill="white"/>
<path d="M36.9954 37.8872L35.2207 36.1515L36.4936 34.8401L36.8025 35.149L35.8768 36.1133L36.2625 36.499L37.1107 35.6115L37.4193 35.9201L36.5707 36.8072L37.0721 37.2701L38.0364 36.2672L38.3454 36.5758L36.9954 37.8872Z" fill="white"/>
<path d="M38.8081 35.9584L36.8027 34.4927L37.4199 33.6442C37.5742 33.4127 37.7284 33.297 37.8056 33.2199C37.9213 33.1427 38.037 33.1038 38.1527 33.1427C38.2681 33.1427 38.4223 33.2199 38.5384 33.2966C38.6923 33.4127 38.7695 33.5285 38.8081 33.7213C38.8466 33.8752 38.8081 34.0681 38.6923 34.2609C38.8081 34.2223 38.9242 34.1842 39.0009 34.1842C39.117 34.1842 39.2709 34.1842 39.5027 34.1842L40.0813 34.2227L39.7341 34.6856L39.078 34.647C38.8462 34.647 38.6923 34.647 38.6152 34.647C38.5384 34.647 38.4995 34.686 38.4609 34.7245C38.4223 34.7631 38.3456 34.8013 38.307 34.9174L38.2299 34.9942L39.0784 35.6113L38.8081 35.9584ZM37.9209 34.6856L38.1527 34.377C38.3066 34.1842 38.3842 34.0681 38.3842 33.9913C38.4227 33.9142 38.3842 33.8752 38.3842 33.7985C38.3842 33.7213 38.307 33.6824 38.2681 33.6442C38.1913 33.6056 38.1527 33.5674 38.0752 33.5674C37.9984 33.5674 37.9599 33.606 37.8823 33.6442C37.8438 33.6827 37.767 33.7603 37.6509 33.9142L37.4195 34.2227L37.9209 34.6856Z" fill="white"/>
<path d="M40.389 33.6442L38.2676 32.3713L38.538 31.947L40.6594 33.2203L40.389 33.6442Z" fill="white"/>
<path d="M40.9295 30.7129L41.2766 30.3272C41.508 30.5201 41.6238 30.7129 41.6623 30.9058C41.7009 31.1372 41.6623 31.3301 41.5462 31.6001C41.3923 31.9086 41.1995 32.1015 40.8909 32.1786C40.582 32.2558 40.2738 32.2176 39.9266 32.0629C39.5409 31.8701 39.3095 31.6386 39.1938 31.3682C39.0781 31.0601 39.117 30.7897 39.2323 30.4429C39.3484 30.1729 39.5413 29.9801 39.8109 29.9033C39.9652 29.8644 40.1199 29.8258 40.3509 29.8644L40.2352 30.3658C40.1195 30.3272 40.0034 30.3658 39.8884 30.4044C39.7723 30.4433 39.6956 30.5586 39.6566 30.6747C39.5795 30.8286 39.5795 31.0215 39.6566 31.1758C39.7338 31.3301 39.8884 31.4847 40.1581 31.6004C40.4281 31.7543 40.6599 31.7933 40.8527 31.7543C41.0066 31.7158 41.1609 31.6004 41.2384 31.4462C41.277 31.3301 41.3152 31.2143 41.277 31.099C41.1609 30.9444 41.0838 30.8286 40.9295 30.7129Z" fill="white"/>
<path d="M42.9358 27.8586L42.7819 28.3605L42.1644 28.399L41.8558 29.3247L42.3183 29.7104L42.1644 30.2115L40.1201 28.5147L40.2744 28.0133L42.9358 27.8586ZM41.7015 28.4372L40.7373 28.4758L41.5087 29.0933L41.7015 28.4372Z" fill="white"/>
<path d="M0.738281 22.2658L0.776853 21.3401C0.776853 21.1473 0.815424 20.993 0.853995 20.8773C0.892566 20.723 0.969708 20.6073 1.08542 20.5301C1.20114 20.4144 1.35542 20.3758 1.5097 20.2987C1.66399 20.2601 1.85685 20.2215 2.08827 20.2601C2.28113 20.2601 2.47398 20.2987 2.62827 20.3758C2.82113 20.453 2.93684 20.5301 3.05255 20.6458C3.12969 20.723 3.20684 20.8387 3.24541 20.993C3.28398 21.1087 3.28398 21.263 3.28398 21.4558L3.24541 22.3815L0.738281 22.2658ZM1.16256 21.803L2.82113 21.8801V21.4944C2.82113 21.3401 2.82113 21.263 2.82113 21.1858C2.82113 21.1087 2.78255 21.0315 2.74398 20.993C2.70541 20.9544 2.62827 20.8773 2.51256 20.8387C2.39684 20.8001 2.24256 20.8001 2.0497 20.7615C1.85685 20.7615 1.70256 20.7615 1.58685 20.8001C1.47113 20.8387 1.39399 20.8773 1.35542 20.9158C1.31685 20.9544 1.23971 21.0701 1.23971 21.1473C1.20114 21.2244 1.20114 21.3401 1.20114 21.5715L1.16256 21.803Z" fill="white"/>
<path d="M3.36162 19.9517L0.931641 19.5274L1.24021 17.7146L1.66449 17.7917L1.43307 19.1032L1.97306 19.2189L2.20449 17.9846L2.5902 18.0617L2.35877 19.296L3.01448 19.4117L3.24591 18.0617L3.67019 18.1389L3.36162 19.9517Z" fill="white"/>
<path d="M3.78497 17.7529L1.39355 17.02L1.62498 16.2486C1.70212 15.94 1.77927 15.7857 1.81784 15.67C1.89498 15.5543 2.01069 15.4386 2.16498 15.4C2.31926 15.3615 2.47355 15.3615 2.6664 15.4C2.82069 15.4386 2.9364 15.5157 3.01354 15.5929C3.09069 15.67 3.16783 15.7857 3.16783 15.8629C3.2064 15.9786 3.2064 16.0557 3.2064 16.1329C3.2064 16.2486 3.16783 16.4414 3.09069 16.6343L3.01354 16.9429L3.93925 17.29L3.78497 17.7529ZM1.93355 16.6729L2.62783 16.8657L2.70497 16.5957C2.74355 16.4029 2.78212 16.2872 2.78212 16.21C2.78212 16.1329 2.74355 16.0943 2.70497 16.0172C2.6664 15.9786 2.58926 15.94 2.55069 15.9014C2.47355 15.8629 2.39641 15.8629 2.31926 15.9014C2.24212 15.94 2.20355 15.9786 2.16498 16.0557C2.12641 16.0943 2.08784 16.21 2.04926 16.4029L1.93355 16.6729Z" fill="white"/>
<path d="M5.25124 13.78L5.01981 14.2814L4.40267 14.2429L4.01696 15.1686L4.44124 15.5929L4.24839 16.0943L2.3584 14.2043L2.55125 13.7029L5.25124 13.78ZM3.97839 14.2429L2.97554 14.2043L3.70839 14.86L3.97839 14.2429Z" fill="white"/>
<path d="M5.36653 13.6258L3.24512 12.3529L3.78511 11.4272C3.9394 11.1958 4.05511 11.0415 4.13225 10.9643C4.2094 10.8872 4.36368 10.8486 4.47939 10.8486C4.63368 10.8486 4.74939 10.8872 4.86511 10.9643C5.01939 11.0415 5.13511 11.1958 5.17368 11.3501C5.21225 11.5043 5.21225 11.6972 5.13511 11.8901C5.25082 11.8129 5.36653 11.7743 5.44367 11.7743C5.55939 11.7358 5.71367 11.7358 5.9451 11.7358H6.52367L6.2151 12.2372L5.55939 12.2758C5.32796 12.2758 5.17368 12.3143 5.09653 12.3143C5.01939 12.3143 4.98082 12.3529 4.94225 12.3915C4.90368 12.4301 4.86511 12.5072 4.78796 12.5843L4.71082 12.6615L5.59796 13.2015L5.36653 13.6258ZM4.36368 12.4301L4.55654 12.1215C4.67225 11.9286 4.74939 11.7743 4.74939 11.7358C4.74939 11.6586 4.74939 11.6201 4.74939 11.5429C4.71082 11.5043 4.67225 11.4272 4.63368 11.3886C4.55654 11.3501 4.47939 11.3501 4.44082 11.3501C4.36368 11.3501 4.32511 11.3886 4.24797 11.4658C4.2094 11.5043 4.17083 11.6201 4.05511 11.7743L3.86226 12.1215L4.36368 12.4301Z" fill="white"/>
<path d="M6.94805 11.0804L5.28949 9.80752L4.82663 10.3861L4.47949 10.1161L5.6752 8.53467L6.02234 8.80467L5.55949 9.38323L7.21805 10.6561L6.94805 11.0804Z" fill="white"/>
<path d="M7.87388 9.92307L6.09961 8.18737L6.63961 7.64737L8.14388 8.53451L7.25674 7.03023L7.79674 6.49023L9.57102 8.22594L9.22388 8.57308L7.83531 7.18452L8.87673 8.92022L8.52959 9.26736L6.79389 8.22594L8.18245 9.57593L7.87388 9.92307Z" fill="white"/>
<path d="M9.87928 7.95606L8.375 5.98893L9.8407 4.87036L10.1107 5.2175L9.03071 6.0275L9.37785 6.45178L10.3807 5.68036L10.6507 6.0275L9.64785 6.79892L10.0721 7.33892L11.1907 6.49035L11.4607 6.83749L9.87928 7.95606Z" fill="white"/>
<path d="M11.6928 6.56738L10.4199 4.40739L10.8442 4.17597L12.5799 5.10168L11.7313 3.67454L12.1171 3.44312L13.3899 5.6031L12.9656 5.8731L11.2685 4.94739L12.0785 6.33595L11.6928 6.56738Z" fill="white"/>
<path d="M14.3158 5.14016L13.4672 3.25017L12.8115 3.55874L12.6572 3.17303L14.4701 2.36304L14.6244 2.74875L13.9686 3.05732L14.8172 4.94731L14.3158 5.14016Z" fill="white"/>
<path d="M16.1664 3.09582C16.0893 2.86439 16.0893 2.63297 16.1279 2.44011C16.1664 2.28582 16.205 2.17011 16.2822 2.0544C16.3593 1.93868 16.4364 1.82297 16.5522 1.74583C16.6679 1.63011 16.8607 1.55297 17.0536 1.5144C17.4007 1.43726 17.7093 1.47583 17.9793 1.63011C18.2107 1.86154 18.4036 2.13154 18.4807 2.51725C18.5579 2.90296 18.5579 3.2501 18.4036 3.5201C18.2493 3.7901 17.9793 3.98296 17.6322 4.0601C17.285 4.13724 16.9764 4.09867 16.7064 3.94439C16.4364 3.75153 16.2436 3.48153 16.1664 3.09582ZM16.6293 2.98011C16.7064 3.2501 16.8222 3.44296 16.9764 3.55867C17.1307 3.67439 17.3236 3.71296 17.5164 3.63582C17.7093 3.59724 17.8636 3.48153 17.9407 3.32725C18.0179 3.17296 18.0564 2.94153 17.9793 2.63297C17.9022 2.36297 17.7864 2.17011 17.6322 2.0544C17.4779 1.93868 17.285 1.93868 17.0922 1.97726C16.8993 2.01583 16.745 2.13154 16.6679 2.28582C16.5907 2.44011 16.5907 2.67154 16.6293 2.98011Z" fill="white"/>
<path d="M19.0986 3.67459L18.79 1.20604L20.4872 1.01318L20.5257 1.43747L19.3686 1.59175L19.4457 2.17032L20.4872 2.05461L20.5257 2.47889L19.4843 2.5946L19.6 3.63602L19.0986 3.67459Z" fill="white"/>
<path d="M22.6079 3.48149L22.685 1.43722L21.9521 1.39865V0.974365L23.9193 1.05151V1.47579L23.1864 1.43722L23.1097 3.48149H22.6079Z" fill="white"/>
<path d="M24.1123 3.55889L24.498 1.09033L25.5394 1.24462C25.8098 1.28319 26.0027 1.32176 26.118 1.3989C26.2337 1.47604 26.3109 1.55319 26.3494 1.6689C26.388 1.78461 26.4266 1.9389 26.3884 2.05461C26.3494 2.24747 26.2723 2.40175 26.1566 2.47889C26.0409 2.59461 25.848 2.63318 25.617 2.63318C25.7323 2.71032 25.8098 2.78746 25.8484 2.86461C25.9251 2.94175 25.9641 3.09603 26.0798 3.28889L26.3112 3.82889L25.6937 3.79031L25.4241 3.21175C25.308 3.01889 25.2698 2.86461 25.2313 2.82604C25.1923 2.78746 25.1537 2.71032 25.1152 2.67175C25.0384 2.63318 24.9609 2.63318 24.8455 2.59461H24.7294L24.5752 3.63603L24.1123 3.55889ZM24.8066 2.2089L25.1923 2.24747C25.4241 2.28604 25.578 2.28604 25.6552 2.28604C25.7319 2.28604 25.7709 2.24747 25.8094 2.2089C25.848 2.17033 25.8866 2.09318 25.8866 2.01604C25.8866 1.9389 25.8866 1.86176 25.848 1.82318C25.8094 1.78461 25.7709 1.70747 25.6937 1.70747C25.6552 1.70747 25.5394 1.6689 25.3466 1.63033L24.9609 1.55319L24.8066 2.2089Z" fill="white"/>
<path d="M28.6639 4.56155L28.1243 4.40726L28.0853 3.79012L27.121 3.52012L26.7743 4.02155L26.2725 3.86726L27.8924 1.74585L28.3939 1.90013L28.6639 4.56155ZM28.0467 3.36584L27.9696 2.40156L27.391 3.17298L28.0467 3.36584Z" fill="white"/>
<path d="M28.8184 4.67756L29.8212 2.40186L30.2841 2.59471L30.5537 4.52327L31.2098 3.01899L31.6341 3.21185L30.6312 5.48755L30.1684 5.25612L29.8984 3.36613L29.2426 4.83184L28.8184 4.67756Z" fill="white"/>
<path d="M31.3634 4.90871L31.7881 5.10156C31.7105 5.25585 31.7105 5.41013 31.7491 5.48728C31.7881 5.56442 31.8648 5.68013 32.0191 5.75727C32.1734 5.83442 32.2887 5.87299 32.3662 5.87299C32.443 5.87299 32.5591 5.79585 32.5977 5.7187C32.6362 5.68013 32.6362 5.60299 32.6362 5.56442C32.6362 5.52585 32.5977 5.4487 32.5205 5.37156C32.4819 5.33299 32.3666 5.21728 32.2505 5.06299C32.0577 4.87014 31.942 4.71585 31.9034 4.56157C31.8266 4.36871 31.8648 4.17586 31.9809 4.02157C32.0577 3.90586 32.1348 3.82871 32.2505 3.79014C32.3666 3.75157 32.4819 3.713 32.6362 3.75157C32.7905 3.79014 32.9452 3.82871 33.0991 3.94443C33.3691 4.09871 33.5238 4.29157 33.6005 4.48443C33.6777 4.67728 33.6391 4.87014 33.5238 5.06299L33.0991 4.83157C33.138 4.71585 33.138 4.60014 33.138 4.523C33.0991 4.44585 33.0219 4.36871 32.9062 4.29157C32.7905 4.21443 32.6748 4.17586 32.5595 4.17586C32.4819 4.17586 32.4434 4.21443 32.4048 4.253C32.3662 4.29157 32.3662 4.36871 32.4048 4.40728C32.4434 4.48443 32.5205 4.60014 32.7134 4.79299C32.9062 4.98585 33.0219 5.10156 33.0991 5.21728C33.1762 5.33299 33.2148 5.4487 33.2148 5.56442C33.2148 5.68013 33.1762 5.83442 33.0991 5.95013C33.0219 6.06584 32.9062 6.18156 32.7905 6.22013C32.6744 6.29727 32.5205 6.29727 32.3662 6.29727C32.2119 6.29727 32.0573 6.22013 31.8644 6.10441C31.5948 5.95013 31.4401 5.75727 31.363 5.56442C31.2095 5.41013 31.2477 5.17871 31.3634 4.90871Z" fill="white"/>
<path d="M32.9463 6.83749L34.4502 4.87036L35.1059 5.37179C35.3373 5.56464 35.4916 5.68036 35.5684 5.7575C35.6459 5.87321 35.6845 6.0275 35.6845 6.18178C35.6845 6.33607 35.6073 6.49035 35.4916 6.64464C35.4145 6.76035 35.2987 6.83749 35.1826 6.91463C35.0673 6.99178 34.9512 6.99178 34.8745 6.99178C34.7584 6.99178 34.6816 6.95321 34.6041 6.91463C34.4888 6.87606 34.3345 6.76035 34.1798 6.60606L33.9102 6.41321L33.3316 7.14606L32.9463 6.83749ZM34.6045 5.52607L34.1802 6.06607L34.4116 6.22035C34.5659 6.33607 34.682 6.41321 34.7588 6.41321C34.8359 6.41321 34.8749 6.45178 34.9516 6.41321C35.0287 6.37464 35.0677 6.33607 35.1059 6.29749C35.1445 6.22035 35.183 6.14321 35.183 6.06607C35.183 5.98893 35.1445 5.91178 35.1063 5.87321C35.0681 5.83464 34.9902 5.7575 34.8363 5.64178L34.6045 5.52607Z" fill="white"/>
<path d="M35.5295 7.30026C35.7224 7.1074 35.8767 6.99169 36.0695 6.91454C36.1853 6.87597 36.3392 6.8374 36.4552 6.8374C36.6095 6.8374 36.7249 6.87597 36.841 6.91454C36.9952 6.99169 37.1495 7.06883 37.3034 7.22311C37.5738 7.49311 37.6891 7.76311 37.6891 8.07168C37.6891 8.38025 37.5352 8.68882 37.2649 8.95882C36.9952 9.22882 36.6863 9.3831 36.3777 9.3831C36.0692 9.3831 35.7602 9.26739 35.5292 8.99739C35.2595 8.72739 35.1434 8.45739 35.1434 8.14882C35.1053 7.87882 35.2599 7.57026 35.5295 7.30026ZM35.9153 7.6474C35.7224 7.84025 35.6067 8.03311 35.6067 8.22596C35.6067 8.41882 35.6456 8.57311 35.7995 8.72739C35.9534 8.88167 36.1081 8.92025 36.301 8.92025C36.4938 8.92025 36.6867 8.80453 36.8795 8.61168C37.0724 8.41882 37.1885 8.22596 37.1885 8.03311C37.1885 7.84025 37.1495 7.68597 36.9956 7.53168C36.8413 7.3774 36.6867 7.30026 36.4938 7.33883C36.301 7.33883 36.1081 7.45454 35.9153 7.6474Z" fill="white"/>
<path d="M36.5713 10.1161L38.5388 8.61182L39.1941 9.46038C39.3484 9.65324 39.4641 9.84609 39.5031 9.96181C39.5417 10.0775 39.5417 10.1932 39.5031 10.3475C39.4641 10.4632 39.387 10.5789 39.2713 10.6561C39.1174 10.7718 38.9627 10.8104 38.8084 10.8104C38.6541 10.8104 38.4998 10.6947 38.3459 10.5404C38.3459 10.6561 38.3459 10.7718 38.3459 10.8875C38.3459 11.0032 38.2684 11.1575 38.1917 11.3504L37.9988 11.8904L37.6517 11.4275L37.8445 10.8104C37.9217 10.5789 37.9606 10.4632 37.9606 10.3861C37.9606 10.3089 37.9606 10.2704 37.9606 10.1932C37.9606 10.1161 37.8831 10.0775 37.8445 9.96181L37.7678 9.88467L36.957 10.5018L36.5713 10.1161ZM37.9984 9.65324L38.2299 9.96181C38.3841 10.1547 38.4613 10.2704 38.5388 10.3089C38.577 10.3475 38.6541 10.3475 38.6927 10.3475C38.7698 10.3475 38.8084 10.3089 38.8856 10.2704C38.9627 10.2318 39.0013 10.1547 39.0013 10.0775C39.0013 10.0004 39.0013 9.92324 38.9627 9.88467C38.9241 9.84609 38.8856 9.76895 38.7313 9.5761L38.4995 9.26753L37.9984 9.65324Z" fill="white"/>
<path d="M38.3066 12.5846L40.0813 11.5431L39.6956 10.926L40.0423 10.6946L41.0456 12.3917L40.6984 12.6231L40.3127 12.006L38.5385 13.0474L38.3066 12.5846Z" fill="white"/>
<path d="M39.8499 15.67L39.6181 15.1685L40.0428 14.7443L39.6181 13.8571L39.001 13.8957L38.7695 13.3943L41.4309 13.24L41.6624 13.7414L39.8499 15.67ZM40.3513 14.4357L41.046 13.7414L40.0817 13.8186L40.3513 14.4357Z" fill="white"/>
<path d="M40.0039 16.1715L41.9714 15.5158L41.7396 14.8215L42.1253 14.7058L42.7428 16.5958L42.3571 16.7115L42.1253 16.0172L40.1582 16.6729L40.0039 16.1715Z" fill="white"/>
<path d="M40.4277 17.56L42.8577 16.9814L42.9738 17.4829L40.5434 18.0614L40.4277 17.56Z" fill="white"/>
<path d="M41.8553 18.1771C42.0867 18.1386 42.3178 18.1386 42.5106 18.1771C42.6267 18.2157 42.781 18.2543 42.8964 18.37C43.0125 18.4471 43.0892 18.5628 43.1667 18.64C43.2435 18.7943 43.3206 18.9485 43.3596 19.1414C43.3982 19.4885 43.3596 19.7971 43.1667 20.0671C42.9739 20.3371 42.6649 20.4914 42.2792 20.53C41.8935 20.6071 41.5464 20.53 41.3149 20.3371C41.0453 20.1443 40.8906 19.8743 40.8525 19.5271C40.8135 19.18 40.8525 18.8714 41.0453 18.6014C41.2386 18.3314 41.4696 18.2157 41.8553 18.1771ZM41.9325 18.6785C41.6628 18.7171 41.47 18.8328 41.3153 18.9485C41.1996 19.1028 41.161 19.2571 41.161 19.4885C41.161 19.72 41.2771 19.8357 41.4314 19.9514C41.5853 20.0671 41.8171 20.1057 42.0867 20.0285C42.3567 19.99 42.5496 19.8743 42.7039 19.7585C42.82 19.6043 42.8582 19.45 42.82 19.2185C42.7814 19.0257 42.7039 18.8714 42.55 18.7557C42.4725 18.6785 42.241 18.64 41.9325 18.6785Z" fill="white"/>
<path d="M41.0068 21.0701L43.475 21.0315V21.5329L41.8168 22.5747L43.4754 22.5358V22.9986L41.0072 23.0372V22.5358L42.6272 21.4943L41.0072 21.5329V21.0701H41.0068Z" fill="white"/>
<path d="M38.1642 15.7941C35.5747 9.45707 29.3912 5.01245 22.1256 5.01245C18.4539 5.01245 15.0934 6.13295 12.2725 8.06478C13.2384 7.75561 14.3205 7.60102 15.4016 7.60102C22.165 7.60102 25.7579 11.6971 25.7579 17.6098C25.7579 18.0341 25.7195 18.4201 25.6801 18.8071C25.6023 19.3092 25.5629 19.8508 25.5629 20.3923C25.5629 23.7518 28.6546 26.8435 32.3647 26.8435C36.8871 26.8446 40.3638 20.6995 38.1642 15.7941Z" fill="white"/>
<path d="M8.48619 11.6975C4.31234 17.108 3.53941 24.6787 7.1717 30.94C8.98835 34.1095 11.6931 36.4647 14.7454 37.9338C14.0109 37.2397 13.3158 36.3879 12.7742 35.4594C9.37329 29.5881 11.1516 24.4494 16.2519 21.5112C16.6005 21.3182 16.9854 21.1263 17.334 20.9696C17.7978 20.7767 18.2999 20.5453 18.7627 20.2745C21.6614 18.6135 22.8224 14.4012 20.9279 11.1559C18.7243 7.29225 11.6537 7.33065 8.48619 11.6975Z" fill="white"/>
<path d="M19.7688 39.4406C19.8082 39.4406 19.8082 39.4406 19.7688 39.4406C26.5302 40.3702 33.4876 37.2006 37.1209 30.9404C38.9355 27.7708 39.6711 24.2547 39.3599 20.8953C39.1305 21.8996 38.7415 22.8655 38.201 23.8314C34.8395 29.7067 29.5098 30.7504 24.4094 27.7719C24.0588 27.5809 23.7123 27.3465 23.4051 27.1171C22.9767 26.8059 22.5524 26.4978 22.0886 26.225C19.1909 24.567 14.9786 25.6844 13.1236 28.8924C10.8432 32.7974 14.4371 38.9021 19.7688 39.4406Z" fill="white"/>
</svg>
