<svg width="33" height="21" viewBox="0 0 33 21" fill="none" xmlns="http://www.w3.org/2000/svg">
<path d="M27.9826 13.3254C27.9805 13.6359 27.8562 13.9332 27.6366 14.1528C27.4171 14.3723 27.1198 14.4966 26.8093 14.4987H22.0786C21.768 14.497 21.4705 14.3728 21.2509 14.1531C21.0312 13.9335 20.907 13.636 20.9053 13.3254C20.9074 13.0149 21.0317 12.7176 21.2513 12.498C21.4709 12.2785 21.7681 12.1542 22.0786 12.1521H26.8093C27.1196 12.1549 27.4164 12.2794 27.6359 12.4988C27.8553 12.7182 27.9798 13.0151 27.9826 13.3254ZM11.4813 13.3254C11.4795 13.636 11.3554 13.9335 11.1357 14.1531C10.916 14.3728 10.6186 14.497 10.308 14.4987H5.57729C5.26664 14.497 4.96921 14.3728 4.74955 14.1531C4.52989 13.9335 4.4057 13.636 4.40395 13.3254C4.40605 13.0149 4.53034 12.7176 4.74993 12.498C4.96952 12.2785 5.26675 12.1542 5.57729 12.1521H10.308C10.6183 12.1545 10.9151 12.279 11.1345 12.4985C11.3538 12.7181 11.4779 13.0151 11.48 13.3254H11.4813ZM9.02795 2.43607H24.2333L26.0986 7.1854C26.0693 7.1854 26.04 7.18007 26.0066 7.18007H7.16129L9.02795 2.43607ZM32.6013 6.04407C32.5242 5.58093 32.2665 5.16729 31.8848 4.89384C31.5032 4.6204 31.0286 4.50948 30.5653 4.5854L30.576 4.58407L27.6653 5.05873C27.6226 5.06676 27.5807 5.07836 27.54 5.0934L27.5466 5.09074L25.672 0.320068H7.58395L5.70929 5.09074C5.67143 5.07767 5.63266 5.06742 5.59329 5.06007L2.67995 4.58407C2.21954 4.51177 1.74916 4.62334 1.37027 4.89473C0.991383 5.16611 0.734352 5.57555 0.654621 6.03474L0.653288 6.0454C0.580631 6.50586 0.692064 6.97642 0.963509 7.3554C1.23495 7.73437 1.64461 7.99133 2.10395 8.07073L2.11462 8.07207L3.80929 8.35073C2.73348 9.38336 2.11028 10.7999 2.07595 12.2907V20.4121H7.94262V17.3454H24.5146V20.4121H30.3813V16.0814C30.4053 15.9801 30.4186 15.8641 30.4186 15.7441V12.2961C30.3862 10.8588 29.8079 9.48777 28.8013 8.4614L28.8026 8.46274L31.1573 8.07607C31.6201 7.99864 32.0333 7.7408 32.3063 7.35912C32.5792 6.97743 32.6896 6.50306 32.6133 6.04007L32.6146 6.05074L32.6013 6.04407Z" fill="#9CA3AF"/>
</svg>
