<svg width="24" height="25" viewBox="0 0 24 25" fill="none" xmlns="http://www.w3.org/2000/svg">
<g clip-path="url(#clip0_286_17115)">
<path d="M22.2283 0.172363H1.77167C1.30179 0.172363 0.851161 0.359021 0.518909 0.691273C0.186657 1.02352 0 1.47415 0 1.94403V22.4007C0 22.8706 0.186657 23.3212 0.518909 23.6535C0.851161 23.9857 1.30179 24.1724 1.77167 24.1724H22.2283C22.6982 24.1724 23.1488 23.9857 23.4811 23.6535C23.8133 23.3212 24 22.8706 24 22.4007V1.94403C24 1.47415 23.8133 1.02352 23.4811 0.691273C23.1488 0.359021 22.6982 0.172363 22.2283 0.172363ZM7.15333 20.6174H3.545V9.1557H7.15333V20.6174ZM5.34667 7.56736C4.93736 7.56506 4.53792 7.44156 4.19873 7.21245C3.85955 6.98334 3.59584 6.65889 3.44088 6.28005C3.28591 5.90121 3.24665 5.48496 3.32803 5.08382C3.40941 4.68268 3.6078 4.31464 3.89816 4.02614C4.18851 3.73765 4.55781 3.54163 4.95947 3.46282C5.36112 3.38402 5.77711 3.42596 6.15495 3.58335C6.53279 3.74074 6.85554 4.00653 7.08247 4.34718C7.30939 4.68782 7.43032 5.08805 7.43 5.49736C7.43386 5.7714 7.38251 6.0434 7.27901 6.29717C7.17551 6.55093 7.02198 6.78126 6.82757 6.97443C6.63316 7.1676 6.40185 7.31965 6.14742 7.42151C5.893 7.52338 5.62067 7.57298 5.34667 7.56736ZM20.4533 20.6274H16.8467V14.3657C16.8467 12.519 16.0617 11.949 15.0483 11.949C13.9783 11.949 12.9283 12.7557 12.9283 14.4124V20.6274H9.32V9.16403H12.79V10.7524H12.8367C13.185 10.0474 14.405 8.84236 16.2667 8.84236C18.28 8.84236 20.455 10.0374 20.455 13.5374L20.4533 20.6274Z" fill="#0A66C2"/>
</g>
<defs>
<clipPath id="clip0_286_17115">
<rect width="24" height="24" fill="white" transform="translate(0 0.172363)"/>
</clipPath>
</defs>
</svg>
