<svg width="18" height="22" viewBox="0 0 18 22" fill="none" xmlns="http://www.w3.org/2000/svg">
<path d="M14.6569 15.3307C13.7202 16.2673 11.7616 18.226 10.4138 19.5737C9.63275 20.3548 8.36768 20.3552 7.58663 19.5742C6.26234 18.2499 4.34159 16.3291 3.34315 15.3307C0.218951 12.2065 0.218951 7.14117 3.34315 4.01697C6.46734 0.89278 11.5327 0.89278 14.6569 4.01697C17.781 7.14117 17.781 12.2065 14.6569 15.3307Z" stroke="#27273F" stroke-width="2" stroke-linecap="round" stroke-linejoin="round"/>
<path d="M12 9.67383C12 11.3307 10.6569 12.6738 9 12.6738C7.34315 12.6738 6 11.3307 6 9.67383C6 8.01697 7.34315 6.67383 9 6.67383C10.6569 6.67383 12 8.01697 12 9.67383Z" stroke="#27273F" stroke-width="2" stroke-linecap="round" stroke-linejoin="round"/>
</svg>
