<svg width="26" height="28" viewBox="0 0 26 28" fill="none" xmlns="http://www.w3.org/2000/svg">
<path d="M25.6294 17.4269C25.6294 16.9469 25.3761 16.5069 24.9761 16.2402L14.9627 9.9869V2.65356C14.9627 1.5469 14.0694 0.653564 12.9627 0.653564C11.8561 0.653564 10.9627 1.5469 10.9627 2.65356V9.9869L0.949405 16.2402C0.663992 16.4221 0.454123 16.7012 0.358637 17.0259C0.26315 17.3506 0.288511 17.6989 0.430025 18.0063C0.57154 18.3137 0.819628 18.5595 1.12838 18.6981C1.43713 18.8367 1.78563 18.8588 2.10941 18.7602L10.9627 15.9869V23.3202L8.56274 25.1202C8.47834 25.1808 8.40996 25.261 8.3635 25.3539C8.31704 25.4469 8.2939 25.5497 8.29607 25.6536V26.4402C8.29607 26.8802 8.72274 27.2002 9.14941 27.0802L12.9627 25.9869L16.7761 27.0802C17.2027 27.2002 17.6294 26.8802 17.6294 26.4402V25.6536C17.6316 25.5497 17.6084 25.4469 17.562 25.3539C17.5155 25.261 17.4471 25.1808 17.3627 25.1202L14.9627 23.3202V15.9869L23.8161 18.7602C24.7227 19.0402 25.6294 18.3602 25.6294 17.4269Z" fill="#9CA3AF"/>
</svg>
