<svg width="24" height="21" viewBox="0 0 24 21" fill="none" xmlns="http://www.w3.org/2000/svg">
<path d="M7.55016 20.4238C16.6045 20.4238 21.5583 12.9205 21.5583 6.41569C21.5583 6.20475 21.5536 5.98913 21.5442 5.77819C22.5079 5.08129 23.3395 4.21808 24 3.22913C23.1025 3.62843 22.1496 3.88921 21.1739 4.00256C22.2013 3.38674 22.9705 2.4193 23.3391 1.27959C22.3726 1.85239 21.3156 2.25644 20.2134 2.47444C19.4708 1.68539 18.489 1.16294 17.4197 0.987879C16.3504 0.812814 15.2532 0.994879 14.2977 1.50592C13.3423 2.01697 12.5818 2.82853 12.1338 3.81514C11.6859 4.80175 11.5754 5.90844 11.8195 6.96413C9.86249 6.86592 7.94794 6.35753 6.19998 5.47193C4.45203 4.58632 2.90969 3.34326 1.67297 1.82335C1.0444 2.90707 0.852057 4.18947 1.13503 5.40992C1.418 6.63037 2.15506 7.69728 3.19641 8.39381C2.41463 8.36899 1.64998 8.15851 0.965625 7.77975V7.84069C0.964925 8.97798 1.3581 10.0804 2.07831 10.9606C2.79852 11.8408 3.80132 12.4444 4.91625 12.6688C4.19206 12.867 3.43198 12.8958 2.69484 12.7532C3.00945 13.7313 3.62157 14.5867 4.44577 15.2002C5.26997 15.8136 6.26512 16.1544 7.29234 16.1751C5.54842 17.5449 3.39417 18.288 1.17656 18.2844C0.783287 18.2838 0.390399 18.2597 0 18.2123C2.25286 19.6576 4.87353 20.4252 7.55016 20.4238Z" fill="#9CA3AF"/>
</svg>
