<svg width="24" height="25" viewBox="0 0 24 25" fill="none" xmlns="http://www.w3.org/2000/svg">
<path d="M23.7671 7.69391C23.7538 6.69108 23.5661 5.69823 23.2124 4.75976C22.9056 3.96816 22.4372 3.24925 21.8369 2.64896C21.2366 2.04866 20.5177 1.58019 19.7261 1.27347C18.7997 0.925708 17.821 0.737668 16.8316 0.717355C15.5579 0.66042 15.154 0.644531 11.9206 0.644531C8.68726 0.644531 8.27282 0.644531 7.00833 0.717355C6.01945 0.737818 5.04121 0.925855 4.11522 1.27347C3.3235 1.57998 2.60448 2.04837 2.00416 2.64869C1.40384 3.24901 0.935445 3.96804 0.628935 4.75976C0.28048 5.68546 0.0928483 6.66392 0.0741482 7.65286C0.017213 8.92794 0 9.33179 0 12.5652C0 15.7986 -9.86513e-09 16.2117 0.0741482 17.4775C0.0940093 18.4679 0.280704 19.4451 0.628935 20.3732C0.935959 21.1647 1.40471 21.8835 2.00523 22.4835C2.60575 23.0836 3.32484 23.5518 4.11655 23.8582C5.04 24.2199 6.01841 24.4214 7.00965 24.454C8.28474 24.511 8.68858 24.5282 11.922 24.5282C15.1554 24.5282 15.5698 24.5282 16.8343 24.454C17.8236 24.4346 18.8023 24.247 19.7287 23.8993C20.5201 23.5922 21.2388 23.1236 21.8391 22.5233C22.4393 21.9231 22.9079 21.2044 23.215 20.413C23.5632 19.4861 23.7499 18.5089 23.7698 17.5172C23.8267 16.2435 23.8439 15.8396 23.8439 12.6049C23.8413 9.37151 23.8413 8.96105 23.7671 7.69391ZM11.9127 18.6798C8.53102 18.6798 5.7915 15.9402 5.7915 12.5586C5.7915 9.17687 8.53102 6.43736 11.9127 6.43736C13.5361 6.43736 15.0931 7.08227 16.241 8.23022C17.389 9.37816 18.0339 10.9351 18.0339 12.5586C18.0339 14.182 17.389 15.7389 16.241 16.8869C15.0931 18.0348 13.5361 18.6798 11.9127 18.6798ZM18.2775 7.63829C18.09 7.63847 17.9044 7.60167 17.7311 7.53C17.5578 7.45833 17.4004 7.3532 17.2679 7.22062C17.1353 7.08804 17.0301 6.93062 16.9585 6.75737C16.8868 6.58412 16.85 6.39843 16.8502 6.21094C16.8502 6.02359 16.8871 5.83807 16.9588 5.66497C17.0305 5.49188 17.1356 5.3346 17.268 5.20212C17.4005 5.06964 17.5578 4.96455 17.7309 4.89285C17.904 4.82115 18.0895 4.78425 18.2769 4.78425C18.4642 4.78425 18.6497 4.82115 18.8228 4.89285C18.9959 4.96455 19.1532 5.06964 19.2857 5.20212C19.4182 5.3346 19.5233 5.49188 19.595 5.66497C19.6667 5.83807 19.7036 6.02359 19.7036 6.21094C19.7036 7.00009 19.0654 7.63829 18.2775 7.63829Z" fill="#9CA3AF"/>
</svg>
