<svg width="42" height="33" viewBox="0 0 42 33" fill="none" xmlns="http://www.w3.org/2000/svg">
<path d="M19.3265 23.6393C19.3265 25.9692 18.4267 27.9715 16.6272 29.6461C14.8997 31.2479 12.7044 32.0488 10.0411 32.0488C6.94602 32.0488 4.49871 30.9567 2.69923 28.7724C0.899743 26.5881 0 24.0033 0 21.0181C0 14.2468 1.83548 9.15008 5.50643 5.72801C9.17738 2.30594 13.2442 0.412878 17.7069 0.0488281V7.47545C15.5476 7.69388 13.4961 8.5676 11.5527 10.0966C9.68123 11.6256 8.67352 13.5551 8.52956 15.885C9.24936 15.521 10.0411 15.3389 10.9049 15.3389C13.5681 15.3389 15.6195 16.1034 17.0591 17.6324C18.5707 19.1615 19.3265 21.1637 19.3265 23.6393ZM42 23.6393C42 25.9692 41.1003 27.9715 39.3008 29.6461C37.5733 31.2479 35.3779 32.0488 32.7147 32.0488C29.6195 32.0488 27.1722 30.9567 25.3727 28.7724C23.6452 26.5881 22.7815 24.0033 22.7815 21.0181C22.7815 14.2468 24.581 9.15008 28.18 5.72801C31.8509 2.30594 35.9177 0.412878 40.3805 0.0488281V7.47545C38.2211 7.69388 36.1697 8.5676 34.2262 10.0966C32.3548 11.6256 31.347 13.5551 31.2031 15.885C31.9229 15.521 32.7147 15.3389 33.5784 15.3389C36.2416 15.3389 38.2931 16.1034 39.7326 17.6324C41.2442 19.1615 42 21.1637 42 23.6393Z" fill="#E5E5E5"/>
</svg>
