<svg width="40" height="39" viewBox="0 0 40 39" fill="none" xmlns="http://www.w3.org/2000/svg">
<path d="M29.7873 20.1621C29.8829 19.936 29.9322 19.6931 29.9322 19.4477L29.9313 19.3942C29.9171 18.9081 29.7104 18.4474 29.3565 18.1137C29.0027 17.7799 28.5308 17.6003 28.0447 17.6145L23.632 17.7434L20.4971 11.2627L20.428 11.1337C20.1517 10.6795 19.6561 10.3967 19.1172 10.3967C18.6464 10.3967 18.2641 10.779 18.2641 11.2498L18.2659 11.3004C18.267 11.3174 18.2685 11.3343 18.2706 11.3511L19.0527 17.877L15.1739 17.9783C14.64 18.0118 13.4977 18.0942 13.1993 18.1561L12.4531 18.3109C12.1917 18.3653 11.9571 18.5081 11.7887 18.7152C11.6203 18.9224 11.5283 19.1812 11.5283 19.4481C11.5283 19.7151 11.6203 19.9739 11.7887 20.181C11.9571 20.3881 12.1917 20.5309 12.4531 20.5854L13.1993 20.7411L15.2142 20.9161L19.0646 21.0174L18.2706 27.6437C18.2561 27.7635 18.2672 27.885 18.3031 28.0001C18.3391 28.1153 18.399 28.2215 18.479 28.3118C18.559 28.402 18.6573 28.4743 18.7673 28.5238C18.8773 28.5734 18.9965 28.599 19.1172 28.599C19.7049 28.599 20.242 28.2619 20.4971 27.7331L23.679 21.1528L28.0437 21.2809C28.2891 21.2882 28.5333 21.2461 28.7621 21.1573C28.9909 21.0684 29.1995 20.9346 29.3756 20.7636C29.5517 20.5927 29.6917 20.3881 29.7873 20.1621Z" fill="white"/>
<path d="M27.1695 17.6345C33.0579 16.9278 35.2039 21.4711 27.3475 21.2671L27.1695 17.6345Z" fill="white"/>
<rect x="16.9906" y="20.9829" width="1.43234" height="4.04141" rx="0.716171" transform="rotate(93.5852 16.9906 20.9829)" fill="white"/>
<rect x="16.7472" y="16.5156" width="1.43234" height="4.04141" rx="0.716171" transform="rotate(87.2662 16.7472 16.5156)" fill="white"/>
<path fill-rule="evenodd" clip-rule="evenodd" d="M11.8012 18.3958C11.7697 18.3598 11.7451 18.3183 11.7288 18.2734L10.3328 14.4254C10.2951 14.3217 10.2107 14.2418 10.1051 14.21C9.86814 14.1387 9.63419 14.3294 9.65636 14.5759L10.0001 18.3969C10.0004 18.4004 10.0031 18.4032 10.0066 18.4036C10.0102 18.4041 10.0129 18.407 10.0131 18.4106L10.1138 20.4542C10.1138 20.4545 10.1136 20.4548 10.1132 20.4548C10.1129 20.4549 10.1127 20.4551 10.1127 20.4554L9.88007 24.2904C9.86509 24.5374 10.1045 24.7212 10.3392 24.643C10.4439 24.6081 10.526 24.5259 10.5606 24.4211L11.7707 20.756C11.8152 20.6211 11.9304 20.5218 12.0703 20.4975L12.1921 20.4764C12.4235 20.4362 12.5652 20.1999 12.4918 19.9769L12.0977 18.7804C12.0815 18.7313 12.0556 18.686 12.0216 18.6472L11.8012 18.3958Z" fill="white"/>
<circle cx="20.1969" cy="19.4981" r="18.5208" stroke="white" stroke-width="1.75"/>
</svg>
