<svg
                    width="25"
                    height="25"
                    viewBox="0 0 25 25"
                    fill="none"
                    xmlns="http://www.w3.org/2000/svg"
                  >
                    <path
                      d="M22.7254 0.207275H2.27383C1.29414 0.207275 0.501953 0.980713 0.501953 1.93696V22.4729C0.501953 23.4291 1.29414 24.2073 2.27383 24.2073H22.7254C23.7051 24.2073 24.502 23.4292 24.502 22.4776V1.93696C24.502 0.980713 23.7051 0.207275 22.7254 0.207275ZM7.62227 20.6588H4.05977V9.20259H7.62227V20.6588ZM5.84102 7.64165C4.69727 7.64165 3.77383 6.71821 3.77383 5.57915C3.77383 4.44009 4.69727 3.51665 5.84102 3.51665C6.98008 3.51665 7.90352 4.44009 7.90352 5.57915C7.90352 6.71353 6.98008 7.64165 5.84102 7.64165ZM20.9535 20.6588H17.3957V15.0901C17.3957 13.7635 17.3723 12.0526 15.5441 12.0526C13.6926 12.0526 13.4113 13.501 13.4113 14.9963V20.6588H9.8582V9.20259H13.2707V10.7682H13.3176C13.791 9.86821 14.9535 8.91665 16.6832 8.91665C20.2879 8.91665 20.9535 11.2885 20.9535 14.3729V20.6588Z"
                      fill="#9CA3AF"
                    />
                  </svg>