          <svg width="24" height="25" viewBox="0 0 24 25" fill="none" xmlns="http://www.w3.org/2000/svg">
            <path d="M0 12.5C0 19.1274 5.37258 24.5 12 24.5C18.6274 24.5 24 19.1274 24 12.5C24 5.87258 18.6274 0.5 12 0.5C5.37258 0.5 0 5.87258 0 12.5Z" fill="#141426"/>
            <path d="M8.41333 11.6933C9.37333 13.58 10.92 15.12 12.8067 16.0867L14.2733 14.62C14.4533 14.44 14.72 14.38 14.9533 14.46C15.7 14.7067 16.5067 14.84 17.3333 14.84C17.7 14.84 18 15.14 18 15.5067V17.8333C18 18.2 17.7 18.5 17.3333 18.5C11.0733 18.5 6 13.4267 6 7.16667C6 6.8 6.3 6.5 6.66667 6.5H9C9.36667 6.5 9.66667 6.8 9.66667 7.16667C9.66667 8 9.8 8.8 10.0467 9.54667C10.12 9.78 10.0667 10.04 9.88 10.2267L8.41333 11.6933Z" fill="white"/>
          </svg>