<svg width="25" height="25" viewBox="0 0 25 25" fill="none" xmlns="http://www.w3.org/2000/svg">
<path d="M0.709717 12.2109C0.709717 18.8384 6.0823 24.2109 12.7097 24.2109C19.3371 24.2109 24.7097 18.8384 24.7097 12.2109C24.7097 5.58352 19.3371 0.210938 12.7097 0.210938C6.0823 0.210938 0.709717 5.58352 0.709717 12.2109Z" fill="#25D366"/>
<path fill-rule="evenodd" clip-rule="evenodd" d="M16.9097 7.93594C15.7847 6.81094 14.2847 6.21094 12.7097 6.21094C9.40972 6.21094 6.70972 8.91094 6.70972 12.2109C6.70972 13.2609 7.00972 14.3109 7.53472 15.2109L6.70972 18.2109L9.85973 17.3859C10.7597 17.8359 11.7347 18.1359 12.7097 18.1359C16.0097 18.1359 18.7097 15.4359 18.7097 12.1359C18.7097 10.5609 18.0347 9.06094 16.9097 7.93594ZM12.7097 17.1609C11.8097 17.1609 10.9097 16.9359 10.1597 16.4859L10.0097 16.4109L8.13471 16.9359L8.65972 15.1359L8.50971 14.9109C7.98471 14.0859 7.75971 13.1859 7.75971 12.2859C7.75971 9.58594 10.0097 7.33594 12.7097 7.33594C14.0597 7.33594 15.2597 7.86094 16.2347 8.76094C17.2097 9.73594 17.6597 10.9359 17.6597 12.2859C17.6597 14.9109 15.4847 17.1609 12.7097 17.1609ZM15.4097 13.4109C15.2597 13.3359 14.5097 12.9609 14.3597 12.9609C14.2097 12.8859 14.1347 12.8859 14.0597 13.0359C13.9847 13.1859 13.6847 13.4859 13.6097 13.6359C13.5347 13.7109 13.4597 13.7109 13.3097 13.7109C13.1597 13.6359 12.7097 13.4859 12.1097 12.9609C11.6597 12.5859 11.3597 12.0609 11.2847 11.9109C11.2097 11.7609 11.2847 11.6859 11.3597 11.6109C11.4347 11.5359 11.5097 11.4609 11.5847 11.3859C11.6597 11.3109 11.6597 11.2359 11.7347 11.1609C11.8097 11.0859 11.7347 11.0109 11.7347 10.9359C11.7347 10.8609 11.4347 10.1109 11.2847 9.81094C11.2097 9.58594 11.0597 9.58594 10.9847 9.58594C10.9097 9.58594 10.8347 9.58594 10.6847 9.58594C10.6097 9.58594 10.4597 9.58594 10.3097 9.73594C10.1597 9.88594 9.78472 10.2609 9.78472 11.0109C9.78472 11.7609 10.3097 12.4359 10.3847 12.5859C10.4597 12.6609 11.4347 14.2359 12.9347 14.8359C14.2097 15.3609 14.4347 15.2109 14.7347 15.2109C15.0347 15.2109 15.6347 14.8359 15.7097 14.5359C15.8597 14.1609 15.8597 13.8609 15.7847 13.8609C15.7097 13.4859 15.5597 13.4859 15.4097 13.4109Z" fill="white"/>
</svg>
