<svg
                    width="25"
                    height="20"
                    viewBox="0 0 25 20"
                    fill="none"
                    xmlns="http://www.w3.org/2000/svg"
                  >
                    <path
                      d="M8.05211 19.9573C17.1065 19.9573 22.0602 12.454 22.0602 5.94914C22.0602 5.7382 22.0555 5.52257 22.0462 5.31164C23.0098 4.61474 23.8414 3.75153 24.502 2.76257C23.6045 3.16188 22.6516 3.42266 21.6759 3.53601C22.7032 2.92018 23.4725 1.95275 23.841 0.813042C22.8745 1.38583 21.8175 1.78989 20.7154 2.00789C19.9728 1.21884 18.9909 0.696392 17.9216 0.521326C16.8523 0.346261 15.7551 0.528326 14.7997 1.03937C13.8442 1.55042 13.0838 2.36198 12.6358 3.34859C12.1878 4.33519 12.0774 5.44189 12.3215 6.49757C10.3644 6.39937 8.44989 5.89098 6.70193 5.00537C4.95398 4.11977 3.41165 2.87671 2.17492 1.35679C1.54635 2.44052 1.35401 3.72292 1.63698 4.94337C1.91996 6.16381 2.65702 7.23072 3.69836 7.92726C2.91658 7.90244 2.15193 7.69196 1.46758 7.3132V7.37414C1.46688 8.51143 1.86005 9.61386 2.58026 10.494C3.30047 11.3742 4.30328 11.9778 5.4182 12.2023C4.69401 12.4004 3.93394 12.4293 3.1968 12.2866C3.51141 13.2647 4.12353 14.1202 4.94772 14.7336C5.77192 15.3471 6.76707 15.6879 7.7943 15.7085C6.05038 17.0784 3.89613 17.8214 1.67852 17.8179C1.28524 17.8173 0.892352 17.7932 0.501953 17.7457C2.75481 19.191 5.37548 19.9587 8.05211 19.9573Z"
                      fill="#9CA3AF"
                    />
                  </svg>