<svg width="130" height="38" viewBox="0 0 130 38" fill="none" xmlns="http://www.w3.org/2000/svg">
<path d="M3.89953 22.5916L4.02286 22.9619L3.00532 23.2702C2.85114 23.3316 2.7278 23.3624 2.69697 23.3624C2.6353 23.3933 2.57363 23.4549 2.5428 23.5474C2.51196 23.6091 2.51196 23.7016 2.5428 23.8246C2.57363 23.948 2.6353 24.01 2.69697 24.0408C2.75864 24.0716 2.82031 24.1025 2.88198 24.1025C2.94365 24.1025 3.06699 24.0716 3.22116 24.01L4.26954 23.7016L4.39288 24.0716L3.40617 24.38C3.19033 24.4413 3.00532 24.4725 2.91281 24.5033C2.82031 24.5341 2.7278 24.5033 2.6353 24.4722C2.5428 24.4416 2.48113 24.38 2.41946 24.2875C2.35779 24.1953 2.29612 24.1025 2.26528 23.9483C2.20361 23.7633 2.20361 23.6091 2.20361 23.5166C2.20361 23.4244 2.26528 23.3316 2.29612 23.2394C2.32695 23.1472 2.41946 23.1161 2.48113 23.0541C2.57363 22.9924 2.7278 22.9307 2.94365 22.8691L3.89953 22.5916Z" fill="white"/>
<path d="M2.66626 25.3051L4.48551 24.5034L4.63969 24.8731L3.74548 26.1377L4.94803 25.6138L5.10221 25.953L3.31379 26.7544L3.15962 26.3843L4.02299 25.1201L2.85127 25.6443L2.66626 25.3051Z" fill="white"/>
<path d="M3.62207 27.3402L5.34882 26.3538L5.53383 26.6929L3.83791 27.6793L3.62207 27.3402Z" fill="white"/>
<path d="M4.39307 28.6044L5.7498 27.6793L5.41061 27.186L5.68813 27.001L6.58233 28.296L6.30482 28.481L5.99647 28.0185L4.63974 28.9436L4.39307 28.6044Z" fill="white"/>
<path d="M5.25635 29.838L6.76725 28.5432L7.72313 29.6533L7.47645 29.838L6.76725 29.0363L6.42807 29.3138L7.0756 30.0538L6.82892 30.2697L6.18139 29.5296L5.78054 29.8999L6.52057 30.7322L6.27389 30.948L5.25635 29.838Z" fill="white"/>
<path d="M8.00053 29.8997L8.55555 30.393C8.67889 30.5164 8.7714 30.6085 8.80223 30.6705C8.8639 30.7627 8.89474 30.8861 8.89474 31.0097C8.89474 31.1334 8.8639 31.2564 8.83307 31.3794C8.7714 31.5028 8.67889 31.6264 8.55555 31.7806C8.43222 31.9039 8.33971 31.9961 8.21637 32.0581C8.09303 32.1195 7.93886 32.1811 7.81552 32.1811C7.72302 32.1811 7.59968 32.15 7.50717 32.1195C7.41467 32.0886 7.32216 32.0269 7.19882 31.9039L6.6438 31.4103L8.00053 29.8997ZM8.0622 30.4235L7.19882 31.4103L7.41467 31.5956C7.50717 31.6569 7.56884 31.7186 7.59968 31.7497C7.66135 31.7806 7.72302 31.8111 7.78469 31.7806C7.84635 31.7806 7.90802 31.7497 8.00053 31.7189C8.09303 31.6572 8.18554 31.5959 8.27804 31.4722C8.37055 31.3489 8.46305 31.2564 8.49389 31.1947C8.52472 31.1022 8.55555 31.0405 8.52472 30.9792C8.49389 30.9169 8.49389 30.8552 8.46305 30.7936C8.43222 30.7319 8.33971 30.6705 8.21637 30.5469L8.0622 30.4235Z" fill="white"/>
<path d="M9.48075 32.8292L9.81993 32.9833C9.75826 33.1064 9.75826 33.2297 9.78909 33.2917C9.81993 33.3531 9.8816 33.4459 10.0049 33.5072C10.1283 33.5689 10.2208 33.6 10.2825 33.6C10.3441 33.6 10.4366 33.5381 10.4675 33.4767C10.4983 33.4459 10.4983 33.3839 10.4983 33.3534C10.4983 33.3228 10.4675 33.2609 10.4058 33.1992C10.375 33.1684 10.2824 33.0759 10.1899 32.9525C10.0358 32.7983 9.94327 32.6753 9.91243 32.5517C9.85076 32.3975 9.8816 32.2433 9.9741 32.12C10.0358 32.0275 10.0974 31.9658 10.1899 31.935C10.2824 31.9041 10.375 31.8733 10.4983 31.9041C10.6216 31.935 10.745 31.9655 10.8683 32.0583C11.0842 32.1813 11.2075 32.3355 11.2692 32.4897C11.3308 32.6439 11.3 32.798 11.2075 32.9522L10.8683 32.7669C10.8991 32.6747 10.8991 32.5819 10.8991 32.5205C10.8991 32.4585 10.8066 32.3972 10.7141 32.3352C10.6216 32.2735 10.5291 32.2427 10.4366 32.2427C10.375 32.2427 10.3441 32.2735 10.3133 32.3041C10.2824 32.3352 10.2824 32.3969 10.3133 32.4274C10.3441 32.4891 10.4058 32.5816 10.56 32.7357C10.7141 32.8899 10.8066 32.9827 10.8683 33.0749C10.93 33.1677 10.9608 33.2602 10.9608 33.3524C10.9608 33.4453 10.93 33.5683 10.8683 33.6608C10.8066 33.7536 10.7141 33.8458 10.6216 33.8766C10.5291 33.9383 10.4058 33.9383 10.2825 33.9383C10.1591 33.9075 10.0358 33.8766 9.8816 33.7841C9.66575 33.6608 9.54242 33.5066 9.48075 33.3216C9.41908 33.1375 9.38824 33.0447 9.48075 32.8292Z" fill="white"/>
<path d="M11.4541 34.6793L12.1325 33.1684L11.6083 32.9214L11.7316 32.613L13.1808 33.2609L13.0575 33.5692L12.5333 33.3225L11.855 34.8334L11.4541 34.6793Z" fill="white"/>
<path d="M14.3527 35.7273L13.9518 35.6042L13.921 35.1106L13.1501 34.8639L12.8418 35.2336L12.4409 35.1106L13.7976 33.4458L14.1985 33.5688L14.3527 35.7273ZM13.8902 34.7714L13.8593 34.0005L13.366 34.6172L13.8902 34.7714Z" fill="white"/>
<path d="M15.0311 35.8814L15.3703 34.278L14.7844 34.1546L14.8461 33.8154L16.3878 34.1238L16.3262 34.463L15.7403 34.3399L15.4011 35.9433L15.0311 35.8814Z" fill="white"/>
<path d="M16.511 36.128L16.6652 34.1545L18.1452 34.2779L18.1144 34.6171L17.0352 34.5249L17.0043 34.9562L17.9911 35.0487L17.9602 35.3879L16.9735 35.2957L16.9427 35.8196L18.0527 35.9124L18.0219 36.2516L16.511 36.128Z" fill="white"/>
<path d="M18.4846 35.6349L18.8855 35.5732C18.9163 35.6962 18.978 35.7891 19.0396 35.8504C19.101 35.9124 19.2247 35.9432 19.348 35.9432C19.4713 35.9432 19.5635 35.9124 19.6255 35.8504C19.6872 35.7891 19.718 35.7274 19.718 35.6657C19.718 35.6044 19.6872 35.5732 19.6872 35.5424C19.6563 35.5116 19.5947 35.481 19.533 35.4502C19.4716 35.4502 19.3788 35.419 19.1938 35.3882C18.978 35.3574 18.8238 35.296 18.7313 35.2032C18.608 35.1107 18.5463 34.9565 18.5463 34.8023C18.5463 34.7098 18.5771 34.617 18.608 34.5251C18.6388 34.4323 18.7313 34.371 18.8549 34.309C18.9471 34.2473 19.1013 34.2168 19.2555 34.2168C19.5025 34.2168 19.6872 34.2476 19.8108 34.371C19.9342 34.4632 20.0264 34.6173 20.0264 34.8023L19.6258 34.8335C19.5947 34.7407 19.5638 34.6482 19.5022 34.6173C19.4405 34.5865 19.348 34.556 19.2552 34.556C19.1321 34.556 19.0396 34.5868 18.978 34.6485C18.9468 34.6796 18.9163 34.7102 18.9163 34.7715C18.9163 34.8335 18.9471 34.8643 18.978 34.8949C19.0396 34.9257 19.1633 34.9877 19.348 35.0182C19.5327 35.0487 19.6872 35.1107 19.7797 35.1415C19.8719 35.1724 19.9647 35.2646 19.9952 35.3265C20.0569 35.419 20.088 35.5116 20.088 35.6349C20.088 35.7582 20.0569 35.8504 19.9952 35.9432C19.9339 36.0357 19.841 36.1282 19.7485 36.1899C19.6255 36.2516 19.5019 36.2824 19.3172 36.2824C19.0702 36.2824 18.8855 36.2516 18.731 36.1282C18.608 36.0357 18.5155 35.8507 18.4846 35.6349Z" fill="white"/>
<path d="M21.4138 35.0798C21.383 34.8948 21.3525 34.7101 21.383 34.5559C21.4138 34.4326 21.4447 34.3401 21.5063 34.2476C21.5677 34.1548 21.6297 34.0626 21.7219 34.0006C21.8452 33.9084 21.9689 33.8776 22.123 33.8156C22.4005 33.7542 22.6469 33.7848 22.8631 33.9084C23.0789 34.0314 23.2022 34.2781 23.2948 34.5865C23.3564 34.8948 23.3259 35.1723 23.2023 35.3882C23.0789 35.6043 22.8631 35.7585 22.5856 35.8199C22.308 35.8815 22.0614 35.8507 21.8455 35.7274C21.63 35.6043 21.4758 35.3882 21.4138 35.0798ZM21.8147 34.9876C21.876 35.2032 21.9689 35.3573 22.0922 35.4501C22.2155 35.5423 22.3697 35.5732 22.5239 35.5423C22.6781 35.5115 22.8011 35.4193 22.8634 35.296C22.9247 35.1726 22.9556 34.9876 22.8942 34.7406C22.8325 34.5251 22.7709 34.3709 22.6472 34.2781C22.5242 34.1856 22.37 34.1548 22.2158 34.2168C22.0617 34.2476 21.9386 34.3398 21.8764 34.4631C21.7842 34.5865 21.753 34.7406 21.8147 34.9876Z" fill="white"/>
<path d="M24.0653 35.4191L23.387 33.569L24.6512 33.1064L24.7745 33.4148L23.8803 33.7543L24.0345 34.1857L24.8054 33.9085L24.9287 34.2168L24.1578 34.494L24.4662 35.296L24.0653 35.4191Z" fill="white"/>
<path d="M28.2282 33.4147L27.8582 33.6305L27.4885 33.3222L26.8098 33.723L26.9026 34.1856L26.5326 34.4014L26.1931 32.3046L26.5634 32.0891L28.2282 33.4147ZM27.2107 33.1063L26.594 32.6127L26.7481 33.3836L27.2107 33.1063Z" fill="white"/>
<path d="M28.5981 33.1374L27.3647 31.5956L27.8273 31.2253L28.9373 32.0581L28.4134 30.7628L28.876 30.3931L30.1093 31.9348L29.8318 32.1815L28.8451 30.9481L29.5235 32.4282L29.2151 32.6751L27.9198 31.6878L28.9065 32.9212L28.5981 33.1374Z" fill="white"/>
<path d="M30.5723 31.5028L29.1536 30.1153L30.1711 29.0669L30.4181 29.3139L29.6781 30.0848L29.9864 30.3931L30.6645 29.6836L30.9111 29.9303L30.2328 30.6395L30.6336 31.0095L31.4045 30.2078L31.6515 30.4545L30.5723 31.5028Z" fill="white"/>
<path d="M32.0208 29.9612L30.4177 28.7894L30.9111 28.1111C31.0344 27.9261 31.1578 27.8336 31.2194 27.7719C31.3119 27.7102 31.4044 27.6791 31.4969 27.7102C31.5891 27.7102 31.7125 27.7719 31.8053 27.8333C31.9283 27.9261 31.99 28.0186 32.0208 28.1727C32.0517 28.2958 32.0208 28.45 31.9283 28.6041C32.0208 28.5733 32.1136 28.5428 32.175 28.5428C32.2678 28.5428 32.3908 28.5428 32.5762 28.5428L33.0387 28.5736L32.7612 28.9436L32.2367 28.9128C32.0514 28.9128 31.9283 28.9128 31.8667 28.9128C31.8053 28.9128 31.7741 28.9439 31.7433 28.9748C31.7125 29.0056 31.6511 29.0361 31.6203 29.1289L31.5586 29.1903L32.237 29.6837L32.0208 29.9612ZM31.3116 28.9436L31.4969 28.6969C31.62 28.5428 31.682 28.45 31.682 28.3886C31.7128 28.3269 31.682 28.2958 31.682 28.2344C31.682 28.1728 31.6203 28.1416 31.5891 28.1111C31.5278 28.0802 31.4969 28.0497 31.435 28.0497C31.3736 28.0497 31.3428 28.0806 31.2808 28.1111C31.25 28.1419 31.1886 28.2039 31.0958 28.3269L30.9108 28.5736L31.3116 28.9436Z" fill="white"/>
<path d="M33.285 28.1111L31.5891 27.0936L31.8053 26.7544L33.5012 27.7723L33.285 28.1111Z" fill="white"/>
<path d="M33.7168 25.7675L33.9943 25.4592C34.1793 25.6134 34.2718 25.7675 34.3026 25.9217C34.3335 26.1067 34.3026 26.2609 34.2098 26.4767C34.0868 26.7234 33.9326 26.8776 33.6859 26.9393C33.4389 27.0009 33.1926 26.9704 32.9151 26.8468C32.6067 26.6926 32.4217 26.5076 32.3292 26.2914C32.2367 26.0451 32.2678 25.8289 32.36 25.5517C32.4528 25.3359 32.607 25.1817 32.8226 25.1203C32.9459 25.0892 33.0695 25.0583 33.2542 25.0892L33.1617 25.49C33.0692 25.4592 32.9764 25.49 32.8845 25.5209C32.7917 25.552 32.7304 25.6442 32.6992 25.737C32.6375 25.86 32.6375 26.0142 32.6992 26.1376C32.7609 26.2609 32.8845 26.3845 33.1001 26.4771C33.3159 26.6001 33.5012 26.6312 33.6554 26.6001C33.7784 26.5692 33.9018 26.4771 33.9637 26.3537C33.9946 26.2609 34.0251 26.1684 33.9946 26.0762C33.9018 25.9526 33.8401 25.8601 33.7168 25.7675Z" fill="white"/>
<path d="M35.3203 23.4861L35.1972 23.8872L34.7036 23.9181L34.4569 24.6581L34.8266 24.9665L34.7036 25.367L33.0693 24.0106L33.1927 23.6097L35.3203 23.4861ZM34.3336 23.9486L33.5627 23.9794L34.1794 24.4731L34.3336 23.9486Z" fill="white"/>
<path d="M1.58691 19.0149L1.61775 18.2748C1.61775 18.1207 1.64858 17.9973 1.67942 17.9048C1.71025 17.7815 1.77192 17.689 1.86443 17.6273C1.95693 17.5348 2.08027 17.504 2.20361 17.4423C2.32695 17.4115 2.48112 17.3806 2.66613 17.4115C2.8203 17.4115 2.97448 17.4423 3.09782 17.504C3.25199 17.5656 3.3445 17.6273 3.437 17.7198C3.49867 17.7815 3.56034 17.874 3.59117 17.9973C3.62201 18.0898 3.62201 18.2132 3.62201 18.3673L3.59117 19.1074L1.58691 19.0149ZM1.9261 18.6448L3.25199 18.7065V18.3982C3.25199 18.2748 3.25199 18.2132 3.25199 18.1515C3.25199 18.0898 3.22116 18.0281 3.19032 17.9973C3.15949 17.9665 3.09782 17.9048 3.00531 17.874C2.91281 17.8431 2.78947 17.8431 2.6353 17.8123C2.48112 17.8123 2.35778 17.8123 2.26528 17.8431C2.17277 17.874 2.11111 17.9048 2.08027 17.9356C2.04944 17.9665 1.98777 18.059 1.98777 18.1207C1.95693 18.1823 1.95693 18.2748 1.95693 18.4598L1.9261 18.6448Z" fill="white"/>
<path d="M3.6838 17.1649L1.74121 16.8257L1.98789 15.3765L2.32707 15.4381L2.14206 16.4865L2.57375 16.579L2.75876 15.5923L3.06711 15.654L2.8821 16.6407L3.40629 16.7332L3.5913 15.654L3.93048 15.7156L3.6838 17.1649Z" fill="white"/>
<path d="M4.02284 15.4072L2.11108 14.8214L2.29609 14.2047C2.35776 13.958 2.41943 13.8346 2.45027 13.7421C2.51194 13.6496 2.60444 13.5571 2.72778 13.5263C2.85112 13.4955 2.97446 13.4955 3.12863 13.5263C3.25197 13.5571 3.34448 13.6188 3.40614 13.6805C3.46781 13.7421 3.52948 13.8346 3.52948 13.8963C3.56032 13.9888 3.56032 14.0505 3.56032 14.1122C3.56032 14.2047 3.52948 14.3588 3.46781 14.513L3.40614 14.7597L4.14618 15.0372L4.02284 15.4072ZM2.54277 14.5438L3.0978 14.698L3.15947 14.4822C3.1903 14.328 3.22114 14.2355 3.22114 14.1738C3.22114 14.1122 3.1903 14.0813 3.15947 14.0197C3.12863 13.9888 3.06696 13.958 3.03613 13.9272C2.97446 13.8963 2.91279 13.8963 2.85112 13.9272C2.78945 13.958 2.75861 13.9888 2.72778 14.0505C2.69694 14.0813 2.66611 14.1738 2.63528 14.328L2.54277 14.5438Z" fill="white"/>
<path d="M5.19469 12.2311L5.00968 12.632L4.51632 12.6011L4.20798 13.3412L4.54716 13.6803L4.39298 14.0812L2.88208 12.5703L3.03625 12.1694L5.19469 12.2311ZM4.17714 12.6011L3.37544 12.5703L3.9613 13.0945L4.17714 12.6011Z" fill="white"/>
<path d="M5.28722 12.1078L3.59131 11.0903L4.023 10.3502C4.14633 10.1652 4.23884 10.0419 4.30051 9.9802C4.36218 9.91853 4.48552 9.8877 4.57802 9.8877C4.70136 9.8877 4.79386 9.91853 4.88637 9.9802C5.00971 10.0419 5.10221 10.1652 5.13305 10.2885C5.16388 10.4119 5.16388 10.5661 5.10221 10.7202C5.19472 10.6586 5.28722 10.6277 5.34889 10.6277C5.44139 10.5969 5.56473 10.5969 5.74974 10.5969H6.21226L5.96559 10.9977L5.4414 11.0286C5.25639 11.0286 5.13305 11.0594 5.07138 11.0594C5.00971 11.0594 4.97887 11.0903 4.94804 11.1211C4.9172 11.1519 4.88637 11.2136 4.8247 11.2753L4.76303 11.3369L5.47223 11.7686L5.28722 12.1078ZM4.48552 11.1519L4.63969 10.9052C4.7322 10.7511 4.79386 10.6277 4.79386 10.5969C4.79386 10.5352 4.79386 10.5044 4.79386 10.4427C4.76303 10.4119 4.7322 10.3502 4.70136 10.3194C4.63969 10.2885 4.57802 10.2885 4.54719 10.2885C4.48552 10.2885 4.45468 10.3194 4.39301 10.3811C4.36218 10.4119 4.33134 10.5044 4.23884 10.6277L4.08467 10.9052L4.48552 11.1519Z" fill="white"/>
<path d="M6.55131 10.0727L5.22541 9.05515L4.85539 9.51767L4.57788 9.30182L5.53376 8.0376L5.81127 8.25344L5.44125 8.71596L6.76715 9.73351L6.55131 10.0727Z" fill="white"/>
<path d="M7.29145 9.14761L5.87305 7.76005L6.30473 7.32836L7.50729 8.03756L6.79809 6.83501L7.22978 6.40332L8.64818 7.79089L8.37066 8.0684L7.26061 6.95835L8.09315 8.34591L7.81564 8.62342L6.42807 7.79089L7.53812 8.8701L7.29145 9.14761Z" fill="white"/>
<path d="M8.89469 7.57494L7.69214 6.00236L8.86386 5.10815L9.0797 5.38567L8.21633 6.0332L8.49384 6.37238L9.29555 5.75568L9.51139 6.0332L8.70969 6.64989L9.04887 7.08158L9.94308 6.40321L10.1589 6.68073L8.89469 7.57494Z" fill="white"/>
<path d="M10.344 6.4649L9.32642 4.73815L9.6656 4.55315L11.0532 5.29318L10.3748 4.15229L10.6831 3.96729L11.7007 5.69403L11.3615 5.90988L10.0048 5.16984L10.6523 6.27989L10.344 6.4649Z" fill="white"/>
<path d="M12.4409 5.32411L11.7625 3.8132L11.2383 4.05988L11.115 3.75153L12.5642 3.104L12.6876 3.41235L12.1634 3.65903L12.8417 5.16993L12.4409 5.32411Z" fill="white"/>
<path d="M13.9207 3.69008C13.859 3.50507 13.859 3.32006 13.8899 3.16589C13.9207 3.04255 13.9516 2.95005 14.0132 2.85754C14.0749 2.76504 14.1366 2.67253 14.2291 2.61086C14.3216 2.51836 14.4757 2.45669 14.6299 2.42585C14.9074 2.36418 15.1541 2.39502 15.37 2.51836C15.555 2.70337 15.7091 2.91921 15.7708 3.22756C15.8325 3.53591 15.8325 3.81342 15.7091 4.02926C15.5858 4.24511 15.37 4.39928 15.0924 4.46095C14.8149 4.52262 14.5682 4.49178 14.3524 4.36844C14.1366 4.21427 13.9824 3.99843 13.9207 3.69008ZM14.2907 3.59758C14.3524 3.81342 14.4449 3.96759 14.5682 4.0601C14.6916 4.1526 14.8458 4.18344 14.9999 4.12177C15.1541 4.09093 15.2774 3.99843 15.3391 3.87509C15.4008 3.75175 15.4316 3.56674 15.37 3.32006C15.3083 3.10422 15.2158 2.95005 15.0924 2.85754C14.9691 2.76504 14.8149 2.76504 14.6608 2.79587C14.5066 2.82671 14.3832 2.91921 14.3216 3.04255C14.2599 3.16589 14.2599 3.3509 14.2907 3.59758Z" fill="white"/>
<path d="M16.2643 4.1525L16.0176 2.17908L17.3743 2.0249L17.4051 2.36408L16.4801 2.48742L16.5418 2.94995L17.3743 2.85744L17.4051 3.19662L16.5726 3.28913L16.6651 4.12167L16.2643 4.1525Z" fill="white"/>
<path d="M19.0701 3.99816L19.1318 2.36391L18.5459 2.33308V1.9939L20.1185 2.05557V2.39475L19.5326 2.36391L19.4712 3.99816H19.0701Z" fill="white"/>
<path d="M20.2729 4.0601L20.5813 2.08667L21.4138 2.21001C21.63 2.24084 21.7842 2.27168 21.8764 2.33335C21.9689 2.39502 22.0305 2.45669 22.0614 2.54919C22.0922 2.6417 22.123 2.76503 22.0925 2.85754C22.0614 3.01171 21.9997 3.13505 21.9072 3.19672C21.8147 3.28923 21.6605 3.32006 21.4758 3.32006C21.568 3.38173 21.63 3.4434 21.6608 3.50507C21.7222 3.56674 21.7533 3.69008 21.8458 3.84425L22.0308 4.27594L21.5372 4.2451L21.3216 3.78258C21.2288 3.62841 21.1983 3.50507 21.1675 3.47423C21.1363 3.4434 21.1055 3.38173 21.0747 3.3509C21.0133 3.32006 20.9513 3.32006 20.8591 3.28923H20.7663L20.643 4.12176L20.2729 4.0601ZM20.828 2.98088L21.1363 3.01171C21.3216 3.04255 21.4447 3.04255 21.5063 3.04255C21.5677 3.04255 21.5988 3.01171 21.6297 2.98088C21.6605 2.95004 21.6913 2.88837 21.6913 2.8267C21.6913 2.76503 21.6913 2.70337 21.6605 2.67253C21.6297 2.6417 21.5988 2.58003 21.5372 2.58003C21.5063 2.58003 21.4138 2.54919 21.2597 2.51836L20.9513 2.45669L20.828 2.98088Z" fill="white"/>
<path d="M23.9113 4.86178L23.4799 4.73844L23.4487 4.24508L22.6779 4.02924L22.4007 4.43009L21.9995 4.30675L23.2946 2.61084L23.6954 2.73418L23.9113 4.86178ZM23.4179 3.9059L23.3562 3.13503L22.8937 3.75173L23.4179 3.9059Z" fill="white"/>
<path d="M24.0344 4.95426L24.8361 3.13501L25.2061 3.28918L25.4217 4.83092L25.9462 3.62837L26.2854 3.78254L25.4837 5.60179L25.1136 5.41678L24.8978 3.90588L24.3736 5.0776L24.0344 4.95426Z" fill="white"/>
<path d="M26.0696 5.13899L26.409 5.29316C26.3471 5.4165 26.3471 5.53984 26.3779 5.60151C26.409 5.66318 26.4704 5.75568 26.5937 5.81735C26.7171 5.87902 26.8093 5.90986 26.8713 5.90986C26.9326 5.90986 27.0254 5.84819 27.0563 5.78652C27.0871 5.75568 27.0871 5.69401 27.0871 5.66318C27.0871 5.63234 27.0563 5.57067 26.9946 5.509C26.9638 5.47817 26.8716 5.38567 26.7788 5.26233C26.6246 5.10815 26.5321 4.98481 26.5012 4.86147C26.4399 4.7073 26.4704 4.55313 26.5632 4.42979C26.6246 4.33728 26.6863 4.27561 26.7788 4.24478C26.8716 4.21394 26.9638 4.18311 27.0871 4.21394C27.2104 4.24478 27.3341 4.27561 27.4571 4.36812C27.673 4.49146 27.7966 4.64563 27.858 4.7998C27.9196 4.95398 27.8888 5.10815 27.7966 5.26233L27.4571 5.07732C27.4883 4.98481 27.4883 4.89231 27.4883 4.83064C27.4571 4.76897 27.3955 4.7073 27.3029 4.64563C27.2104 4.58396 27.1179 4.55313 27.0257 4.55313C26.9638 4.55313 26.9329 4.58396 26.9021 4.6148C26.8713 4.64563 26.8713 4.7073 26.9021 4.73814C26.9329 4.7998 26.9946 4.89231 27.1488 5.04648C27.3029 5.20066 27.3955 5.29316 27.4571 5.38567C27.5188 5.47817 27.5496 5.57067 27.5496 5.66318C27.5496 5.75568 27.5188 5.87902 27.4571 5.97153C27.3955 6.06403 27.3029 6.15653 27.2104 6.18737C27.1176 6.24904 26.9946 6.24904 26.8713 6.24904C26.7479 6.24904 26.6243 6.18737 26.4701 6.09487C26.2546 5.97153 26.1309 5.81735 26.0692 5.66318C25.9465 5.53984 25.9771 5.35483 26.0696 5.13899Z" fill="white"/>
<path d="M27.3342 6.68073L28.5365 5.10815L29.0607 5.50901C29.2457 5.66318 29.369 5.75568 29.4304 5.81735C29.4924 5.90986 29.5232 6.0332 29.5232 6.15654C29.5232 6.27988 29.4615 6.40321 29.369 6.52655C29.3073 6.61906 29.2148 6.68073 29.122 6.7424C29.0298 6.80407 28.937 6.80407 28.8757 6.80407C28.7828 6.80407 28.7215 6.77323 28.6595 6.7424C28.5673 6.71156 28.444 6.61906 28.3203 6.49572L28.1048 6.34154L27.6423 6.92741L27.3342 6.68073ZM28.6598 5.63235L28.3206 6.06403L28.5056 6.18737C28.629 6.27988 28.7218 6.34154 28.7832 6.34154C28.8448 6.34154 28.876 6.37238 28.9373 6.34154C28.999 6.31071 29.0301 6.27988 29.0607 6.24904C29.0915 6.18737 29.1223 6.1257 29.1223 6.06403C29.1223 6.00236 29.0915 5.94069 29.061 5.90986C29.0305 5.87902 28.9682 5.81735 28.8451 5.72485L28.6598 5.63235Z" fill="white"/>
<path d="M29.3999 7.05093C29.5541 6.89675 29.6774 6.80425 29.8316 6.74258C29.9241 6.71174 30.0471 6.68091 30.14 6.68091C30.2633 6.68091 30.3555 6.71174 30.4483 6.74258C30.5716 6.80425 30.695 6.86592 30.818 6.98926C31.0342 7.2051 31.1264 7.42094 31.1264 7.66762C31.1264 7.9143 31.0033 8.16098 30.7872 8.37682C30.5716 8.59266 30.3247 8.716 30.078 8.716C29.8313 8.716 29.5843 8.6235 29.3996 8.40766C29.1841 8.19181 29.0913 7.97597 29.0913 7.72929C29.0607 7.51345 29.1844 7.26677 29.3999 7.05093ZM29.7083 7.32844C29.5541 7.48261 29.4616 7.63679 29.4616 7.79096C29.4616 7.94513 29.4927 8.06847 29.6158 8.19181C29.7388 8.31515 29.8624 8.34599 30.0166 8.34599C30.1708 8.34599 30.325 8.25348 30.4791 8.09931C30.6333 7.94513 30.7261 7.79096 30.7261 7.63679C30.7261 7.48261 30.695 7.35927 30.5719 7.23593C30.4486 7.1126 30.325 7.05093 30.1708 7.08176C30.0166 7.08176 29.8624 7.17426 29.7083 7.32844Z" fill="white"/>
<path d="M30.2324 9.30192L31.8053 8.09937L32.3292 8.77773C32.4525 8.9319 32.545 9.08608 32.5762 9.17858C32.607 9.27109 32.607 9.36359 32.5762 9.48693C32.545 9.57943 32.4834 9.67194 32.3909 9.73361C32.2678 9.82611 32.1442 9.85695 32.0208 9.85695C31.8975 9.85695 31.7742 9.76444 31.6511 9.6411C31.6511 9.73361 31.6511 9.82611 31.6511 9.91862C31.6511 10.0111 31.5892 10.1345 31.5278 10.2886L31.3736 10.7203L31.0961 10.3503L31.2503 9.85695C31.3119 9.67194 31.3431 9.57943 31.3431 9.51776C31.3431 9.4561 31.3431 9.42526 31.3431 9.36359C31.3431 9.30192 31.2811 9.27109 31.2503 9.17858L31.1889 9.11691L30.5408 9.61027L30.2324 9.30192ZM31.3733 8.9319L31.5583 9.17858C31.6817 9.33276 31.7433 9.42526 31.8053 9.45609C31.8358 9.48693 31.8975 9.48693 31.9283 9.48693C31.99 9.48693 32.0208 9.45609 32.0825 9.42526C32.1442 9.39443 32.175 9.33276 32.175 9.27109C32.175 9.20942 32.175 9.14775 32.1442 9.11691C32.1133 9.08608 32.0825 9.02441 31.9592 8.87023L31.7739 8.62356L31.3733 8.9319Z" fill="white"/>
<path d="M31.6199 11.2753L33.0386 10.4428L32.7302 9.94941L33.0074 9.7644L33.8094 11.1211L33.5319 11.3061L33.2236 10.8128L31.8052 11.6453L31.6199 11.2753Z" fill="white"/>
<path d="M32.8534 13.7419L32.6681 13.3411L33.0076 13.0019L32.6681 12.2927L32.1748 12.3235L31.9897 11.9227L34.1173 11.7993L34.3024 12.2002L32.8534 13.7419ZM33.2543 12.7552L33.8096 12.2002L33.0387 12.2618L33.2543 12.7552Z" fill="white"/>
<path d="M32.9768 14.1429L34.5497 13.6187L34.3644 13.0637L34.6727 12.9712L35.1664 14.4821L34.858 14.5746L34.6727 14.0196L33.1001 14.5438L32.9768 14.1429Z" fill="white"/>
<path d="M33.3159 15.253L35.2585 14.7905L35.3513 15.1914L33.4084 15.6539L33.3159 15.253Z" fill="white"/>
<path d="M34.4569 15.7463C34.6419 15.7154 34.8266 15.7154 34.9807 15.7463C35.0736 15.7771 35.1969 15.8079 35.2891 15.9004C35.3819 15.9621 35.4433 16.0546 35.5052 16.1163C35.5666 16.2396 35.6283 16.363 35.6594 16.5171C35.6903 16.7947 35.6594 17.0413 35.5052 17.2572C35.3511 17.473 35.1041 17.5964 34.7957 17.6272C34.4874 17.6889 34.2099 17.6272 34.0249 17.473C33.8093 17.3188 33.6857 17.103 33.6552 16.8255C33.624 16.548 33.6552 16.3013 33.8093 16.0855C33.9638 15.8696 34.1485 15.7771 34.4569 15.7463ZM34.5185 16.1471C34.303 16.178 34.1488 16.2705 34.0252 16.363C33.9327 16.4863 33.9018 16.6096 33.9018 16.7947C33.9018 16.9797 33.9946 17.0722 34.118 17.1647C34.241 17.2572 34.4263 17.288 34.6419 17.2263C34.8577 17.1955 35.0119 17.103 35.1352 17.0105C35.228 16.8872 35.2586 16.7638 35.228 16.5788C35.1972 16.4246 35.1352 16.3013 35.0122 16.2088C34.9502 16.1471 34.7652 16.1163 34.5185 16.1471Z" fill="white"/>
<path d="M33.7783 18.0589L35.7514 18.0281V18.4289L34.4259 19.2618L35.7517 19.2306V19.6006L33.7786 19.6315V19.2306L35.0737 18.3981L33.7786 18.4289V18.0589H33.7783Z" fill="white"/>
<path d="M31.5062 13.8411C29.436 8.77507 24.4928 5.22192 18.6845 5.22192C15.7492 5.22192 13.0628 6.11768 10.8076 7.66203C11.5798 7.41487 12.4449 7.29129 13.3091 7.29129C18.716 7.29129 21.5882 10.5658 21.5882 15.2925C21.5882 15.6318 21.5575 15.9403 21.526 16.2497C21.4638 16.6511 21.4323 17.084 21.4323 17.517C21.4323 20.2026 23.9039 22.6742 26.8699 22.6742C30.4852 22.6751 33.2646 17.7625 31.5062 13.8411Z" fill="white"/>
<path d="M7.78095 10.5665C4.44428 14.8919 3.82637 20.9441 6.73011 25.9495C8.18239 28.4833 10.3446 30.3661 12.7848 31.5405C12.1975 30.9856 11.6418 30.3047 11.2089 29.5624C8.49013 24.8688 9.91171 20.7607 13.9891 18.4119C14.2677 18.2576 14.5755 18.1042 14.8541 17.979C15.2249 17.8247 15.6263 17.6397 15.9962 17.4232C18.3136 16.0954 19.2416 12.728 17.7272 10.1336C15.9655 7.0449 10.3131 7.07559 7.78095 10.5665Z" fill="white"/>
<path d="M16.7999 32.7448C16.8314 32.7448 16.8314 32.7448 16.7999 32.7448C22.2051 33.4879 27.767 30.9541 30.6716 25.9495C32.1223 23.4157 32.7103 20.6048 32.4615 17.9192C32.2781 18.7221 31.9672 19.4942 31.535 20.2664C28.8478 24.9633 24.5871 25.7977 20.5097 23.4165C20.2294 23.2638 19.9524 23.0765 19.7068 22.8931C19.3644 22.6443 19.0251 22.398 18.6544 22.1799C16.3379 20.8544 12.9705 21.7478 11.4875 24.3123C9.66451 27.4341 12.5376 32.3143 16.7999 32.7448Z" fill="white"/>
<path d="M51.6479 9.18021C52.4266 9.18021 53.1097 9.33241 53.6973 9.63682C54.2919 9.94122 54.7485 10.3766 55.0671 10.9429C55.3927 11.5022 55.5555 12.1534 55.5555 12.8967C55.5555 13.6401 55.3927 14.2913 55.0671 14.8506C54.7485 15.4028 54.2919 15.831 53.6973 16.1354C53.1097 16.4398 52.4266 16.592 51.6479 16.592H49.0569V9.18021H51.6479ZM51.5948 15.3284C52.3735 15.3284 52.9752 15.116 53.3999 14.6913C53.8247 14.2666 54.0371 13.6684 54.0371 12.8967C54.0371 12.1251 53.8247 11.5234 53.3999 11.0916C52.9752 10.6527 52.3735 10.4332 51.5948 10.4332H50.5435V15.3284H51.5948ZM60.1088 16.6664C59.415 16.6664 58.7779 16.5036 58.1974 16.1779C57.6169 15.8523 57.1568 15.4028 56.817 14.8293C56.4772 14.2489 56.3073 13.594 56.3073 12.8649C56.3073 12.1428 56.4772 11.4951 56.817 10.9217C57.1568 10.3412 57.6169 9.88812 58.1974 9.56248C58.7779 9.23685 59.415 9.07403 60.1088 9.07403C60.8096 9.07403 61.4467 9.23685 62.0201 9.56248C62.6006 9.88812 63.0572 10.3412 63.3899 10.9217C63.7297 11.4951 63.8996 12.1428 63.8996 12.8649C63.8996 13.594 63.7297 14.2489 63.3899 14.8293C63.0572 15.4028 62.6006 15.8523 62.0201 16.1779C61.4397 16.5036 60.8025 16.6664 60.1088 16.6664ZM60.1088 15.339C60.5548 15.339 60.9477 15.2399 61.2875 15.0417C61.6272 14.8364 61.8927 14.5462 62.0839 14.171C62.275 13.7958 62.3706 13.3604 62.3706 12.8649C62.3706 12.3694 62.275 11.9375 62.0839 11.5694C61.8927 11.1942 61.6272 10.9075 61.2875 10.7093C60.9477 10.5111 60.5548 10.412 60.1088 10.412C59.6628 10.412 59.2664 10.5111 58.9195 10.7093C58.5797 10.9075 58.3142 11.1942 58.1231 11.5694C57.932 11.9375 57.8364 12.3694 57.8364 12.8649C57.8364 13.3604 57.932 13.7958 58.1231 14.171C58.3142 14.5462 58.5797 14.8364 58.9195 15.0417C59.2664 15.2399 59.6628 15.339 60.1088 15.339ZM70.0495 9.18021V10.3801H68.0744V16.592H66.5878V10.3801H64.6128V9.18021H70.0495ZM79.0693 11.4738C79.0693 11.8703 78.9737 12.2419 78.7826 12.5888C78.5986 12.9357 78.3048 13.2153 77.9013 13.4277C77.5048 13.6401 77.0022 13.7462 76.3934 13.7462H75.151V16.592H73.6644V9.18021H76.3934C76.9668 9.18021 77.4553 9.27932 77.8588 9.47754C78.2623 9.67575 78.5632 9.9483 78.7614 10.2952C78.9667 10.642 79.0693 11.0349 79.0693 11.4738ZM76.3297 12.5463C76.7403 12.5463 77.0447 12.4543 77.2429 12.2702C77.4411 12.0791 77.5402 11.8136 77.5402 11.4738C77.5402 10.7518 77.1367 10.3907 76.3297 10.3907H75.151V12.5463H76.3297ZM84.6696 15.1798H81.7176L81.2291 16.592H79.6682L82.3335 9.16959H84.0643L86.7296 16.592H85.158L84.6696 15.1798ZM84.2661 13.9905L83.1936 10.8898L82.1211 13.9905H84.2661ZM91.5486 16.592L89.9133 13.7038H89.2125V16.592H87.7258V9.18021H90.5079C91.0813 9.18021 91.5698 9.28286 91.9733 9.48815C92.3768 9.68637 92.6777 9.95892 92.8759 10.3058C93.0812 10.6456 93.1838 11.0279 93.1838 11.4526C93.1838 11.9411 93.0423 12.3835 92.7591 12.7799C92.4759 13.1693 92.0547 13.4383 91.4955 13.587L93.2688 16.592H91.5486ZM89.2125 12.5888H90.4548C90.8584 12.5888 91.1592 12.4932 91.3574 12.3021C91.5556 12.1039 91.6548 11.8313 91.6548 11.4845C91.6548 11.1447 91.5556 10.8827 91.3574 10.6987C91.1592 10.5075 90.8584 10.412 90.4548 10.412H89.2125V12.5888ZM99.5723 9.18021V10.3801H97.5972V16.592H96.1106V10.3801H94.1355V9.18021H99.5723ZM103.039 10.8898C103.074 10.1819 103.322 9.63682 103.782 9.25454C104.249 8.86519 104.861 8.67052 105.619 8.67052C106.136 8.67052 106.578 8.76255 106.946 8.9466C107.314 9.12358 107.59 9.36781 107.774 9.67929C107.966 9.98369 108.061 10.3306 108.061 10.7199C108.061 11.1659 107.944 11.5446 107.711 11.8561C107.484 12.1605 107.212 12.3658 106.893 12.472V12.5145C107.304 12.6419 107.622 12.8684 107.849 13.1941C108.082 13.5197 108.199 13.9374 108.199 14.4471C108.199 14.8718 108.1 15.2505 107.902 15.5833C107.711 15.916 107.424 16.1779 107.042 16.369C106.667 16.5531 106.214 16.6451 105.683 16.6451C104.883 16.6451 104.231 16.4434 103.729 16.0399C103.226 15.6364 102.961 15.0417 102.932 14.2559H104.376C104.391 14.6028 104.507 14.8824 104.727 15.0948C104.953 15.3001 105.261 15.4028 105.651 15.4028C106.012 15.4028 106.288 15.3036 106.479 15.1054C106.677 14.9001 106.776 14.6382 106.776 14.3196C106.776 13.8949 106.642 13.5905 106.373 13.4064C106.104 13.2224 105.686 13.1304 105.12 13.1304H104.812V11.9092H105.12C106.125 11.9092 106.628 11.573 106.628 10.9004C106.628 10.596 106.536 10.3589 106.352 10.189C106.175 10.0191 105.916 9.93414 105.576 9.93414C105.244 9.93414 104.985 10.0262 104.801 10.2102C104.624 10.3872 104.522 10.6137 104.493 10.8898H103.039ZM110.669 12.4932C109.962 12.1251 109.608 11.5553 109.608 10.7836C109.608 10.4014 109.703 10.0545 109.894 9.743C110.093 9.42444 110.386 9.17313 110.776 8.98908C111.172 8.79794 111.653 8.70237 112.22 8.70237C112.786 8.70237 113.264 8.79794 113.653 8.98908C114.05 9.17313 114.344 9.42444 114.535 9.743C114.733 10.0545 114.832 10.4014 114.832 10.7836C114.832 11.173 114.736 11.5163 114.545 11.8136C114.354 12.1039 114.099 12.3304 113.781 12.4932C114.17 12.6631 114.474 12.9109 114.694 13.2365C114.913 13.5622 115.023 13.948 115.023 14.394C115.023 14.8754 114.899 15.2966 114.651 15.6576C114.411 16.0116 114.078 16.2841 113.653 16.4752C113.229 16.6664 112.751 16.7619 112.22 16.7619C111.689 16.7619 111.211 16.6664 110.786 16.4752C110.369 16.2841 110.036 16.0116 109.788 15.6576C109.547 15.2966 109.427 14.8754 109.427 14.394C109.427 13.948 109.537 13.5622 109.756 13.2365C109.976 12.9038 110.28 12.6561 110.669 12.4932ZM113.388 10.996C113.388 10.6491 113.282 10.3801 113.069 10.189C112.864 9.99785 112.581 9.90228 112.22 9.90228C111.866 9.90228 111.583 9.99785 111.37 10.189C111.165 10.3801 111.062 10.6527 111.062 11.0066C111.062 11.3252 111.169 11.58 111.381 11.7712C111.6 11.9623 111.88 12.0579 112.22 12.0579C112.56 12.0579 112.839 11.9623 113.059 11.7712C113.278 11.573 113.388 11.3146 113.388 10.996ZM112.22 13.141C111.816 13.141 111.487 13.2436 111.232 13.4489C110.984 13.6542 110.861 13.948 110.861 14.3303C110.861 14.6842 110.981 14.9745 111.222 15.201C111.469 15.4204 111.802 15.5302 112.22 15.5302C112.637 15.5302 112.967 15.4169 113.207 15.1904C113.448 14.9638 113.568 14.6771 113.568 14.3303C113.568 13.9551 113.444 13.6648 113.197 13.4595C112.949 13.2472 112.623 13.141 112.22 13.141ZM116.197 12.6207C116.197 11.396 116.417 10.4368 116.856 9.743C117.302 9.04925 118.038 8.70237 119.064 8.70237C120.091 8.70237 120.824 9.04925 121.262 9.743C121.708 10.4368 121.931 11.396 121.931 12.6207C121.931 13.8524 121.708 14.8187 121.262 15.5196C120.824 16.2204 120.091 16.5708 119.064 16.5708C118.038 16.5708 117.302 16.2204 116.856 15.5196C116.417 14.8187 116.197 13.8524 116.197 12.6207ZM120.466 12.6207C120.466 12.0968 120.431 11.6579 120.36 11.3039C120.296 10.9429 120.162 10.6491 119.956 10.4226C119.758 10.1961 119.461 10.0828 119.064 10.0828C118.668 10.0828 118.367 10.1961 118.162 10.4226C117.964 10.6491 117.829 10.9429 117.758 11.3039C117.695 11.6579 117.663 12.0968 117.663 12.6207C117.663 13.1587 117.695 13.6117 117.758 13.9798C117.822 14.3409 117.956 14.6347 118.162 14.8612C118.367 15.0807 118.668 15.1904 119.064 15.1904C119.461 15.1904 119.762 15.0807 119.967 14.8612C120.172 14.6347 120.307 14.3409 120.37 13.9798C120.434 13.6117 120.466 13.1587 120.466 12.6207Z" fill="white"/>
<path d="M52.6122 29.4446H50.2137L49.8168 30.592H48.5485L50.7141 24.5613H52.1204L54.2859 30.592H53.009L52.6122 29.4446ZM52.2843 28.4783L51.4129 25.959L50.5415 28.4783H52.2843ZM59.4869 26.4335C59.4869 26.7556 59.4092 27.0576 59.2539 27.3394C59.1044 27.6212 58.8657 27.8484 58.5378 28.021C58.2157 28.1935 57.8073 28.2798 57.3127 28.2798H56.3033V30.592H55.0954V24.5699H57.3127C57.7786 24.5699 58.1755 24.6505 58.5033 24.8115C58.8312 24.9726 59.0756 25.194 59.2367 25.4758C59.4035 25.7577 59.4869 26.0769 59.4869 26.4335ZM57.2609 27.3049C57.5945 27.3049 57.8419 27.2301 58.0029 27.0806C58.164 26.9253 58.2445 26.7096 58.2445 26.4335C58.2445 25.8468 57.9166 25.5535 57.2609 25.5535H56.3033V27.3049H57.2609ZM64.7359 26.4335C64.7359 26.7556 64.6583 27.0576 64.503 27.3394C64.3534 27.6212 64.1147 27.8484 63.7869 28.021C63.4648 28.1935 63.0564 28.2798 62.5618 28.2798H61.5523V30.592H60.3444V24.5699H62.5618C63.0276 24.5699 63.4245 24.6505 63.7524 24.8115C64.0802 24.9726 64.3247 25.194 64.4857 25.4758C64.6525 25.7577 64.7359 26.0769 64.7359 26.4335ZM62.51 27.3049C62.8436 27.3049 63.0909 27.2301 63.252 27.0806C63.413 26.9253 63.4935 26.7096 63.4935 26.4335C63.4935 25.8468 63.1657 25.5535 62.51 25.5535H61.5523V27.3049H62.51ZM68.6995 30.592L67.3708 28.2453H66.8014V30.592H65.5935V24.5699H67.854C68.3198 24.5699 68.7167 24.6533 69.0446 24.8201C69.3724 24.9812 69.6169 25.2026 69.7779 25.4845C69.9447 25.7605 70.0281 26.0711 70.0281 26.4163C70.0281 26.8131 69.9131 27.1726 69.683 27.4947C69.4529 27.8111 69.1107 28.0296 68.6563 28.1504L70.0971 30.592H68.6995ZM66.8014 27.3394H67.8108C68.1387 27.3394 68.3831 27.2618 68.5442 27.1065C68.7052 26.9454 68.7857 26.724 68.7857 26.4421C68.7857 26.166 68.7052 25.9532 68.5442 25.8037C68.3831 25.6484 68.1387 25.5707 67.8108 25.5707H66.8014V27.3394ZM73.916 30.6524C73.3523 30.6524 72.8346 30.5201 72.363 30.2556C71.8913 29.991 71.5175 29.6257 71.2414 29.1598C70.9653 28.6882 70.8273 28.1562 70.8273 27.5637C70.8273 26.977 70.9653 26.4508 71.2414 25.9849C71.5175 25.5132 71.8913 25.1451 72.363 24.8805C72.8346 24.6159 73.3523 24.4837 73.916 24.4837C74.4854 24.4837 75.003 24.6159 75.4689 24.8805C75.9406 25.1451 76.3116 25.5132 76.5819 25.9849C76.858 26.4508 76.996 26.977 76.996 27.5637C76.996 28.1562 76.858 28.6882 76.5819 29.1598C76.3116 29.6257 75.9406 29.991 75.4689 30.2556C74.9973 30.5201 74.4796 30.6524 73.916 30.6524ZM73.916 29.574C74.2783 29.574 74.5975 29.4935 74.8736 29.3324C75.1497 29.1656 75.3654 28.9298 75.5207 28.6249C75.676 28.3201 75.7537 27.9664 75.7537 27.5637C75.7537 27.1611 75.676 26.8102 75.5207 26.5112C75.3654 26.2063 75.1497 25.9734 74.8736 25.8123C74.5975 25.6513 74.2783 25.5707 73.916 25.5707C73.5536 25.5707 73.2315 25.6513 72.9497 25.8123C72.6736 25.9734 72.4579 26.2063 72.3026 26.5112C72.1473 26.8102 72.0696 27.1611 72.0696 27.5637C72.0696 27.9664 72.1473 28.3201 72.3026 28.6249C72.4579 28.9298 72.6736 29.1656 72.9497 29.3324C73.2315 29.4935 73.5536 29.574 73.916 29.574ZM83.3042 24.5699L81.0955 30.592H79.6288L77.4201 24.5699H78.7143L80.3708 29.3583L82.0187 24.5699H83.3042ZM85.2363 25.5449V27.0547H87.2638V28.0124H85.2363V29.6085H87.5226V30.592H84.0284V24.5613H87.5226V25.5449H85.2363ZM90.7254 24.5699C91.3581 24.5699 91.9132 24.6936 92.3906 24.9409C92.8737 25.1882 93.2447 25.542 93.5035 26.0021C93.7681 26.4565 93.9004 26.9857 93.9004 27.5896C93.9004 28.1935 93.7681 28.7227 93.5035 29.1771C93.2447 29.6257 92.8737 29.9737 92.3906 30.2211C91.9132 30.4684 91.3581 30.592 90.7254 30.592H88.6203V24.5699H90.7254ZM90.6823 29.5653C91.315 29.5653 91.8039 29.3928 92.149 29.0477C92.4941 28.7026 92.6666 28.2166 92.6666 27.5896C92.6666 26.9627 92.4941 26.4738 92.149 26.1229C91.8039 25.7663 91.315 25.588 90.6823 25.588H89.8281V29.5653H90.6823Z" fill="white"/>
</svg>
