<svg width="131" height="22" viewBox="0 0 131 22" fill="none" xmlns="http://www.w3.org/2000/svg">
<path d="M19.0372 3.13946C18.3914 3.69616 17.7657 4.26957 17.0865 4.8786C17.9271 5.08235 17.9238 5.07901 17.4895 5.74928C15.9642 8.10079 13.8153 9.67626 11.2712 10.7652C8.81499 11.8173 6.21185 12.2939 3.58867 12.7125C2.57992 12.874 2.2626 12.8717 2.15237 12.2972C1.76862 12.3128 1.3845 12.3328 1 12.3573V12.9397C1.32623 14.3871 1.77938 15.7866 2.58103 17.047C3.59645 18.6588 5.06956 19.9311 6.81197 20.7012C7.10703 20.4017 7.38538 20.0844 7.47222 19.6925C7.47954 19.6613 7.48922 19.6308 7.50117 19.6012L7.40653 19.5499C7.55684 19.4219 7.66373 19.3273 7.77952 19.2337C10.5285 17.1606 12.8121 14.6476 14.7583 11.8218C16.0743 9.89057 17.2462 7.865 18.2645 5.76153C18.3569 5.57337 18.3892 5.06009 18.8267 5.51769C18.9559 5.65242 19.0605 5.48875 19.0828 5.35291C19.1942 4.67819 19.3055 4.00235 19.3823 3.32317C19.4135 3.06932 19.2387 2.968 19.0372 3.13946Z" fill="#141426"/>
<path d="M20.0421 7.13982C20.9506 9.26704 21.0796 11.6465 20.4066 13.8596C19.7336 16.0726 18.3015 17.9773 16.3625 19.2385C14.4235 20.4997 12.1018 21.0366 9.80592 20.7547C7.51006 20.4727 5.38721 19.39 3.81097 17.6972C2.23472 16.0043 1.30609 13.8097 1.1885 11.4995C1.07091 9.18943 1.77189 6.91187 3.16809 5.06767C4.56429 3.22347 6.56622 1.93083 8.82158 1.41722C11.0769 0.903619 13.4412 1.20197 15.4982 2.25977" stroke="#141426" stroke-width="1.79423" stroke-miterlimit="10" stroke-linecap="round"/>
<path d="M86.8584 1.35084C88.3225 1.35084 89.7867 1.32213 91.2508 1.35084C92.7598 1.38852 93.4416 2.04523 93.6892 3.54705C93.8229 4.25162 93.8711 4.96974 93.8328 5.68585C93.7736 6.46816 93.4847 7.16434 92.8172 7.59138C92.2502 7.95024 92.2054 8.3091 92.5732 8.82047C92.7526 9.08244 92.8477 9.41079 93.0128 9.68891C93.3968 10.342 93.1366 10.8516 92.3633 10.8229C91.6455 10.796 91.0624 10.5268 90.734 9.78759C90.0163 8.17273 89.417 7.90179 87.6353 8.06328C86.7184 8.14761 85.7872 8.09199 84.8631 8.10096C83.591 8.11531 83.5174 8.19067 83.4905 9.48615C83.469 10.5627 83.2967 10.7099 82.3296 10.7134C81.576 10.7134 81.2817 10.3133 81.3391 9.64943C81.4148 8.42835 81.425 7.20408 81.3696 5.9819C81.3696 5.59972 81.2566 4.99863 81.8774 5.05605C82.4301 5.10629 83.3523 4.44061 83.4654 5.68046C83.5102 6.18645 83.8655 6.2654 84.2979 6.26361C86.2716 6.25464 88.2454 6.26361 90.2191 6.25464C91.2275 6.25464 91.642 5.78812 91.6545 4.74205C91.6671 3.69597 91.2239 3.11283 90.2191 3.09489C88.3979 3.059 86.5731 3.08053 84.7519 3.08053C83.9139 3.08053 83.0778 3.08053 82.2399 3.08053C81.6065 3.08053 81.3032 2.80062 81.3158 2.15827C81.3284 1.51591 81.6621 1.27009 82.2811 1.27548C83.8045 1.28983 85.3314 1.27548 86.8512 1.27548L86.8584 1.35084Z" fill="#141426"/>
<path d="M57.2774 1.33641C58.7129 1.33641 60.1483 1.31667 61.5837 1.33641C63.2309 1.36691 63.9396 1.95544 64.1711 3.57389C64.2767 4.37229 64.2917 5.18006 64.216 5.98183C64.1083 7.23783 63.3798 7.89454 62.0108 7.99682C59.8963 8.15111 57.7742 8.17089 55.6572 8.05603C54.2056 7.97888 53.9544 8.19957 54.0172 9.61527C54.0477 10.3043 53.8216 10.6918 53.0698 10.7044C52.3683 10.7134 51.8282 10.629 51.8587 9.71037C51.9017 8.42924 51.8677 7.14453 51.8712 5.86341C51.8712 5.45431 51.9179 4.88373 52.4562 4.88373C52.9945 4.88373 53.8091 4.54819 53.9544 5.60144C54.0316 6.13973 54.3312 6.28327 54.8103 6.28148C56.8091 6.28148 58.8116 6.29942 60.8104 6.26712C61.7847 6.25097 62.0861 5.83829 62.0861 4.73121C62.0861 3.57927 61.7506 3.12532 60.7799 3.11635C58.1818 3.09302 55.5765 3.11635 52.9873 3.1002C52.5423 3.1002 52.0614 3.12891 51.8784 2.56191C51.6182 1.76525 51.9592 1.30591 52.8061 1.30591H57.2918L57.2774 1.33641Z" fill="#141426"/>
<path d="M46.5582 3.48737C45.5049 5.56157 44.4875 7.54605 43.4899 9.54131C43.1526 10.216 42.7722 10.7435 41.8912 10.7202C41.0102 10.6968 40.4558 10.3218 40.0826 9.52875C39.25 7.78111 38.3511 6.06397 37.506 4.3253C37.0879 3.46404 36.537 2.91858 35.4838 3.0998C34.8863 3.20387 34.6082 2.86654 34.5866 2.27802C34.5615 1.72358 34.7069 1.41676 35.351 1.32884C37.5042 1.03816 38.3672 1.50827 39.1639 3.50711C39.8708 5.27807 40.8057 6.93241 41.8069 8.73208C42.3254 7.77931 42.7973 6.93779 43.2423 6.08012C43.8757 4.86538 44.5109 3.65065 45.1084 2.41618C45.5067 1.59798 46.0558 1.12967 47.0157 1.3396C47.0751 1.34777 47.1351 1.35136 47.1951 1.35037C49.0092 1.44905 49.0056 1.44905 49.0056 3.33844C49.0056 5.42879 48.9894 7.51914 49.0289 9.61846C49.045 10.4367 48.7346 10.7255 47.9236 10.722C47.0857 10.722 46.8327 10.3631 46.847 9.5754C46.8847 7.87441 46.8668 6.16625 46.847 4.47064C46.8488 4.15484 46.9816 3.79778 46.5582 3.48737Z" fill="#141426"/>
<path d="M128.72 3.48925C127.657 5.5796 126.622 7.55332 125.65 9.55575C125.267 10.347 124.763 10.74 123.855 10.7202C122.947 10.7005 122.536 10.1999 122.19 9.47859C121.313 7.65559 120.396 5.85054 119.513 4.03112C119.154 3.29905 118.602 2.95455 117.782 3.09091C117.22 3.18422 116.838 3.02812 116.782 2.39652C116.732 1.83312 116.82 1.44555 117.523 1.31995C119.463 0.993389 120.545 1.53347 121.257 3.35826C121.969 5.18306 122.969 6.87687 123.949 8.74114L125.879 5.13103C126.369 4.21235 126.857 3.29188 127.351 2.3732C128.11 0.959296 129.466 1.07234 130.631 1.33072C130.989 1.40787 130.998 1.67881 131 1.95154C131 4.64298 131 7.32185 131 10.0079C131 10.8243 130.408 10.6431 129.924 10.679C129.337 10.7202 129.026 10.5211 129.026 9.8841C129.039 8.15441 129.026 6.42471 129.026 4.69501C129.019 4.32898 129.089 3.93064 128.72 3.48925Z" fill="#141426"/>
<path d="M107.517 10.6938C106.324 10.6938 105.129 10.7189 103.928 10.6938C102.216 10.649 101.578 9.99764 101.549 8.26256C101.515 6.26372 101.515 4.26488 101.511 2.26604C101.511 1.8049 101.393 1.26303 102.172 1.28456C103.593 1.32224 103.607 1.30788 103.607 2.33242C103.607 3.94729 103.607 5.55318 103.618 7.16266C103.636 8.72369 103.842 8.92106 105.378 8.92824C106.992 8.93541 108.607 8.93541 110.223 8.92824C111.441 8.92824 111.793 8.56938 111.791 7.31337C111.791 5.64289 111.828 3.97061 111.764 2.30192C111.726 1.34556 112.259 1.34377 112.948 1.31865C113.666 1.29173 113.974 1.52679 113.958 2.28577C113.917 4.1644 113.958 6.05378 113.926 7.92523C113.899 9.83436 113.101 10.631 111.193 10.7046C110.567 10.7279 109.937 10.7297 109.315 10.7351C108.717 10.7351 108.12 10.7351 107.52 10.7351L107.517 10.6938Z" fill="#141426"/>
<path d="M72.707 10.7059C71.0922 10.7059 69.4773 10.6862 67.8624 10.7059C67.1142 10.7185 66.7571 10.4457 66.7751 9.66342C66.8038 8.44151 66.802 7.2178 66.7751 5.99589C66.7589 5.31406 67.0299 5.02159 67.7225 5.02518C70.6496 5.03953 73.5766 5.03953 76.5037 5.02518C77.0941 5.02518 77.4009 5.25305 77.4009 5.85594C77.4009 6.49829 77.0959 6.75308 76.4625 6.75308C74.3416 6.73335 72.2208 6.76385 70.0999 6.72437C69.2817 6.70822 68.8601 6.95404 68.8906 7.83325C68.9229 8.78781 69.1166 9.01389 70.1466 9.01209C72.5958 9.01209 75.0432 8.98877 77.4924 8.98339C77.9069 8.98339 78.3429 8.9493 78.5187 9.4822C78.7628 10.225 78.4416 10.6951 77.6216 10.7023C75.996 10.7149 74.3524 10.7059 72.707 10.7059Z" fill="#141426"/>
<path d="M70.4801 15.4719C71.4059 15.4719 72.3318 15.4719 73.2576 15.4719C73.5896 15.4719 73.8839 15.5545 73.8587 15.9528C73.8354 16.2991 73.6075 16.4355 73.2451 16.4319C71.8419 16.4175 70.437 16.4319 69.0339 16.4319C68.6158 16.4319 68.1367 16.3619 68.1116 16.9845C68.0883 17.6915 68.6338 17.5838 69.0662 17.5856C70.1984 17.5856 71.3306 17.5766 72.4646 17.5641C72.8234 17.5641 73.1536 17.6035 73.1608 18.0521C73.1697 18.5438 72.8468 18.5904 72.443 18.5904C71.2498 18.5635 70.0548 18.5904 68.8545 18.5563C68.3915 18.5473 68.0883 18.6514 68.1044 19.1789C68.1206 19.6795 68.3933 19.8213 68.867 19.8141C70.3024 19.7908 71.7379 19.7998 73.1733 19.8033C73.4927 19.8033 73.891 19.7298 73.909 20.2214C73.9251 20.7597 73.525 20.6933 73.1536 20.7059C71.5728 20.7633 69.9902 20.6413 68.4095 20.8099C67.3437 20.9248 66.8915 20.4977 66.8807 19.4427C66.8718 18.3392 66.9364 17.2357 66.9507 16.1322C66.9507 15.6065 67.2737 15.4791 67.7097 15.4773C68.6284 15.4683 69.5542 15.4701 70.4801 15.4719Z" fill="#141426"/>
<path d="M109.832 20.7033C109.055 20.7033 108.28 20.7033 107.499 20.7033C107.2 20.7033 106.832 20.7661 106.805 20.3552C106.778 19.9174 107.148 19.8564 107.494 19.8546C108.897 19.8546 110.3 19.8546 111.702 19.8439C111.939 19.8598 112.177 19.8268 112.401 19.747C112.724 19.5963 112.717 19.2643 112.653 18.9647C112.572 18.5879 112.263 18.5681 111.953 18.5663C110.729 18.5663 109.505 18.5771 108.282 18.5412C107.248 18.5125 106.71 18.0891 106.581 17.2978C106.419 16.3019 106.94 15.5627 107.952 15.5178C109.618 15.4443 111.291 15.4604 112.959 15.4353C113.275 15.4353 113.498 15.5501 113.498 15.8857C113.487 16.2984 113.211 16.424 112.827 16.424C111.391 16.424 109.956 16.4365 108.52 16.424C107.921 16.415 107.686 16.668 107.803 17.2368C107.9 17.7284 108.309 17.6513 108.659 17.653C109.852 17.653 111.045 17.6297 112.236 17.6674C113.428 17.7051 113.927 18.1895 113.921 19.18C113.916 20.1704 113.403 20.6657 112.24 20.7195C111.436 20.7572 110.625 20.7195 109.825 20.7195L109.832 20.7033Z" fill="#141426"/>
<path d="M96.4739 6.04265C96.4739 4.75794 96.5044 3.47323 96.4631 2.19211C96.4398 1.44747 96.7592 1.2824 97.4356 1.31829C98.0636 1.35238 98.6414 1.26087 98.6306 2.19031C98.6019 4.72505 98.6019 7.26098 98.6306 9.79811C98.6306 10.6091 98.2036 10.706 97.5433 10.6953C96.883 10.6845 96.4398 10.6342 96.4667 9.79811C96.5151 8.5421 96.4792 7.2861 96.4792 6.03009L96.4739 6.04265Z" fill="#141426"/>
<path d="M72.6631 2.99425C71.0482 2.99425 69.4334 2.97272 67.8185 3.00502C67.1492 3.01937 66.8047 2.79508 66.7886 2.10787C66.7706 1.36683 67.2443 1.33274 67.8024 1.33453C71.0321 1.3453 74.2576 1.3453 77.479 1.33453C78.0173 1.33453 78.5035 1.33453 78.4909 2.10249C78.4802 2.79867 78.1769 3.02296 77.4951 2.99963C75.8892 2.96554 74.2762 2.99425 72.6631 2.99425Z" fill="#141426"/>
<path d="M29.6074 5.94721C29.6074 4.66609 29.6236 3.38497 29.5985 2.10564C29.5877 1.53146 29.7958 1.27129 30.3826 1.3305C30.9083 1.38254 31.5848 1.13851 31.5812 2.07513C31.5668 4.66609 31.5668 7.25645 31.5812 9.84621C31.5812 10.6895 31.0626 10.6806 30.4508 10.7039C29.7546 10.7308 29.5841 10.4132 29.5985 9.787C29.629 8.50767 29.6074 7.22654 29.6074 5.94721Z" fill="#141426"/>
<path d="M90.3349 15.4737H93.6436C93.9683 15.4737 94.2375 15.5185 94.2213 15.951C94.2052 16.3834 93.9666 16.4283 93.6274 16.4372C93.0622 16.4534 92.4988 16.4964 91.9336 16.5251C91.1136 16.57 90.7871 17.0634 90.7817 17.8206C90.7817 18.5383 90.7673 19.2561 90.7817 19.9738C90.7817 20.3757 90.6956 20.7023 90.2201 20.7148C89.7015 20.7292 89.5777 20.39 89.5813 19.9487C89.5813 19.0856 89.5705 18.2208 89.5957 17.3577C89.6154 16.6795 89.3552 16.3726 88.6447 16.4247C88.0221 16.4713 87.3887 16.4372 86.7679 16.4247C86.4377 16.4247 86.1578 16.317 86.1524 15.9366C86.147 15.5562 86.4467 15.4486 86.7661 15.4468C87.9593 15.4468 89.1507 15.4468 90.3421 15.4468L90.3349 15.4737Z" fill="#141426"/>
<path d="M50.0833 20.7034C49.3961 20.7034 48.7089 20.6855 48.0217 20.7034C47.2017 20.7304 46.8393 20.2638 46.6814 19.5443C46.6078 19.2142 46.6724 18.9504 47.0223 18.8266C47.3722 18.7028 47.7238 18.7836 47.8064 19.1711C47.9427 19.8081 48.3734 19.844 48.883 19.8368C49.7191 19.826 50.557 19.8153 51.395 19.8368C52.1127 19.8601 52.4374 19.5551 52.4195 18.8284C52.398 17.9636 52.4195 17.0969 52.4195 16.2303C52.4195 15.7925 52.5038 15.4534 53.0439 15.4641C53.584 15.4749 53.6576 15.8122 53.6504 16.2518C53.6324 17.2369 53.6504 18.2255 53.6235 19.2088C53.584 20.3051 53.1408 20.7124 52.0624 20.7106C51.7341 20.7106 51.4039 20.6999 51.0756 20.6981C50.7472 20.6963 50.4135 20.7034 50.0833 20.7034Z" fill="#141426"/>
<path d="M34.56 7.92459C34.56 7.30018 34.5852 6.66859 34.56 6.04956C34.5206 5.25289 34.9656 4.98375 35.6599 4.98734C36.3543 4.99093 36.7832 5.22957 36.7527 6.04597C36.7078 7.26609 36.7132 8.48979 36.7527 9.70991C36.776 10.5209 36.3848 10.7291 35.6528 10.7201C34.9207 10.7111 34.5026 10.5622 34.5941 9.71171C34.6294 9.11422 34.633 8.51529 34.6049 7.91742L34.56 7.92459Z" fill="#141426"/>
<path d="M118.917 7.98922V9.9468C118.917 10.8547 118.24 10.6555 117.706 10.6914C117.171 10.7273 116.765 10.6555 116.773 9.95756C116.789 8.5939 116.764 7.22844 116.751 5.86299C116.751 5.11477 117.244 4.99994 117.828 5.00173C118.411 5.00352 118.918 5.10939 118.922 5.85222C118.922 6.56994 118.922 7.27689 118.922 7.98922H118.917Z" fill="#141426"/>
</svg>
