<svg width="131" height="23" viewBox="0 0 131 23" fill="none" xmlns="http://www.w3.org/2000/svg">
<path d="M19.0372 3.63946C18.3914 4.19616 17.7657 4.76957 17.0865 5.3786C17.9271 5.58235 17.9238 5.57901 17.4895 6.24928C15.9642 8.60079 13.8153 10.1763 11.2712 11.2652C8.81499 12.3173 6.21185 12.7939 3.58867 13.2125C2.57992 13.374 2.2626 13.3717 2.15237 12.7972C1.76862 12.8128 1.3845 12.8328 1 12.8573V13.4397C1.32623 14.8871 1.77938 16.2866 2.58103 17.547C3.59645 19.1588 5.06956 20.4311 6.81197 21.2012C7.10703 20.9017 7.38538 20.5844 7.47222 20.1925C7.47954 20.1613 7.48922 20.1308 7.50117 20.1012L7.40653 20.0499C7.55684 19.9219 7.66373 19.8273 7.77952 19.7337C10.5285 17.6606 12.8121 15.1476 14.7583 12.3218C16.0743 10.3906 17.2462 8.365 18.2645 6.26153C18.3569 6.07337 18.3892 5.56009 18.8267 6.01769C18.9559 6.15242 19.0605 5.98875 19.0828 5.85291C19.1942 5.17819 19.3055 4.50235 19.3823 3.82317C19.4135 3.56932 19.2387 3.468 19.0372 3.63946Z" fill="white"/>
<path d="M20.0421 7.63982C20.9506 9.76704 21.0796 12.1465 20.4066 14.3596C19.7336 16.5726 18.3015 18.4773 16.3625 19.7385C14.4235 20.9997 12.1018 21.5366 9.80592 21.2547C7.51006 20.9727 5.38721 19.89 3.81097 18.1972C2.23472 16.5043 1.30609 14.3097 1.1885 11.9995C1.07091 9.68943 1.77189 7.41187 3.16809 5.56767C4.56429 3.72347 6.56622 2.43083 8.82158 1.91722C11.0769 1.40362 13.4412 1.70197 15.4982 2.75977" stroke="white" stroke-width="1.79423" stroke-miterlimit="10" stroke-linecap="round"/>
<path d="M86.8584 1.85084C88.3225 1.85084 89.7867 1.82213 91.2508 1.85084C92.7598 1.88852 93.4416 2.54523 93.6892 4.04705C93.8229 4.75162 93.8711 5.46974 93.8328 6.18585C93.7736 6.96816 93.4847 7.66434 92.8172 8.09138C92.2502 8.45024 92.2054 8.8091 92.5732 9.32047C92.7526 9.58244 92.8477 9.91079 93.0128 10.1889C93.3968 10.842 93.1366 11.3516 92.3633 11.3229C91.6455 11.296 91.0624 11.0268 90.734 10.2876C90.0163 8.67273 89.417 8.40179 87.6353 8.56328C86.7184 8.64761 85.7872 8.59199 84.8631 8.60096C83.591 8.61531 83.5174 8.69067 83.4905 9.98615C83.469 11.0627 83.2967 11.2099 82.3296 11.2134C81.576 11.2134 81.2817 10.8133 81.3391 10.1494C81.4148 8.92835 81.425 7.70408 81.3696 6.4819C81.3696 6.09972 81.2566 5.49863 81.8774 5.55605C82.4301 5.60629 83.3523 4.94061 83.4654 6.18046C83.5102 6.68645 83.8655 6.7654 84.2979 6.76361C86.2716 6.75464 88.2454 6.76361 90.2191 6.75464C91.2275 6.75464 91.642 6.28812 91.6545 5.24205C91.6671 4.19597 91.2239 3.61283 90.2191 3.59489C88.3979 3.559 86.5731 3.58053 84.7519 3.58053C83.9139 3.58053 83.0778 3.58053 82.2399 3.58053C81.6065 3.58053 81.3032 3.30062 81.3158 2.65827C81.3284 2.01591 81.6621 1.77009 82.2811 1.77548C83.8045 1.78983 85.3314 1.77548 86.8512 1.77548L86.8584 1.85084Z" fill="white"/>
<path d="M57.2774 1.83641C58.7129 1.83641 60.1483 1.81667 61.5837 1.83641C63.2309 1.86691 63.9396 2.45544 64.1711 4.07389C64.2767 4.87229 64.2917 5.68006 64.216 6.48183C64.1083 7.73783 63.3798 8.39454 62.0108 8.49682C59.8963 8.65111 57.7742 8.67089 55.6572 8.55603C54.2056 8.47888 53.9544 8.69957 54.0172 10.1153C54.0477 10.8043 53.8216 11.1918 53.0698 11.2044C52.3683 11.2134 51.8282 11.129 51.8587 10.2104C51.9017 8.92924 51.8677 7.64453 51.8712 6.36341C51.8712 5.95431 51.9179 5.38373 52.4562 5.38373C52.9945 5.38373 53.8091 5.04819 53.9544 6.10144C54.0316 6.63973 54.3312 6.78327 54.8103 6.78148C56.8091 6.78148 58.8116 6.79942 60.8104 6.76712C61.7847 6.75097 62.0861 6.33829 62.0861 5.23121C62.0861 4.07927 61.7506 3.62532 60.7799 3.61635C58.1818 3.59302 55.5765 3.61635 52.9873 3.6002C52.5423 3.6002 52.0614 3.62891 51.8784 3.06191C51.6182 2.26525 51.9592 1.80591 52.8061 1.80591H57.2918L57.2774 1.83641Z" fill="white"/>
<path d="M46.5582 3.98737C45.5049 6.06157 44.4875 8.04605 43.4899 10.0413C43.1526 10.716 42.7722 11.2435 41.8912 11.2202C41.0102 11.1968 40.4558 10.8218 40.0826 10.0287C39.25 8.28111 38.3511 6.56397 37.506 4.8253C37.0879 3.96404 36.537 3.41858 35.4838 3.5998C34.8863 3.70387 34.6082 3.36654 34.5866 2.77802C34.5615 2.22358 34.7069 1.91676 35.351 1.82884C37.5042 1.53816 38.3672 2.00827 39.1639 4.00711C39.8708 5.77807 40.8057 7.43241 41.8069 9.23208C42.3254 8.27931 42.7973 7.43779 43.2423 6.58012C43.8757 5.36538 44.5109 4.15065 45.1084 2.91618C45.5067 2.09798 46.0558 1.62967 47.0157 1.8396C47.0751 1.84777 47.1351 1.85136 47.1951 1.85037C49.0092 1.94905 49.0056 1.94905 49.0056 3.83844C49.0056 5.92879 48.9894 8.01914 49.0289 10.1185C49.045 10.9367 48.7346 11.2255 47.9236 11.222C47.0857 11.222 46.8327 10.8631 46.847 10.0754C46.8847 8.37441 46.8668 6.66625 46.847 4.97064C46.8488 4.65484 46.9816 4.29778 46.5582 3.98737Z" fill="white"/>
<path d="M128.72 3.98925C127.657 6.0796 126.622 8.05332 125.65 10.0557C125.267 10.847 124.763 11.24 123.855 11.2202C122.947 11.2005 122.536 10.6999 122.19 9.97859C121.313 8.15559 120.396 6.35054 119.513 4.53112C119.154 3.79905 118.602 3.45455 117.782 3.59091C117.22 3.68422 116.838 3.52812 116.782 2.89652C116.732 2.33312 116.82 1.94555 117.523 1.81995C119.463 1.49339 120.545 2.03347 121.257 3.85826C121.969 5.68306 122.969 7.37687 123.949 9.24114L125.879 5.63103C126.369 4.71235 126.857 3.79188 127.351 2.8732C128.11 1.4593 129.466 1.57234 130.631 1.83072C130.989 1.90787 130.998 2.17881 131 2.45154C131 5.14298 131 7.82185 131 10.5079C131 11.3243 130.408 11.1431 129.924 11.179C129.337 11.2202 129.026 11.0211 129.026 10.3841C129.039 8.65441 129.026 6.92471 129.026 5.19501C129.019 4.82898 129.089 4.43064 128.72 3.98925Z" fill="white"/>
<path d="M107.517 11.1938C106.324 11.1938 105.129 11.2189 103.928 11.1938C102.216 11.149 101.578 10.4976 101.549 8.76256C101.515 6.76372 101.515 4.76488 101.511 2.76604C101.511 2.3049 101.393 1.76303 102.172 1.78456C103.593 1.82224 103.607 1.80788 103.607 2.83242C103.607 4.44729 103.607 6.05318 103.618 7.66266C103.636 9.22369 103.842 9.42106 105.378 9.42824C106.992 9.43541 108.607 9.43541 110.223 9.42824C111.441 9.42824 111.793 9.06938 111.791 7.81337C111.791 6.14289 111.828 4.47061 111.764 2.80192C111.726 1.84556 112.259 1.84377 112.948 1.81865C113.666 1.79173 113.974 2.02679 113.958 2.78577C113.917 4.6644 113.958 6.55378 113.926 8.42523C113.899 10.3344 113.101 11.131 111.193 11.2046C110.567 11.2279 109.937 11.2297 109.315 11.2351C108.717 11.2351 108.12 11.2351 107.52 11.2351L107.517 11.1938Z" fill="white"/>
<path d="M72.707 11.2059C71.0922 11.2059 69.4773 11.1862 67.8624 11.2059C67.1142 11.2185 66.7571 10.9457 66.7751 10.1634C66.8038 8.94151 66.802 7.7178 66.7751 6.49589C66.7589 5.81406 67.0299 5.52159 67.7225 5.52518C70.6496 5.53953 73.5766 5.53953 76.5037 5.52518C77.0941 5.52518 77.4009 5.75305 77.4009 6.35594C77.4009 6.99829 77.0959 7.25308 76.4625 7.25308C74.3416 7.23335 72.2208 7.26385 70.0999 7.22437C69.2817 7.20822 68.8601 7.45404 68.8906 8.33325C68.9229 9.28781 69.1166 9.51389 70.1466 9.51209C72.5958 9.51209 75.0432 9.48877 77.4924 9.48339C77.9069 9.48339 78.3429 9.4493 78.5187 9.9822C78.7628 10.725 78.4416 11.1951 77.6216 11.2023C75.996 11.2149 74.3524 11.2059 72.707 11.2059Z" fill="white"/>
<path d="M70.4801 15.9719C71.4059 15.9719 72.3318 15.9719 73.2576 15.9719C73.5896 15.9719 73.8839 16.0545 73.8587 16.4528C73.8354 16.7991 73.6075 16.9355 73.2451 16.9319C71.8419 16.9175 70.437 16.9319 69.0339 16.9319C68.6158 16.9319 68.1367 16.8619 68.1116 17.4845C68.0883 18.1915 68.6338 18.0838 69.0662 18.0856C70.1984 18.0856 71.3306 18.0766 72.4646 18.0641C72.8234 18.0641 73.1536 18.1035 73.1608 18.5521C73.1697 19.0438 72.8468 19.0904 72.443 19.0904C71.2498 19.0635 70.0548 19.0904 68.8545 19.0563C68.3915 19.0473 68.0883 19.1514 68.1044 19.6789C68.1206 20.1795 68.3933 20.3213 68.867 20.3141C70.3024 20.2908 71.7379 20.2998 73.1733 20.3033C73.4927 20.3033 73.891 20.2298 73.909 20.7214C73.9251 21.2597 73.525 21.1933 73.1536 21.2059C71.5728 21.2633 69.9902 21.1413 68.4095 21.3099C67.3437 21.4248 66.8915 20.9977 66.8807 19.9427C66.8718 18.8392 66.9364 17.7357 66.9507 16.6322C66.9507 16.1065 67.2737 15.9791 67.7097 15.9773C68.6284 15.9683 69.5542 15.9701 70.4801 15.9719Z" fill="white"/>
<path d="M109.832 21.2033C109.055 21.2033 108.28 21.2033 107.499 21.2033C107.2 21.2033 106.832 21.2661 106.805 20.8552C106.778 20.4174 107.148 20.3564 107.494 20.3546C108.897 20.3546 110.3 20.3546 111.702 20.3439C111.939 20.3598 112.177 20.3268 112.401 20.247C112.724 20.0963 112.717 19.7643 112.653 19.4647C112.572 19.0879 112.263 19.0681 111.953 19.0663C110.729 19.0663 109.505 19.0771 108.282 19.0412C107.248 19.0125 106.71 18.5891 106.581 17.7978C106.419 16.8019 106.94 16.0627 107.952 16.0178C109.618 15.9443 111.291 15.9604 112.959 15.9353C113.275 15.9353 113.498 16.0501 113.498 16.3857C113.487 16.7984 113.211 16.924 112.827 16.924C111.391 16.924 109.956 16.9365 108.52 16.924C107.921 16.915 107.686 17.168 107.803 17.7368C107.9 18.2284 108.309 18.1513 108.659 18.153C109.852 18.153 111.045 18.1297 112.236 18.1674C113.428 18.2051 113.927 18.6895 113.921 19.68C113.916 20.6704 113.403 21.1657 112.24 21.2195C111.436 21.2572 110.625 21.2195 109.825 21.2195L109.832 21.2033Z" fill="white"/>
<path d="M96.4739 6.54265C96.4739 5.25794 96.5044 3.97323 96.4631 2.69211C96.4398 1.94747 96.7592 1.7824 97.4356 1.81829C98.0636 1.85238 98.6414 1.76087 98.6306 2.69031C98.6019 5.22505 98.6019 7.76098 98.6306 10.2981C98.6306 11.1091 98.2036 11.206 97.5433 11.1953C96.883 11.1845 96.4398 11.1342 96.4667 10.2981C96.5151 9.0421 96.4792 7.7861 96.4792 6.53009L96.4739 6.54265Z" fill="white"/>
<path d="M72.6631 3.49425C71.0482 3.49425 69.4334 3.47272 67.8185 3.50502C67.1492 3.51937 66.8047 3.29508 66.7886 2.60787C66.7706 1.86683 67.2443 1.83274 67.8024 1.83453C71.0321 1.8453 74.2576 1.8453 77.479 1.83453C78.0173 1.83453 78.5035 1.83453 78.4909 2.60249C78.4802 3.29867 78.1769 3.52296 77.4951 3.49963C75.8892 3.46554 74.2762 3.49425 72.6631 3.49425Z" fill="white"/>
<path d="M29.6074 6.44721C29.6074 5.16609 29.6236 3.88497 29.5985 2.60564C29.5877 2.03146 29.7958 1.77129 30.3826 1.8305C30.9083 1.88254 31.5848 1.63851 31.5812 2.57513C31.5668 5.16609 31.5668 7.75645 31.5812 10.3462C31.5812 11.1895 31.0626 11.1806 30.4508 11.2039C29.7546 11.2308 29.5841 10.9132 29.5985 10.287C29.629 9.00767 29.6074 7.72654 29.6074 6.44721Z" fill="white"/>
<path d="M90.3349 15.9737H93.6436C93.9683 15.9737 94.2375 16.0185 94.2213 16.451C94.2052 16.8834 93.9666 16.9283 93.6274 16.9372C93.0622 16.9534 92.4988 16.9964 91.9336 17.0251C91.1136 17.07 90.7871 17.5634 90.7817 18.3206C90.7817 19.0383 90.7673 19.7561 90.7817 20.4738C90.7817 20.8757 90.6956 21.2023 90.2201 21.2148C89.7015 21.2292 89.5777 20.89 89.5813 20.4487C89.5813 19.5856 89.5705 18.7208 89.5957 17.8577C89.6154 17.1795 89.3552 16.8726 88.6447 16.9247C88.0221 16.9713 87.3887 16.9372 86.7679 16.9247C86.4377 16.9247 86.1578 16.817 86.1524 16.4366C86.147 16.0562 86.4467 15.9486 86.7661 15.9468C87.9593 15.9468 89.1507 15.9468 90.3421 15.9468L90.3349 15.9737Z" fill="white"/>
<path d="M50.0833 21.2034C49.3961 21.2034 48.7089 21.1855 48.0217 21.2034C47.2017 21.2304 46.8393 20.7638 46.6814 20.0443C46.6078 19.7142 46.6724 19.4504 47.0223 19.3266C47.3722 19.2028 47.7238 19.2836 47.8064 19.6711C47.9427 20.3081 48.3734 20.344 48.883 20.3368C49.7191 20.326 50.557 20.3153 51.395 20.3368C52.1127 20.3601 52.4374 20.0551 52.4195 19.3284C52.398 18.4636 52.4195 17.5969 52.4195 16.7303C52.4195 16.2925 52.5038 15.9534 53.0439 15.9641C53.584 15.9749 53.6576 16.3122 53.6504 16.7518C53.6324 17.7369 53.6504 18.7255 53.6235 19.7088C53.584 20.8051 53.1408 21.2124 52.0624 21.2106C51.7341 21.2106 51.4039 21.1999 51.0756 21.1981C50.7472 21.1963 50.4135 21.2034 50.0833 21.2034Z" fill="white"/>
<path d="M34.56 8.42459C34.56 7.80018 34.5852 7.16859 34.56 6.54956C34.5206 5.75289 34.9656 5.48375 35.6599 5.48734C36.3543 5.49093 36.7832 5.72957 36.7527 6.54597C36.7078 7.76609 36.7132 8.98979 36.7527 10.2099C36.776 11.0209 36.3848 11.2291 35.6528 11.2201C34.9207 11.2111 34.5026 11.0622 34.5941 10.2117C34.6294 9.61422 34.633 9.01529 34.6049 8.41742L34.56 8.42459Z" fill="white"/>
<path d="M118.917 8.48922V10.4468C118.917 11.3547 118.24 11.1555 117.706 11.1914C117.171 11.2273 116.765 11.1555 116.773 10.4576C116.789 9.0939 116.764 7.72844 116.751 6.36299C116.751 5.61477 117.244 5.49994 117.828 5.50173C118.411 5.50352 118.918 5.60939 118.922 6.35222C118.922 7.06994 118.922 7.77689 118.922 8.48922H118.917Z" fill="white"/>
</svg>
