<svg width="20" height="14" viewBox="0 0 20 14" fill="none" xmlns="http://www.w3.org/2000/svg">
<path d="M17.7937 0.67511H4.95571C3.73911 0.67511 2.74934 1.66488 2.74934 2.88148V6.06992H0.631759C0.282852 6.06992 0 6.35282 0 6.70172C0 7.05063 0.282852 7.33348 0.631759 7.33348H2.74934V9.02977H1.69282C1.34391 9.02977 1.06106 9.31263 1.06106 9.66153C1.06106 10.0104 1.34391 10.2933 1.69282 10.2933H2.7493V11.1186C2.7493 12.3352 3.73907 13.3249 4.95567 13.3249H17.7936C19.0102 13.3249 20 12.3352 20 11.1186V2.88152C20 1.66492 19.0103 0.67511 17.7937 0.67511ZM4.95571 1.93867H17.7937C18.0177 1.93867 18.2237 2.01738 18.3856 2.14839L12.2539 6.64789C11.7362 7.02774 11.0131 7.02774 10.4955 6.64789L4.36376 2.14839C4.52567 2.01738 4.73165 1.93867 4.95571 1.93867ZM18.7365 11.1186C18.7365 11.6385 18.3136 12.0614 17.7937 12.0614H4.95571C4.43583 12.0614 4.01286 11.6385 4.01286 11.1186V10.2933H6.39185C6.74076 10.2933 7.02361 10.0104 7.02361 9.66153C7.02361 9.31263 6.74076 9.02977 6.39185 9.02977H4.01286V3.45812L9.74803 7.66657C10.2269 8.01805 10.8007 8.19368 11.3747 8.19368C11.9485 8.19368 12.5225 8.01797 13.0013 7.66657L18.7365 3.45812V11.1186H18.7365Z" fill="white"/>
</svg>
