<svg width="49" height="49" viewBox="0 0 49 49" fill="none" xmlns="http://www.w3.org/2000/svg">
<g clip-path="url(#clip0_118_1167)">
<path d="M40.9332 32.1304L39.1227 33.2149L34.2852 25.139C35.216 24.2954 35.8788 23.1935 36.1927 21.942C36.611 20.2739 36.3574 18.5472 35.4787 17.0801L30.2764 8.39533C29.7791 7.56503 28.6993 7.2942 27.8688 7.79155L19.8588 12.5895C19.3759 12.8789 19.084 13.3656 19.0207 13.8854C18.6469 13.7807 18.2518 13.801 17.8873 13.9499L9.24452 17.4827C8.34903 17.8491 7.91784 18.8757 8.28392 19.7714L10.3195 24.7514C10.3206 24.7543 10.3217 24.7573 10.323 24.7601L12.1143 29.1426C12.7613 30.7255 13.9909 31.9639 15.5768 32.6294C16.7664 33.1288 18.0458 33.2592 19.2791 33.0201L22.8408 41.7342L20.8872 42.5327C20.2431 42.7965 19.9354 43.5305 20.1984 44.1738C20.4615 44.8172 21.1962 45.1256 21.8395 44.8626L28.0766 42.3133C28.1097 42.2998 28.1419 42.285 28.1731 42.2691C28.7502 41.9751 29.0149 41.2825 28.7655 40.6722C28.5024 40.0288 27.7678 39.7204 27.1244 39.9834L25.1708 40.7819L21.6085 32.0665C22.656 31.3733 23.4784 30.3853 23.9777 29.1959C24.6433 27.6101 24.6536 25.8649 24.0066 24.282L22.266 20.0236L24.4576 23.6822C26.0564 26.3514 29.3001 27.4392 32.125 26.431L36.9635 34.5085L35.1529 35.593C34.5566 35.9502 34.3629 36.7231 34.72 37.3194C35.062 37.8906 35.7856 38.0924 36.3699 37.7947C36.3957 37.7815 36.4212 37.7674 36.4464 37.7523L42.2267 34.2899C42.823 33.9327 43.0168 33.1598 42.6596 32.5635C42.3025 31.9672 41.5298 31.7733 40.9332 32.1304ZM21.6766 25.2341C22.0692 26.1948 22.0622 27.2558 21.6568 28.2216C21.2514 29.1875 20.499 29.9361 19.5385 30.3284C18.5778 30.721 17.5169 30.714 16.551 30.3086C15.5851 29.9033 14.837 29.1509 14.4443 28.1903L13.2708 25.3192C14.6194 25.0793 15.9119 24.5543 17.0449 23.7801C17.9796 23.1411 19.0677 22.7283 20.1911 22.5863L20.5744 22.5377L21.6766 25.2341ZM19.59 20.1296C18.1736 20.3523 16.8081 20.893 15.6245 21.7021C14.638 22.3762 13.4886 22.796 12.2999 22.9161L12.2889 22.9172L10.9021 19.5244L18.1344 16.5682L19.59 20.1296ZM23.6895 17.5017L21.8061 14.3573L28.5087 10.3424L30.4857 13.6429C29.1191 14.077 27.8511 14.8179 26.8033 15.7965C25.9302 16.6119 24.8572 17.2006 23.7003 17.499L23.6895 17.5017ZM29.0193 24.1641C28.0033 23.9094 27.15 23.2788 26.6167 22.3886L25.0232 19.7282C25.4631 19.5786 25.892 19.3981 26.3054 19.1874C27.1106 18.7771 27.8585 18.2549 28.5212 17.6361C29.3486 16.8632 30.3617 16.2907 31.4509 15.9806L31.8225 15.8748L33.3194 18.3736C33.8526 19.2639 34.006 20.3137 33.7512 21.3298C33.4964 22.3459 32.8657 23.1991 31.9755 23.7323C31.0851 24.2656 30.0354 24.419 29.0193 24.1641Z" fill="#9D9D9D"/>
<path d="M15.8416 10.701C15.4744 10.8509 15.1879 11.1351 15.0345 11.5007C14.8809 11.8665 14.8791 12.2702 15.0291 12.637C15.179 13.0042 15.4631 13.291 15.8289 13.4445C16.1945 13.598 16.5981 13.5999 16.9656 13.4498C17.0043 13.434 17.0419 13.4167 17.0785 13.398C17.7585 13.0516 18.0718 12.2328 17.778 11.5138C17.4685 10.7558 16.5999 10.3912 15.8416 10.701Z" fill="#9D9D9D"/>
<path d="M12.0931 11.508C11.3348 11.8172 10.9705 12.6863 11.2804 13.4446C11.5901 14.2021 12.4586 14.5667 13.2167 14.2569C13.2555 14.2412 13.2931 14.2239 13.3297 14.2052C14.0098 13.8587 14.323 13.0399 14.0292 12.321C13.7196 11.563 12.8511 11.1984 12.0931 11.508Z" fill="#9D9D9D"/>
<path d="M27.3928 5.3998L27.3926 5.39944C27.1887 5.05925 26.8646 4.81869 26.4798 4.72228C26.0952 4.62587 25.6957 4.68485 25.356 4.88866C25.0156 5.09238 24.7751 5.41659 24.6785 5.80137C24.5821 6.18609 24.6412 6.58546 24.8448 6.92532C25.0486 7.26575 25.3727 7.50631 25.7576 7.60281C26.1086 7.69076 26.4717 7.6493 26.7907 7.48674C26.8214 7.47113 26.8517 7.45436 26.8815 7.43649C27.5839 7.01599 27.8133 6.10234 27.3928 5.3998Z" fill="#9D9D9D"/>
<path d="M23.8087 6.76381C23.388 6.06164 22.474 5.83312 21.7718 6.25319C21.4316 6.45706 21.1911 6.78108 21.0946 7.16574C20.9982 7.55046 21.0572 7.94977 21.2612 8.29008C21.4649 8.63027 21.789 8.87068 22.1737 8.96715C22.5246 9.05516 22.8877 9.0137 23.2068 8.85111C23.2375 8.8355 23.2678 8.81873 23.2976 8.80086C23.6379 8.59709 23.8785 8.27294 23.9751 7.88816C24.0717 7.50337 24.0126 7.10406 23.8087 6.76381Z" fill="#9D9D9D"/>
</g>
<defs>
<clipPath id="clip0_118_1167">
<rect width="35" height="35" fill="white" transform="translate(0.962524 16.8522) rotate(-27)"/>
</clipPath>
</defs>
</svg>
