<svg width="63" height="62" viewBox="0 0 63 62" fill="none" xmlns="http://www.w3.org/2000/svg">
<rect x="12.5" y="12.4999" width="37" height="37" rx="2.5" fill="#0089BC" fill-opacity="0.25" stroke="#0089BC"/>
<rect x="35" y="9.99994" width="9.20504" height="7.60416" transform="rotate(-90 35 9.99994)" fill="#0089BC" fill-opacity="0.25"/>
<rect x="35" y="2.79602" width="2.0011" height="7.60416" transform="rotate(-90 35 2.79602)" fill="#0089BC"/>
<rect x="20" y="9.99994" width="9.20504" height="7.60416" transform="rotate(-90 20 9.99994)" fill="#0089BC" fill-opacity="0.25"/>
<rect x="20" y="2.79602" width="2.0011" height="7.60416" transform="rotate(-90 20 2.79602)" fill="#0089BC"/>
<rect x="42.6041" y="52.7949" width="9.20504" height="7.60416" transform="rotate(90 42.6041 52.7949)" fill="#0089BC" fill-opacity="0.25"/>
<rect x="42.6041" y="59.9988" width="2.0011" height="7.60416" transform="rotate(90 42.6041 59.9988)" fill="#0089BC"/>
<rect x="27.6041" y="52.7949" width="9.20504" height="7.60416" transform="rotate(90 27.6041 52.7949)" fill="#0089BC" fill-opacity="0.25"/>
<rect x="27.6041" y="59.9988" width="2.0011" height="7.60416" transform="rotate(90 27.6041 59.9988)" fill="#0089BC"/>
<rect x="53.1996" y="19.5953" width="9.20504" height="7.60416" fill="#0089BC" fill-opacity="0.25"/>
<rect x="60.4035" y="19.5953" width="2.0011" height="7.60416" fill="#0089BC"/>
<rect x="53.1996" y="33.5953" width="9.20504" height="7.60416" fill="#0089BC" fill-opacity="0.25"/>
<rect x="60.4035" y="33.5953" width="2.0011" height="7.60416" fill="#0089BC"/>
<rect x="9.40454" y="27.1995" width="9.20504" height="7.60416" transform="rotate(-180 9.40454 27.1995)" fill="#0089BC" fill-opacity="0.25"/>
<rect x="2.20056" y="27.1995" width="2.0011" height="7.60416" transform="rotate(-180 2.20056 27.1995)" fill="#0089BC"/>
<rect x="9.40454" y="41.1995" width="9.20504" height="7.60416" transform="rotate(180 9.40454 41.1995)" fill="#0089BC" fill-opacity="0.25"/>
<rect x="2.20056" y="41.1995" width="2.0011" height="7.60416" transform="rotate(180 2.20056 41.1995)" fill="#0089BC"/>
</svg>
