<svg width="36" height="36" viewBox="0 0 36 36" fill="none" xmlns="http://www.w3.org/2000/svg">
<circle cx="18" cy="18" r="16.5" fill="white" stroke="#143963" stroke-width="3"/>
<path d="M14.389 25.88L14.569 25.68L14.729 25.58L14.909 25.68C15.169 25.48 15.389 25.26 15.569 25.04C15.749 24.82 16.089 24.24 16.629 23.34L17.869 21.24C18.529 20.12 21.989 15.42 22.769 14.54C24.569 12.48 25.169 11.86 25.409 11.54C25.629 11.26 25.769 11.04 25.769 10.88C25.769 10.78 25.709 10.62 25.609 10.62C25.509 10.62 25.349 10.7 25.149 10.84L25.309 10.48L24.629 10.88L24.669 10.6C24.629 10.72 24.309 11.04 24.229 11.04C24.169 11.04 24.149 10.98 24.149 10.88V10.8L23.589 11.08C23.549 11.08 23.509 11.06 23.509 11C23.509 10.94 23.549 10.8 23.589 10.6C23.309 10.9 22.909 11.24 22.389 11.6C21.689 12.08 18.969 15.5 17.869 17.28C17.129 18.46 16.829 19.16 16.709 19.16C16.669 19.16 16.649 19.08 16.629 18.92C16.269 19.74 15.949 20.42 15.629 20.92C15.309 21.42 15.009 21.68 14.789 21.68C14.529 21.68 14.309 21.18 14.069 20.16C13.969 19.72 13.749 19.44 13.429 19.28L13.369 19.26C13.309 19.26 13.229 19.3 13.129 19.36C13.029 19.42 12.969 19.48 12.929 19.48H12.909L12.549 19.36L12.229 19.84C12.189 19.9 12.109 19.92 12.049 19.92C11.949 19.92 11.869 19.9 11.829 19.84C11.749 20.12 11.649 20.26 11.569 20.26C11.509 20.26 11.389 20.22 11.229 20.12C11.369 21.18 11.489 21.88 11.609 22.22C11.849 22.88 12.389 24.38 12.909 25.38C12.969 25.5 13.049 25.64 13.109 25.76C13.309 25.64 13.369 25.62 13.509 25.62L13.669 25.64C13.769 25.68 13.829 25.74 13.829 25.84L14.289 25.62C14.369 25.62 14.389 25.7 14.389 25.88Z" fill="#0089BC"/>
</svg>
